<mxfile host="app.diagrams.net" modified="2022-10-26T09:45:14.744Z" agent="5.0 (Windows)" etag="5Am1lsI7HRyMOmm2ub5E" version="20.5.1" type="github">
  <diagram id="uYJPAayas_MNkM8RdZSs" name="Pagina-1">
    <mxGraphModel dx="1038" dy="556" grid="1" gridSize="10" guides="1" tooltips="1" connect="1" arrows="1" fold="1" page="1" pageScale="1" pageWidth="827" pageHeight="3069" math="0" shadow="0">
      <root>
        <mxCell id="0" />
        <mxCell id="1" parent="0" />
        <mxCell id="cyQSi4xDq6iUD2--l04q-3" value="" style="rounded=0;whiteSpace=wrap;html=1;strokeColor=none;" vertex="1" parent="1">
          <mxGeometry x="80" y="20" width="670" height="10180" as="geometry" />
        </mxCell>
        <mxCell id="K6NGUNYvaxgkHjzbPg3--787" value="Ending Phase" style="rounded=0;whiteSpace=wrap;html=1;fillColor=#eeeeee;strokeColor=#36393d;align=left;verticalAlign=top;spacingLeft=5;" parent="1" vertex="1">
          <mxGeometry x="110" y="8350" width="610" height="1730" as="geometry" />
        </mxCell>
        <mxCell id="K6NGUNYvaxgkHjzbPg3--377" value="&lt;div&gt;Beginning Phase&lt;br&gt;&lt;/div&gt;" style="rounded=0;whiteSpace=wrap;html=1;align=left;verticalAlign=top;spacingLeft=5;fillColor=#eeeeee;strokeColor=#36393d;" parent="1" vertex="1">
          <mxGeometry x="110" y="70" width="610" height="2400" as="geometry" />
        </mxCell>
        <mxCell id="K6NGUNYvaxgkHjzbPg3--288" value="Upkeep Step" style="rounded=0;whiteSpace=wrap;html=1;align=left;verticalAlign=top;spacingLeft=5;fillColor=#f5f5f5;fontColor=#333333;strokeColor=#666666;" parent="1" vertex="1">
          <mxGeometry x="120" y="910" width="590" height="740" as="geometry" />
        </mxCell>
        <mxCell id="K6NGUNYvaxgkHjzbPg3--152" value="Untap Step" style="rounded=0;whiteSpace=wrap;html=1;align=left;verticalAlign=top;spacingLeft=5;fillColor=#f5f5f5;fontColor=#333333;strokeColor=#666666;" parent="1" vertex="1">
          <mxGeometry x="120" y="100" width="590" height="800" as="geometry" />
        </mxCell>
        <mxCell id="K6NGUNYvaxgkHjzbPg3--6" value="" style="edgeStyle=orthogonalEdgeStyle;rounded=0;orthogonalLoop=1;jettySize=auto;html=1;" parent="1" source="K6NGUNYvaxgkHjzbPg3--1" target="K6NGUNYvaxgkHjzbPg3--5" edge="1">
          <mxGeometry relative="1" as="geometry" />
        </mxCell>
        <mxCell id="K6NGUNYvaxgkHjzbPg3--1" value="Start of Turn" style="rounded=1;whiteSpace=wrap;html=1;" parent="1" vertex="1">
          <mxGeometry x="366" y="30" width="96" height="30" as="geometry" />
        </mxCell>
        <mxCell id="K6NGUNYvaxgkHjzbPg3--150" style="edgeStyle=orthogonalEdgeStyle;rounded=0;orthogonalLoop=1;jettySize=auto;html=1;" parent="1" source="K6NGUNYvaxgkHjzbPg3--5" target="K6NGUNYvaxgkHjzbPg3--8" edge="1">
          <mxGeometry relative="1" as="geometry" />
        </mxCell>
        <mxCell id="K6NGUNYvaxgkHjzbPg3--5" value="Permanents controlled by the Active Player untap" style="rounded=1;whiteSpace=wrap;html=1;" parent="1" vertex="1">
          <mxGeometry x="263.75" y="120" width="300" height="30" as="geometry" />
        </mxCell>
        <mxCell id="K6NGUNYvaxgkHjzbPg3--139" style="edgeStyle=orthogonalEdgeStyle;rounded=0;orthogonalLoop=1;jettySize=auto;html=1;" parent="1" source="K6NGUNYvaxgkHjzbPg3--8" target="K6NGUNYvaxgkHjzbPg3--78" edge="1">
          <mxGeometry relative="1" as="geometry" />
        </mxCell>
        <mxCell id="K6NGUNYvaxgkHjzbPg3--196" style="edgeStyle=orthogonalEdgeStyle;rounded=0;orthogonalLoop=1;jettySize=auto;html=1;" parent="1" source="K6NGUNYvaxgkHjzbPg3--8" target="K6NGUNYvaxgkHjzbPg3--62" edge="1">
          <mxGeometry relative="1" as="geometry">
            <Array as="points">
              <mxPoint x="680" y="195" />
              <mxPoint x="680" y="840" />
              <mxPoint x="413" y="840" />
            </Array>
          </mxGeometry>
        </mxCell>
        <mxCell id="K6NGUNYvaxgkHjzbPg3--8" value="Is the stack empty?" style="shape=hexagon;perimeter=hexagonPerimeter2;whiteSpace=wrap;html=1;fixedSize=1;size=10;" parent="1" vertex="1">
          <mxGeometry x="333.75" y="180" width="160" height="30" as="geometry" />
        </mxCell>
        <mxCell id="K6NGUNYvaxgkHjzbPg3--147" value="NO" style="text;html=1;strokeColor=none;fillColor=none;align=center;verticalAlign=middle;whiteSpace=wrap;rounded=0;" parent="1" vertex="1">
          <mxGeometry x="414" y="215" width="30" height="20" as="geometry" />
        </mxCell>
        <mxCell id="K6NGUNYvaxgkHjzbPg3--198" value="YES" style="text;html=1;strokeColor=none;fillColor=none;align=center;verticalAlign=middle;whiteSpace=wrap;rounded=0;" parent="1" vertex="1">
          <mxGeometry x="515" y="175" width="30" height="20" as="geometry" />
        </mxCell>
        <mxCell id="K6NGUNYvaxgkHjzbPg3--13" value="Is the Stack empty?" style="shape=hexagon;perimeter=hexagonPerimeter2;whiteSpace=wrap;html=1;fixedSize=1;size=10;" parent="1" vertex="1">
          <mxGeometry x="334" y="730" width="160" height="30" as="geometry" />
        </mxCell>
        <mxCell id="K6NGUNYvaxgkHjzbPg3--15" value="Resolve top object on the Stack" style="rounded=1;whiteSpace=wrap;html=1;" parent="1" vertex="1">
          <mxGeometry x="313" y="790" width="202" height="30" as="geometry" />
        </mxCell>
        <mxCell id="K6NGUNYvaxgkHjzbPg3--135" style="edgeStyle=orthogonalEdgeStyle;rounded=0;orthogonalLoop=1;jettySize=auto;html=1;" parent="1" source="K6NGUNYvaxgkHjzbPg3--13" target="K6NGUNYvaxgkHjzbPg3--15" edge="1">
          <mxGeometry relative="1" as="geometry" />
        </mxCell>
        <mxCell id="K6NGUNYvaxgkHjzbPg3--333" style="edgeStyle=orthogonalEdgeStyle;rounded=0;orthogonalLoop=1;jettySize=auto;html=1;" parent="1" source="K6NGUNYvaxgkHjzbPg3--62" edge="1">
          <mxGeometry relative="1" as="geometry">
            <mxPoint x="413.70000000000005" y="930" as="targetPoint" />
          </mxGeometry>
        </mxCell>
        <mxCell id="K6NGUNYvaxgkHjzbPg3--62" value="Mana Pools empty" style="rounded=1;whiteSpace=wrap;html=1;" parent="1" vertex="1">
          <mxGeometry x="350.5" y="860" width="125" height="30" as="geometry" />
        </mxCell>
        <mxCell id="K6NGUNYvaxgkHjzbPg3--137" style="edgeStyle=orthogonalEdgeStyle;rounded=0;orthogonalLoop=1;jettySize=auto;html=1;" parent="1" source="K6NGUNYvaxgkHjzbPg3--13" target="K6NGUNYvaxgkHjzbPg3--62" edge="1">
          <mxGeometry relative="1" as="geometry">
            <Array as="points">
              <mxPoint x="279" y="745" />
              <mxPoint x="279" y="840" />
              <mxPoint x="414" y="840" />
            </Array>
          </mxGeometry>
        </mxCell>
        <mxCell id="K6NGUNYvaxgkHjzbPg3--78" value="Active Player gets Priority" style="rounded=1;whiteSpace=wrap;html=1;" parent="1" vertex="1">
          <mxGeometry x="329" y="260" width="170" height="30" as="geometry" />
        </mxCell>
        <mxCell id="K6NGUNYvaxgkHjzbPg3--134" style="edgeStyle=orthogonalEdgeStyle;rounded=0;orthogonalLoop=1;jettySize=auto;html=1;" parent="1" source="K6NGUNYvaxgkHjzbPg3--15" target="K6NGUNYvaxgkHjzbPg3--78" edge="1">
          <mxGeometry relative="1" as="geometry">
            <Array as="points">
              <mxPoint x="659" y="805" />
              <mxPoint x="659" y="240" />
              <mxPoint x="414" y="240" />
            </Array>
          </mxGeometry>
        </mxCell>
        <mxCell id="K6NGUNYvaxgkHjzbPg3--83" value="&lt;div&gt;The player holding priority may:&lt;/div&gt;" style="rounded=1;whiteSpace=wrap;html=1;" parent="1" vertex="1">
          <mxGeometry x="314" y="390" width="200" height="30" as="geometry" />
        </mxCell>
        <mxCell id="K6NGUNYvaxgkHjzbPg3--106" style="edgeStyle=orthogonalEdgeStyle;rounded=0;orthogonalLoop=1;jettySize=auto;html=1;entryX=0.5;entryY=0;entryDx=0;entryDy=0;" parent="1" source="K6NGUNYvaxgkHjzbPg3--78" target="K6NGUNYvaxgkHjzbPg3--286" edge="1">
          <mxGeometry relative="1" as="geometry" />
        </mxCell>
        <mxCell id="K6NGUNYvaxgkHjzbPg3--99" style="edgeStyle=orthogonalEdgeStyle;rounded=0;orthogonalLoop=1;jettySize=auto;html=1;" parent="1" source="K6NGUNYvaxgkHjzbPg3--83" target="K6NGUNYvaxgkHjzbPg3--84" edge="1">
          <mxGeometry relative="1" as="geometry">
            <Array as="points">
              <mxPoint x="414" y="440" />
              <mxPoint x="238" y="440" />
            </Array>
          </mxGeometry>
        </mxCell>
        <mxCell id="K6NGUNYvaxgkHjzbPg3--102" style="edgeStyle=orthogonalEdgeStyle;rounded=0;orthogonalLoop=1;jettySize=auto;html=1;" parent="1" source="K6NGUNYvaxgkHjzbPg3--83" target="K6NGUNYvaxgkHjzbPg3--85" edge="1">
          <mxGeometry relative="1" as="geometry">
            <Array as="points">
              <mxPoint x="414" y="440" />
              <mxPoint x="421" y="440" />
            </Array>
          </mxGeometry>
        </mxCell>
        <mxCell id="K6NGUNYvaxgkHjzbPg3--103" style="edgeStyle=orthogonalEdgeStyle;rounded=0;orthogonalLoop=1;jettySize=auto;html=1;" parent="1" source="K6NGUNYvaxgkHjzbPg3--83" target="K6NGUNYvaxgkHjzbPg3--86" edge="1">
          <mxGeometry relative="1" as="geometry">
            <Array as="points">
              <mxPoint x="414" y="440" />
              <mxPoint x="510" y="440" />
            </Array>
          </mxGeometry>
        </mxCell>
        <mxCell id="K6NGUNYvaxgkHjzbPg3--104" style="edgeStyle=orthogonalEdgeStyle;rounded=0;orthogonalLoop=1;jettySize=auto;html=1;entryX=0.5;entryY=0;entryDx=0;entryDy=0;" parent="1" source="K6NGUNYvaxgkHjzbPg3--84" target="K6NGUNYvaxgkHjzbPg3--286" edge="1">
          <mxGeometry relative="1" as="geometry">
            <Array as="points">
              <mxPoint x="238" y="540" />
              <mxPoint x="189" y="540" />
              <mxPoint x="189" y="310" />
              <mxPoint x="414" y="310" />
            </Array>
          </mxGeometry>
        </mxCell>
        <mxCell id="K6NGUNYvaxgkHjzbPg3--105" style="edgeStyle=orthogonalEdgeStyle;rounded=0;orthogonalLoop=1;jettySize=auto;html=1;entryX=0.5;entryY=0;entryDx=0;entryDy=0;" parent="1" source="K6NGUNYvaxgkHjzbPg3--98" target="K6NGUNYvaxgkHjzbPg3--286" edge="1">
          <mxGeometry relative="1" as="geometry">
            <Array as="points">
              <mxPoint x="324" y="540" />
              <mxPoint x="189" y="540" />
              <mxPoint x="189" y="310" />
              <mxPoint x="414" y="310" />
            </Array>
          </mxGeometry>
        </mxCell>
        <mxCell id="K6NGUNYvaxgkHjzbPg3--100" style="edgeStyle=orthogonalEdgeStyle;rounded=0;orthogonalLoop=1;jettySize=auto;html=1;entryX=0.5;entryY=0;entryDx=0;entryDy=0;" parent="1" source="K6NGUNYvaxgkHjzbPg3--83" target="K6NGUNYvaxgkHjzbPg3--90" edge="1">
          <mxGeometry relative="1" as="geometry">
            <Array as="points">
              <mxPoint x="414" y="440" />
              <mxPoint x="588" y="440" />
            </Array>
          </mxGeometry>
        </mxCell>
        <mxCell id="K6NGUNYvaxgkHjzbPg3--107" style="edgeStyle=orthogonalEdgeStyle;rounded=0;orthogonalLoop=1;jettySize=auto;html=1;" parent="1" source="K6NGUNYvaxgkHjzbPg3--85" target="K6NGUNYvaxgkHjzbPg3--78" edge="1">
          <mxGeometry relative="1" as="geometry">
            <Array as="points">
              <mxPoint x="421" y="560" />
              <mxPoint x="169" y="560" />
              <mxPoint x="169" y="240" />
              <mxPoint x="414" y="240" />
            </Array>
          </mxGeometry>
        </mxCell>
        <mxCell id="K6NGUNYvaxgkHjzbPg3--101" style="edgeStyle=orthogonalEdgeStyle;rounded=0;orthogonalLoop=1;jettySize=auto;html=1;entryX=0.5;entryY=0;entryDx=0;entryDy=0;" parent="1" source="K6NGUNYvaxgkHjzbPg3--83" target="K6NGUNYvaxgkHjzbPg3--98" edge="1">
          <mxGeometry relative="1" as="geometry">
            <Array as="points">
              <mxPoint x="414" y="440" />
              <mxPoint x="324" y="440" />
            </Array>
          </mxGeometry>
        </mxCell>
        <mxCell id="K6NGUNYvaxgkHjzbPg3--108" style="edgeStyle=orthogonalEdgeStyle;rounded=0;orthogonalLoop=1;jettySize=auto;html=1;" parent="1" source="K6NGUNYvaxgkHjzbPg3--86" target="K6NGUNYvaxgkHjzbPg3--78" edge="1">
          <mxGeometry relative="1" as="geometry">
            <Array as="points">
              <mxPoint x="510" y="560" />
              <mxPoint x="169" y="560" />
              <mxPoint x="169" y="240" />
              <mxPoint x="414" y="240" />
            </Array>
          </mxGeometry>
        </mxCell>
        <mxCell id="K6NGUNYvaxgkHjzbPg3--130" style="edgeStyle=orthogonalEdgeStyle;rounded=0;orthogonalLoop=1;jettySize=auto;html=1;" parent="1" source="K6NGUNYvaxgkHjzbPg3--110" target="K6NGUNYvaxgkHjzbPg3--13" edge="1">
          <mxGeometry relative="1" as="geometry">
            <Array as="points">
              <mxPoint x="279" y="615" />
              <mxPoint x="279" y="710" />
              <mxPoint x="414" y="710" />
            </Array>
          </mxGeometry>
        </mxCell>
        <mxCell id="K6NGUNYvaxgkHjzbPg3--110" value="Did all players Pass Priority?" style="shape=hexagon;perimeter=hexagonPerimeter2;whiteSpace=wrap;html=1;fixedSize=1;size=10;" parent="1" vertex="1">
          <mxGeometry x="316.5" y="600" width="195" height="30" as="geometry" />
        </mxCell>
        <mxCell id="K6NGUNYvaxgkHjzbPg3--117" style="edgeStyle=orthogonalEdgeStyle;rounded=0;orthogonalLoop=1;jettySize=auto;html=1;" parent="1" source="K6NGUNYvaxgkHjzbPg3--90" target="K6NGUNYvaxgkHjzbPg3--110" edge="1">
          <mxGeometry relative="1" as="geometry">
            <Array as="points">
              <mxPoint x="588" y="580" />
              <mxPoint x="414" y="580" />
            </Array>
          </mxGeometry>
        </mxCell>
        <mxCell id="K6NGUNYvaxgkHjzbPg3--127" style="edgeStyle=orthogonalEdgeStyle;rounded=0;orthogonalLoop=1;jettySize=auto;html=1;" parent="1" source="K6NGUNYvaxgkHjzbPg3--121" edge="1">
          <mxGeometry relative="1" as="geometry">
            <mxPoint x="414" y="330" as="targetPoint" />
            <Array as="points">
              <mxPoint x="639" y="675" />
              <mxPoint x="639" y="310" />
              <mxPoint x="414" y="310" />
            </Array>
          </mxGeometry>
        </mxCell>
        <mxCell id="K6NGUNYvaxgkHjzbPg3--121" value="&lt;div&gt;Next player in turn order gets priority&lt;/div&gt;" style="rounded=1;whiteSpace=wrap;html=1;" parent="1" vertex="1">
          <mxGeometry x="299" y="660" width="230" height="30" as="geometry" />
        </mxCell>
        <mxCell id="K6NGUNYvaxgkHjzbPg3--132" value="" style="edgeStyle=orthogonalEdgeStyle;rounded=0;orthogonalLoop=1;jettySize=auto;html=1;" parent="1" source="K6NGUNYvaxgkHjzbPg3--110" target="K6NGUNYvaxgkHjzbPg3--121" edge="1">
          <mxGeometry relative="1" as="geometry" />
        </mxCell>
        <mxCell id="K6NGUNYvaxgkHjzbPg3--144" value="&lt;div&gt;YES&lt;/div&gt;" style="text;html=1;strokeColor=none;fillColor=none;align=center;verticalAlign=middle;whiteSpace=wrap;rounded=0;" parent="1" vertex="1">
          <mxGeometry x="284.5" y="595" width="30" height="20" as="geometry" />
        </mxCell>
        <mxCell id="K6NGUNYvaxgkHjzbPg3--145" value="&lt;div&gt;YES&lt;/div&gt;" style="text;html=1;strokeColor=none;fillColor=none;align=center;verticalAlign=middle;whiteSpace=wrap;rounded=0;" parent="1" vertex="1">
          <mxGeometry x="284.5" y="725" width="30" height="20" as="geometry" />
        </mxCell>
        <mxCell id="K6NGUNYvaxgkHjzbPg3--148" value="NO" style="text;html=1;strokeColor=none;fillColor=none;align=center;verticalAlign=middle;whiteSpace=wrap;rounded=0;" parent="1" vertex="1">
          <mxGeometry x="414" y="635" width="30" height="20" as="geometry" />
        </mxCell>
        <mxCell id="K6NGUNYvaxgkHjzbPg3--149" value="NO" style="text;html=1;strokeColor=none;fillColor=none;align=center;verticalAlign=middle;whiteSpace=wrap;rounded=0;" parent="1" vertex="1">
          <mxGeometry x="414" y="765" width="30" height="20" as="geometry" />
        </mxCell>
        <mxCell id="K6NGUNYvaxgkHjzbPg3--287" style="edgeStyle=orthogonalEdgeStyle;rounded=0;orthogonalLoop=1;jettySize=auto;html=1;" parent="1" source="K6NGUNYvaxgkHjzbPg3--286" target="K6NGUNYvaxgkHjzbPg3--83" edge="1">
          <mxGeometry relative="1" as="geometry" />
        </mxCell>
        <mxCell id="K6NGUNYvaxgkHjzbPg3--286" value="State-based actions are checked" style="rounded=1;whiteSpace=wrap;html=1;" parent="1" vertex="1">
          <mxGeometry x="314" y="330" width="200" height="30" as="geometry" />
        </mxCell>
        <mxCell id="K6NGUNYvaxgkHjzbPg3--291" style="edgeStyle=orthogonalEdgeStyle;rounded=0;orthogonalLoop=1;jettySize=auto;html=1;" parent="1" target="K6NGUNYvaxgkHjzbPg3--302" edge="1">
          <mxGeometry relative="1" as="geometry">
            <mxPoint x="412.79999999999995" y="960" as="sourcePoint" />
          </mxGeometry>
        </mxCell>
        <mxCell id="K6NGUNYvaxgkHjzbPg3--297" value="Is the Stack empty?" style="shape=hexagon;perimeter=hexagonPerimeter2;whiteSpace=wrap;html=1;fixedSize=1;size=10;" parent="1" vertex="1">
          <mxGeometry x="333" y="1480" width="160" height="30" as="geometry" />
        </mxCell>
        <mxCell id="K6NGUNYvaxgkHjzbPg3--298" value="Resolve top object on the Stack" style="rounded=1;whiteSpace=wrap;html=1;" parent="1" vertex="1">
          <mxGeometry x="312" y="1540" width="202" height="30" as="geometry" />
        </mxCell>
        <mxCell id="K6NGUNYvaxgkHjzbPg3--299" style="edgeStyle=orthogonalEdgeStyle;rounded=0;orthogonalLoop=1;jettySize=auto;html=1;" parent="1" source="K6NGUNYvaxgkHjzbPg3--297" target="K6NGUNYvaxgkHjzbPg3--298" edge="1">
          <mxGeometry relative="1" as="geometry" />
        </mxCell>
        <mxCell id="K6NGUNYvaxgkHjzbPg3--300" value="Mana Pools empty" style="rounded=1;whiteSpace=wrap;html=1;" parent="1" vertex="1">
          <mxGeometry x="349.5" y="1610" width="125" height="30" as="geometry" />
        </mxCell>
        <mxCell id="K6NGUNYvaxgkHjzbPg3--301" style="edgeStyle=orthogonalEdgeStyle;rounded=0;orthogonalLoop=1;jettySize=auto;html=1;" parent="1" source="K6NGUNYvaxgkHjzbPg3--297" target="K6NGUNYvaxgkHjzbPg3--300" edge="1">
          <mxGeometry relative="1" as="geometry">
            <Array as="points">
              <mxPoint x="278" y="1495" />
              <mxPoint x="278" y="1590" />
              <mxPoint x="413" y="1590" />
            </Array>
          </mxGeometry>
        </mxCell>
        <mxCell id="K6NGUNYvaxgkHjzbPg3--302" value="Active Player gets Priority" style="rounded=1;whiteSpace=wrap;html=1;" parent="1" vertex="1">
          <mxGeometry x="328" y="1010" width="170" height="30" as="geometry" />
        </mxCell>
        <mxCell id="K6NGUNYvaxgkHjzbPg3--303" style="edgeStyle=orthogonalEdgeStyle;rounded=0;orthogonalLoop=1;jettySize=auto;html=1;" parent="1" source="K6NGUNYvaxgkHjzbPg3--298" target="K6NGUNYvaxgkHjzbPg3--302" edge="1">
          <mxGeometry relative="1" as="geometry">
            <Array as="points">
              <mxPoint x="658" y="1555" />
              <mxPoint x="658" y="990" />
              <mxPoint x="413" y="990" />
            </Array>
          </mxGeometry>
        </mxCell>
        <mxCell id="K6NGUNYvaxgkHjzbPg3--304" value="&lt;div&gt;The player holding priority may:&lt;/div&gt;" style="rounded=1;whiteSpace=wrap;html=1;" parent="1" vertex="1">
          <mxGeometry x="313" y="1140" width="200" height="30" as="geometry" />
        </mxCell>
        <mxCell id="K6NGUNYvaxgkHjzbPg3--305" style="edgeStyle=orthogonalEdgeStyle;rounded=0;orthogonalLoop=1;jettySize=auto;html=1;entryX=0.5;entryY=0;entryDx=0;entryDy=0;" parent="1" source="K6NGUNYvaxgkHjzbPg3--302" target="K6NGUNYvaxgkHjzbPg3--332" edge="1">
          <mxGeometry relative="1" as="geometry" />
        </mxCell>
        <mxCell id="K6NGUNYvaxgkHjzbPg3--312" style="edgeStyle=orthogonalEdgeStyle;rounded=0;orthogonalLoop=1;jettySize=auto;html=1;" parent="1" source="K6NGUNYvaxgkHjzbPg3--304" target="K6NGUNYvaxgkHjzbPg3--307" edge="1">
          <mxGeometry relative="1" as="geometry">
            <Array as="points">
              <mxPoint x="413" y="1190" />
              <mxPoint x="237" y="1190" />
            </Array>
          </mxGeometry>
        </mxCell>
        <mxCell id="K6NGUNYvaxgkHjzbPg3--313" style="edgeStyle=orthogonalEdgeStyle;rounded=0;orthogonalLoop=1;jettySize=auto;html=1;" parent="1" source="K6NGUNYvaxgkHjzbPg3--304" target="K6NGUNYvaxgkHjzbPg3--308" edge="1">
          <mxGeometry relative="1" as="geometry">
            <Array as="points">
              <mxPoint x="413" y="1190" />
              <mxPoint x="420" y="1190" />
            </Array>
          </mxGeometry>
        </mxCell>
        <mxCell id="K6NGUNYvaxgkHjzbPg3--314" style="edgeStyle=orthogonalEdgeStyle;rounded=0;orthogonalLoop=1;jettySize=auto;html=1;" parent="1" source="K6NGUNYvaxgkHjzbPg3--304" target="K6NGUNYvaxgkHjzbPg3--309" edge="1">
          <mxGeometry relative="1" as="geometry">
            <Array as="points">
              <mxPoint x="413" y="1190" />
              <mxPoint x="509" y="1190" />
            </Array>
          </mxGeometry>
        </mxCell>
        <mxCell id="K6NGUNYvaxgkHjzbPg3--315" style="edgeStyle=orthogonalEdgeStyle;rounded=0;orthogonalLoop=1;jettySize=auto;html=1;entryX=0.5;entryY=0;entryDx=0;entryDy=0;" parent="1" source="K6NGUNYvaxgkHjzbPg3--307" target="K6NGUNYvaxgkHjzbPg3--332" edge="1">
          <mxGeometry relative="1" as="geometry">
            <Array as="points">
              <mxPoint x="237" y="1290" />
              <mxPoint x="188" y="1290" />
              <mxPoint x="188" y="1060" />
              <mxPoint x="413" y="1060" />
            </Array>
          </mxGeometry>
        </mxCell>
        <mxCell id="K6NGUNYvaxgkHjzbPg3--316" style="edgeStyle=orthogonalEdgeStyle;rounded=0;orthogonalLoop=1;jettySize=auto;html=1;entryX=0.5;entryY=0;entryDx=0;entryDy=0;" parent="1" source="K6NGUNYvaxgkHjzbPg3--311" target="K6NGUNYvaxgkHjzbPg3--332" edge="1">
          <mxGeometry relative="1" as="geometry">
            <Array as="points">
              <mxPoint x="323" y="1290" />
              <mxPoint x="188" y="1290" />
              <mxPoint x="188" y="1060" />
              <mxPoint x="413" y="1060" />
            </Array>
          </mxGeometry>
        </mxCell>
        <mxCell id="K6NGUNYvaxgkHjzbPg3--317" style="edgeStyle=orthogonalEdgeStyle;rounded=0;orthogonalLoop=1;jettySize=auto;html=1;entryX=0.5;entryY=0;entryDx=0;entryDy=0;" parent="1" source="K6NGUNYvaxgkHjzbPg3--304" target="K6NGUNYvaxgkHjzbPg3--310" edge="1">
          <mxGeometry relative="1" as="geometry">
            <Array as="points">
              <mxPoint x="413" y="1190" />
              <mxPoint x="587" y="1190" />
            </Array>
          </mxGeometry>
        </mxCell>
        <mxCell id="K6NGUNYvaxgkHjzbPg3--318" style="edgeStyle=orthogonalEdgeStyle;rounded=0;orthogonalLoop=1;jettySize=auto;html=1;" parent="1" source="K6NGUNYvaxgkHjzbPg3--308" target="K6NGUNYvaxgkHjzbPg3--302" edge="1">
          <mxGeometry relative="1" as="geometry">
            <Array as="points">
              <mxPoint x="420" y="1310" />
              <mxPoint x="168" y="1310" />
              <mxPoint x="168" y="990" />
              <mxPoint x="413" y="990" />
            </Array>
          </mxGeometry>
        </mxCell>
        <mxCell id="K6NGUNYvaxgkHjzbPg3--319" style="edgeStyle=orthogonalEdgeStyle;rounded=0;orthogonalLoop=1;jettySize=auto;html=1;entryX=0.5;entryY=0;entryDx=0;entryDy=0;" parent="1" source="K6NGUNYvaxgkHjzbPg3--304" target="K6NGUNYvaxgkHjzbPg3--311" edge="1">
          <mxGeometry relative="1" as="geometry">
            <Array as="points">
              <mxPoint x="413" y="1190" />
              <mxPoint x="323" y="1190" />
            </Array>
          </mxGeometry>
        </mxCell>
        <mxCell id="K6NGUNYvaxgkHjzbPg3--320" style="edgeStyle=orthogonalEdgeStyle;rounded=0;orthogonalLoop=1;jettySize=auto;html=1;" parent="1" source="K6NGUNYvaxgkHjzbPg3--309" target="K6NGUNYvaxgkHjzbPg3--302" edge="1">
          <mxGeometry relative="1" as="geometry">
            <Array as="points">
              <mxPoint x="509" y="1310" />
              <mxPoint x="168" y="1310" />
              <mxPoint x="168" y="990" />
              <mxPoint x="413" y="990" />
            </Array>
          </mxGeometry>
        </mxCell>
        <mxCell id="K6NGUNYvaxgkHjzbPg3--321" style="edgeStyle=orthogonalEdgeStyle;rounded=0;orthogonalLoop=1;jettySize=auto;html=1;" parent="1" source="K6NGUNYvaxgkHjzbPg3--322" target="K6NGUNYvaxgkHjzbPg3--297" edge="1">
          <mxGeometry relative="1" as="geometry">
            <Array as="points">
              <mxPoint x="278" y="1365" />
              <mxPoint x="278" y="1460" />
              <mxPoint x="413" y="1460" />
            </Array>
          </mxGeometry>
        </mxCell>
        <mxCell id="K6NGUNYvaxgkHjzbPg3--322" value="Did all players Pass Priority?" style="shape=hexagon;perimeter=hexagonPerimeter2;whiteSpace=wrap;html=1;fixedSize=1;size=10;" parent="1" vertex="1">
          <mxGeometry x="315.5" y="1350" width="195" height="30" as="geometry" />
        </mxCell>
        <mxCell id="K6NGUNYvaxgkHjzbPg3--323" style="edgeStyle=orthogonalEdgeStyle;rounded=0;orthogonalLoop=1;jettySize=auto;html=1;" parent="1" source="K6NGUNYvaxgkHjzbPg3--310" target="K6NGUNYvaxgkHjzbPg3--322" edge="1">
          <mxGeometry relative="1" as="geometry">
            <Array as="points">
              <mxPoint x="587" y="1330" />
              <mxPoint x="413" y="1330" />
            </Array>
          </mxGeometry>
        </mxCell>
        <mxCell id="K6NGUNYvaxgkHjzbPg3--324" style="edgeStyle=orthogonalEdgeStyle;rounded=0;orthogonalLoop=1;jettySize=auto;html=1;" parent="1" source="K6NGUNYvaxgkHjzbPg3--325" edge="1">
          <mxGeometry relative="1" as="geometry">
            <mxPoint x="413" y="1080" as="targetPoint" />
            <Array as="points">
              <mxPoint x="638" y="1425" />
              <mxPoint x="638" y="1060" />
              <mxPoint x="413" y="1060" />
            </Array>
          </mxGeometry>
        </mxCell>
        <mxCell id="K6NGUNYvaxgkHjzbPg3--325" value="&lt;div&gt;Next player in turn order gets priority&lt;/div&gt;" style="rounded=1;whiteSpace=wrap;html=1;" parent="1" vertex="1">
          <mxGeometry x="298" y="1410" width="230" height="30" as="geometry" />
        </mxCell>
        <mxCell id="K6NGUNYvaxgkHjzbPg3--326" value="" style="edgeStyle=orthogonalEdgeStyle;rounded=0;orthogonalLoop=1;jettySize=auto;html=1;" parent="1" source="K6NGUNYvaxgkHjzbPg3--322" target="K6NGUNYvaxgkHjzbPg3--325" edge="1">
          <mxGeometry relative="1" as="geometry" />
        </mxCell>
        <mxCell id="K6NGUNYvaxgkHjzbPg3--327" value="&lt;div&gt;YES&lt;/div&gt;" style="text;html=1;strokeColor=none;fillColor=none;align=center;verticalAlign=middle;whiteSpace=wrap;rounded=0;" parent="1" vertex="1">
          <mxGeometry x="283.5" y="1345" width="30" height="20" as="geometry" />
        </mxCell>
        <mxCell id="K6NGUNYvaxgkHjzbPg3--328" value="&lt;div&gt;YES&lt;/div&gt;" style="text;html=1;strokeColor=none;fillColor=none;align=center;verticalAlign=middle;whiteSpace=wrap;rounded=0;" parent="1" vertex="1">
          <mxGeometry x="283.5" y="1475" width="30" height="20" as="geometry" />
        </mxCell>
        <mxCell id="K6NGUNYvaxgkHjzbPg3--329" value="NO" style="text;html=1;strokeColor=none;fillColor=none;align=center;verticalAlign=middle;whiteSpace=wrap;rounded=0;" parent="1" vertex="1">
          <mxGeometry x="413" y="1385" width="30" height="20" as="geometry" />
        </mxCell>
        <mxCell id="K6NGUNYvaxgkHjzbPg3--330" value="NO" style="text;html=1;strokeColor=none;fillColor=none;align=center;verticalAlign=middle;whiteSpace=wrap;rounded=0;" parent="1" vertex="1">
          <mxGeometry x="413" y="1515" width="30" height="20" as="geometry" />
        </mxCell>
        <mxCell id="K6NGUNYvaxgkHjzbPg3--331" style="edgeStyle=orthogonalEdgeStyle;rounded=0;orthogonalLoop=1;jettySize=auto;html=1;" parent="1" source="K6NGUNYvaxgkHjzbPg3--332" target="K6NGUNYvaxgkHjzbPg3--304" edge="1">
          <mxGeometry relative="1" as="geometry" />
        </mxCell>
        <mxCell id="K6NGUNYvaxgkHjzbPg3--332" value="State-based actions are checked" style="rounded=1;whiteSpace=wrap;html=1;" parent="1" vertex="1">
          <mxGeometry x="313" y="1080" width="200" height="30" as="geometry" />
        </mxCell>
        <mxCell id="K6NGUNYvaxgkHjzbPg3--334" value="&quot;At the beginning of the upkeep&quot; abilities trigger" style="rounded=1;whiteSpace=wrap;html=1;" parent="1" vertex="1">
          <mxGeometry x="262" y="930" width="300" height="30" as="geometry" />
        </mxCell>
        <mxCell id="K6NGUNYvaxgkHjzbPg3--335" value="Draw Step" style="rounded=0;whiteSpace=wrap;html=1;align=left;verticalAlign=top;spacingLeft=5;fillColor=#f5f5f5;fontColor=#333333;strokeColor=#666666;" parent="1" vertex="1">
          <mxGeometry x="120" y="1660" width="590" height="800" as="geometry" />
        </mxCell>
        <mxCell id="K6NGUNYvaxgkHjzbPg3--336" style="edgeStyle=orthogonalEdgeStyle;rounded=0;orthogonalLoop=1;jettySize=auto;html=1;" parent="1" source="K6NGUNYvaxgkHjzbPg3--337" edge="1">
          <mxGeometry relative="1" as="geometry">
            <mxPoint x="412.79999999999995" y="1740" as="targetPoint" />
          </mxGeometry>
        </mxCell>
        <mxCell id="K6NGUNYvaxgkHjzbPg3--337" value="The Active Player draws a card" style="rounded=1;whiteSpace=wrap;html=1;" parent="1" vertex="1">
          <mxGeometry x="315" y="1680" width="197.25" height="30" as="geometry" />
        </mxCell>
        <mxCell id="K6NGUNYvaxgkHjzbPg3--338" style="edgeStyle=orthogonalEdgeStyle;rounded=0;orthogonalLoop=1;jettySize=auto;html=1;" parent="1" target="K6NGUNYvaxgkHjzbPg3--345" edge="1">
          <mxGeometry relative="1" as="geometry">
            <mxPoint x="412.79999999999995" y="1770" as="sourcePoint" />
          </mxGeometry>
        </mxCell>
        <mxCell id="K6NGUNYvaxgkHjzbPg3--340" value="Is the Stack empty?" style="shape=hexagon;perimeter=hexagonPerimeter2;whiteSpace=wrap;html=1;fixedSize=1;size=10;" parent="1" vertex="1">
          <mxGeometry x="333" y="2290" width="160" height="30" as="geometry" />
        </mxCell>
        <mxCell id="K6NGUNYvaxgkHjzbPg3--341" value="Resolve top object on the Stack" style="rounded=1;whiteSpace=wrap;html=1;" parent="1" vertex="1">
          <mxGeometry x="312" y="2350" width="202" height="30" as="geometry" />
        </mxCell>
        <mxCell id="K6NGUNYvaxgkHjzbPg3--342" style="edgeStyle=orthogonalEdgeStyle;rounded=0;orthogonalLoop=1;jettySize=auto;html=1;" parent="1" source="K6NGUNYvaxgkHjzbPg3--340" target="K6NGUNYvaxgkHjzbPg3--341" edge="1">
          <mxGeometry relative="1" as="geometry" />
        </mxCell>
        <mxCell id="K6NGUNYvaxgkHjzbPg3--343" value="Mana Pools empty" style="rounded=1;whiteSpace=wrap;html=1;" parent="1" vertex="1">
          <mxGeometry x="349.5" y="2420" width="125" height="30" as="geometry" />
        </mxCell>
        <mxCell id="K6NGUNYvaxgkHjzbPg3--344" style="edgeStyle=orthogonalEdgeStyle;rounded=0;orthogonalLoop=1;jettySize=auto;html=1;" parent="1" source="K6NGUNYvaxgkHjzbPg3--340" target="K6NGUNYvaxgkHjzbPg3--343" edge="1">
          <mxGeometry relative="1" as="geometry">
            <Array as="points">
              <mxPoint x="278" y="2305" />
              <mxPoint x="278" y="2400" />
              <mxPoint x="413" y="2400" />
            </Array>
          </mxGeometry>
        </mxCell>
        <mxCell id="K6NGUNYvaxgkHjzbPg3--345" value="Active Player gets Priority" style="rounded=1;whiteSpace=wrap;html=1;" parent="1" vertex="1">
          <mxGeometry x="328" y="1820" width="170" height="30" as="geometry" />
        </mxCell>
        <mxCell id="K6NGUNYvaxgkHjzbPg3--346" style="edgeStyle=orthogonalEdgeStyle;rounded=0;orthogonalLoop=1;jettySize=auto;html=1;" parent="1" source="K6NGUNYvaxgkHjzbPg3--341" target="K6NGUNYvaxgkHjzbPg3--345" edge="1">
          <mxGeometry relative="1" as="geometry">
            <Array as="points">
              <mxPoint x="658" y="2365" />
              <mxPoint x="658" y="1800" />
              <mxPoint x="413" y="1800" />
            </Array>
          </mxGeometry>
        </mxCell>
        <mxCell id="K6NGUNYvaxgkHjzbPg3--347" value="&lt;div&gt;The player holding priority may:&lt;/div&gt;" style="rounded=1;whiteSpace=wrap;html=1;" parent="1" vertex="1">
          <mxGeometry x="313" y="1950" width="200" height="30" as="geometry" />
        </mxCell>
        <mxCell id="K6NGUNYvaxgkHjzbPg3--348" style="edgeStyle=orthogonalEdgeStyle;rounded=0;orthogonalLoop=1;jettySize=auto;html=1;entryX=0.5;entryY=0;entryDx=0;entryDy=0;" parent="1" source="K6NGUNYvaxgkHjzbPg3--345" target="K6NGUNYvaxgkHjzbPg3--375" edge="1">
          <mxGeometry relative="1" as="geometry" />
        </mxCell>
        <mxCell id="K6NGUNYvaxgkHjzbPg3--355" style="edgeStyle=orthogonalEdgeStyle;rounded=0;orthogonalLoop=1;jettySize=auto;html=1;" parent="1" source="K6NGUNYvaxgkHjzbPg3--347" target="K6NGUNYvaxgkHjzbPg3--350" edge="1">
          <mxGeometry relative="1" as="geometry">
            <Array as="points">
              <mxPoint x="413" y="2000" />
              <mxPoint x="237" y="2000" />
            </Array>
          </mxGeometry>
        </mxCell>
        <mxCell id="K6NGUNYvaxgkHjzbPg3--356" style="edgeStyle=orthogonalEdgeStyle;rounded=0;orthogonalLoop=1;jettySize=auto;html=1;" parent="1" source="K6NGUNYvaxgkHjzbPg3--347" target="K6NGUNYvaxgkHjzbPg3--351" edge="1">
          <mxGeometry relative="1" as="geometry">
            <Array as="points">
              <mxPoint x="413" y="2000" />
              <mxPoint x="420" y="2000" />
            </Array>
          </mxGeometry>
        </mxCell>
        <mxCell id="K6NGUNYvaxgkHjzbPg3--357" style="edgeStyle=orthogonalEdgeStyle;rounded=0;orthogonalLoop=1;jettySize=auto;html=1;" parent="1" source="K6NGUNYvaxgkHjzbPg3--347" target="K6NGUNYvaxgkHjzbPg3--352" edge="1">
          <mxGeometry relative="1" as="geometry">
            <Array as="points">
              <mxPoint x="413" y="2000" />
              <mxPoint x="509" y="2000" />
            </Array>
          </mxGeometry>
        </mxCell>
        <mxCell id="K6NGUNYvaxgkHjzbPg3--358" style="edgeStyle=orthogonalEdgeStyle;rounded=0;orthogonalLoop=1;jettySize=auto;html=1;entryX=0.5;entryY=0;entryDx=0;entryDy=0;" parent="1" source="K6NGUNYvaxgkHjzbPg3--350" target="K6NGUNYvaxgkHjzbPg3--375" edge="1">
          <mxGeometry relative="1" as="geometry">
            <Array as="points">
              <mxPoint x="237" y="2100" />
              <mxPoint x="188" y="2100" />
              <mxPoint x="188" y="1870" />
              <mxPoint x="413" y="1870" />
            </Array>
          </mxGeometry>
        </mxCell>
        <mxCell id="K6NGUNYvaxgkHjzbPg3--359" style="edgeStyle=orthogonalEdgeStyle;rounded=0;orthogonalLoop=1;jettySize=auto;html=1;entryX=0.5;entryY=0;entryDx=0;entryDy=0;" parent="1" source="K6NGUNYvaxgkHjzbPg3--354" target="K6NGUNYvaxgkHjzbPg3--375" edge="1">
          <mxGeometry relative="1" as="geometry">
            <Array as="points">
              <mxPoint x="323" y="2100" />
              <mxPoint x="188" y="2100" />
              <mxPoint x="188" y="1870" />
              <mxPoint x="413" y="1870" />
            </Array>
          </mxGeometry>
        </mxCell>
        <mxCell id="K6NGUNYvaxgkHjzbPg3--360" style="edgeStyle=orthogonalEdgeStyle;rounded=0;orthogonalLoop=1;jettySize=auto;html=1;entryX=0.5;entryY=0;entryDx=0;entryDy=0;" parent="1" source="K6NGUNYvaxgkHjzbPg3--347" target="K6NGUNYvaxgkHjzbPg3--353" edge="1">
          <mxGeometry relative="1" as="geometry">
            <Array as="points">
              <mxPoint x="413" y="2000" />
              <mxPoint x="587" y="2000" />
            </Array>
          </mxGeometry>
        </mxCell>
        <mxCell id="K6NGUNYvaxgkHjzbPg3--361" style="edgeStyle=orthogonalEdgeStyle;rounded=0;orthogonalLoop=1;jettySize=auto;html=1;" parent="1" source="K6NGUNYvaxgkHjzbPg3--351" target="K6NGUNYvaxgkHjzbPg3--345" edge="1">
          <mxGeometry relative="1" as="geometry">
            <Array as="points">
              <mxPoint x="420" y="2120" />
              <mxPoint x="168" y="2120" />
              <mxPoint x="168" y="1800" />
              <mxPoint x="413" y="1800" />
            </Array>
          </mxGeometry>
        </mxCell>
        <mxCell id="K6NGUNYvaxgkHjzbPg3--362" style="edgeStyle=orthogonalEdgeStyle;rounded=0;orthogonalLoop=1;jettySize=auto;html=1;entryX=0.5;entryY=0;entryDx=0;entryDy=0;" parent="1" source="K6NGUNYvaxgkHjzbPg3--347" target="K6NGUNYvaxgkHjzbPg3--354" edge="1">
          <mxGeometry relative="1" as="geometry">
            <Array as="points">
              <mxPoint x="413" y="2000" />
              <mxPoint x="323" y="2000" />
            </Array>
          </mxGeometry>
        </mxCell>
        <mxCell id="K6NGUNYvaxgkHjzbPg3--363" style="edgeStyle=orthogonalEdgeStyle;rounded=0;orthogonalLoop=1;jettySize=auto;html=1;" parent="1" source="K6NGUNYvaxgkHjzbPg3--352" target="K6NGUNYvaxgkHjzbPg3--345" edge="1">
          <mxGeometry relative="1" as="geometry">
            <Array as="points">
              <mxPoint x="509" y="2120" />
              <mxPoint x="168" y="2120" />
              <mxPoint x="168" y="1800" />
              <mxPoint x="413" y="1800" />
            </Array>
          </mxGeometry>
        </mxCell>
        <mxCell id="K6NGUNYvaxgkHjzbPg3--364" style="edgeStyle=orthogonalEdgeStyle;rounded=0;orthogonalLoop=1;jettySize=auto;html=1;" parent="1" source="K6NGUNYvaxgkHjzbPg3--365" target="K6NGUNYvaxgkHjzbPg3--340" edge="1">
          <mxGeometry relative="1" as="geometry">
            <Array as="points">
              <mxPoint x="278" y="2175" />
              <mxPoint x="278" y="2270" />
              <mxPoint x="413" y="2270" />
            </Array>
          </mxGeometry>
        </mxCell>
        <mxCell id="K6NGUNYvaxgkHjzbPg3--365" value="Did all players Pass Priority?" style="shape=hexagon;perimeter=hexagonPerimeter2;whiteSpace=wrap;html=1;fixedSize=1;size=10;" parent="1" vertex="1">
          <mxGeometry x="315.5" y="2160" width="195" height="30" as="geometry" />
        </mxCell>
        <mxCell id="K6NGUNYvaxgkHjzbPg3--366" style="edgeStyle=orthogonalEdgeStyle;rounded=0;orthogonalLoop=1;jettySize=auto;html=1;" parent="1" source="K6NGUNYvaxgkHjzbPg3--353" target="K6NGUNYvaxgkHjzbPg3--365" edge="1">
          <mxGeometry relative="1" as="geometry">
            <Array as="points">
              <mxPoint x="587" y="2140" />
              <mxPoint x="413" y="2140" />
            </Array>
          </mxGeometry>
        </mxCell>
        <mxCell id="K6NGUNYvaxgkHjzbPg3--367" style="edgeStyle=orthogonalEdgeStyle;rounded=0;orthogonalLoop=1;jettySize=auto;html=1;" parent="1" source="K6NGUNYvaxgkHjzbPg3--368" edge="1">
          <mxGeometry relative="1" as="geometry">
            <mxPoint x="413" y="1890" as="targetPoint" />
            <Array as="points">
              <mxPoint x="638" y="2235" />
              <mxPoint x="638" y="1870" />
              <mxPoint x="413" y="1870" />
            </Array>
          </mxGeometry>
        </mxCell>
        <mxCell id="K6NGUNYvaxgkHjzbPg3--368" value="&lt;div&gt;Next player in turn order gets priority&lt;/div&gt;" style="rounded=1;whiteSpace=wrap;html=1;" parent="1" vertex="1">
          <mxGeometry x="298" y="2220" width="230" height="30" as="geometry" />
        </mxCell>
        <mxCell id="K6NGUNYvaxgkHjzbPg3--369" value="" style="edgeStyle=orthogonalEdgeStyle;rounded=0;orthogonalLoop=1;jettySize=auto;html=1;" parent="1" source="K6NGUNYvaxgkHjzbPg3--365" target="K6NGUNYvaxgkHjzbPg3--368" edge="1">
          <mxGeometry relative="1" as="geometry" />
        </mxCell>
        <mxCell id="K6NGUNYvaxgkHjzbPg3--370" value="&lt;div&gt;YES&lt;/div&gt;" style="text;html=1;strokeColor=none;fillColor=none;align=center;verticalAlign=middle;whiteSpace=wrap;rounded=0;" parent="1" vertex="1">
          <mxGeometry x="283.5" y="2155" width="30" height="20" as="geometry" />
        </mxCell>
        <mxCell id="K6NGUNYvaxgkHjzbPg3--371" value="&lt;div&gt;YES&lt;/div&gt;" style="text;html=1;strokeColor=none;fillColor=none;align=center;verticalAlign=middle;whiteSpace=wrap;rounded=0;" parent="1" vertex="1">
          <mxGeometry x="283.5" y="2285" width="30" height="20" as="geometry" />
        </mxCell>
        <mxCell id="K6NGUNYvaxgkHjzbPg3--372" value="NO" style="text;html=1;strokeColor=none;fillColor=none;align=center;verticalAlign=middle;whiteSpace=wrap;rounded=0;" parent="1" vertex="1">
          <mxGeometry x="413" y="2195" width="30" height="20" as="geometry" />
        </mxCell>
        <mxCell id="K6NGUNYvaxgkHjzbPg3--373" value="NO" style="text;html=1;strokeColor=none;fillColor=none;align=center;verticalAlign=middle;whiteSpace=wrap;rounded=0;" parent="1" vertex="1">
          <mxGeometry x="413" y="2325" width="30" height="20" as="geometry" />
        </mxCell>
        <mxCell id="K6NGUNYvaxgkHjzbPg3--374" style="edgeStyle=orthogonalEdgeStyle;rounded=0;orthogonalLoop=1;jettySize=auto;html=1;" parent="1" source="K6NGUNYvaxgkHjzbPg3--375" target="K6NGUNYvaxgkHjzbPg3--347" edge="1">
          <mxGeometry relative="1" as="geometry" />
        </mxCell>
        <mxCell id="K6NGUNYvaxgkHjzbPg3--375" value="State-based actions are checked" style="rounded=1;whiteSpace=wrap;html=1;" parent="1" vertex="1">
          <mxGeometry x="313" y="1890" width="200" height="30" as="geometry" />
        </mxCell>
        <mxCell id="K6NGUNYvaxgkHjzbPg3--376" value="&quot;At the beginning of the draw step&quot; abilities trigger" style="rounded=1;whiteSpace=wrap;html=1;" parent="1" vertex="1">
          <mxGeometry x="262" y="1740" width="300" height="30" as="geometry" />
        </mxCell>
        <mxCell id="K6NGUNYvaxgkHjzbPg3--296" style="edgeStyle=orthogonalEdgeStyle;rounded=0;orthogonalLoop=1;jettySize=auto;html=1;" parent="1" source="K6NGUNYvaxgkHjzbPg3--300" edge="1">
          <mxGeometry relative="1" as="geometry">
            <mxPoint x="412.79999999999995" y="1680" as="targetPoint" />
          </mxGeometry>
        </mxCell>
        <mxCell id="K6NGUNYvaxgkHjzbPg3--350" value="&lt;div&gt;Activate&lt;/div&gt;&lt;div&gt;a mana ability&lt;/div&gt;" style="rounded=1;whiteSpace=wrap;html=1;" parent="1" vertex="1">
          <mxGeometry x="207" y="2020" width="60" height="60" as="geometry" />
        </mxCell>
        <mxCell id="K6NGUNYvaxgkHjzbPg3--351" value="&lt;div&gt;Activate&lt;/div&gt;&lt;div&gt;a non-mana ability&lt;/div&gt;" style="rounded=1;whiteSpace=wrap;html=1;" parent="1" vertex="1">
          <mxGeometry x="378" y="2020" width="84" height="60" as="geometry" />
        </mxCell>
        <mxCell id="K6NGUNYvaxgkHjzbPg3--352" value="&lt;div&gt;Cast&lt;/div&gt;&lt;div&gt;a spell&lt;/div&gt;" style="rounded=1;whiteSpace=wrap;html=1;" parent="1" vertex="1">
          <mxGeometry x="480" y="2020" width="58" height="60" as="geometry" />
        </mxCell>
        <mxCell id="K6NGUNYvaxgkHjzbPg3--353" value="&lt;div&gt;Pass&lt;/div&gt;&lt;div&gt;Priority&lt;br&gt;&lt;/div&gt;" style="rounded=1;whiteSpace=wrap;html=1;" parent="1" vertex="1">
          <mxGeometry x="557" y="2020" width="60" height="60" as="geometry" />
        </mxCell>
        <mxCell id="K6NGUNYvaxgkHjzbPg3--354" value="&lt;div&gt;Perform&lt;/div&gt;&lt;div&gt;a Special&lt;/div&gt;&lt;div&gt;Action&lt;br&gt;&lt;/div&gt;" style="rounded=1;whiteSpace=wrap;html=1;" parent="1" vertex="1">
          <mxGeometry x="288" y="2020" width="70" height="60" as="geometry" />
        </mxCell>
        <mxCell id="K6NGUNYvaxgkHjzbPg3--307" value="&lt;div&gt;Activate&lt;/div&gt;&lt;div&gt;a mana ability&lt;/div&gt;" style="rounded=1;whiteSpace=wrap;html=1;" parent="1" vertex="1">
          <mxGeometry x="207" y="1210" width="60" height="60" as="geometry" />
        </mxCell>
        <mxCell id="K6NGUNYvaxgkHjzbPg3--308" value="&lt;div&gt;Activate&lt;/div&gt;&lt;div&gt;a non-mana ability&lt;/div&gt;" style="rounded=1;whiteSpace=wrap;html=1;" parent="1" vertex="1">
          <mxGeometry x="378" y="1210" width="84" height="60" as="geometry" />
        </mxCell>
        <mxCell id="K6NGUNYvaxgkHjzbPg3--309" value="&lt;div&gt;Cast&lt;/div&gt;&lt;div&gt;a spell&lt;/div&gt;" style="rounded=1;whiteSpace=wrap;html=1;" parent="1" vertex="1">
          <mxGeometry x="480" y="1210" width="58" height="60" as="geometry" />
        </mxCell>
        <mxCell id="K6NGUNYvaxgkHjzbPg3--310" value="&lt;div&gt;Pass&lt;/div&gt;&lt;div&gt;Priority&lt;br&gt;&lt;/div&gt;" style="rounded=1;whiteSpace=wrap;html=1;" parent="1" vertex="1">
          <mxGeometry x="557" y="1210" width="60" height="60" as="geometry" />
        </mxCell>
        <mxCell id="K6NGUNYvaxgkHjzbPg3--311" value="&lt;div&gt;Perform&lt;/div&gt;&lt;div&gt;a Special&lt;/div&gt;&lt;div&gt;Action&lt;br&gt;&lt;/div&gt;" style="rounded=1;whiteSpace=wrap;html=1;" parent="1" vertex="1">
          <mxGeometry x="288" y="1210" width="70" height="60" as="geometry" />
        </mxCell>
        <mxCell id="K6NGUNYvaxgkHjzbPg3--84" value="&lt;div&gt;Activate&lt;/div&gt;&lt;div&gt;a mana ability&lt;/div&gt;" style="rounded=1;whiteSpace=wrap;html=1;" parent="1" vertex="1">
          <mxGeometry x="208" y="460" width="60" height="60" as="geometry" />
        </mxCell>
        <mxCell id="K6NGUNYvaxgkHjzbPg3--85" value="&lt;div&gt;Activate&lt;/div&gt;&lt;div&gt;a non-mana ability&lt;/div&gt;" style="rounded=1;whiteSpace=wrap;html=1;" parent="1" vertex="1">
          <mxGeometry x="379" y="460" width="84" height="60" as="geometry" />
        </mxCell>
        <mxCell id="K6NGUNYvaxgkHjzbPg3--86" value="&lt;div&gt;Cast&lt;/div&gt;&lt;div&gt;a spell&lt;/div&gt;" style="rounded=1;whiteSpace=wrap;html=1;" parent="1" vertex="1">
          <mxGeometry x="481" y="460" width="58" height="60" as="geometry" />
        </mxCell>
        <mxCell id="K6NGUNYvaxgkHjzbPg3--90" value="&lt;div&gt;Pass&lt;/div&gt;&lt;div&gt;Priority&lt;br&gt;&lt;/div&gt;" style="rounded=1;whiteSpace=wrap;html=1;" parent="1" vertex="1">
          <mxGeometry x="558" y="460" width="60" height="60" as="geometry" />
        </mxCell>
        <mxCell id="K6NGUNYvaxgkHjzbPg3--98" value="&lt;div&gt;Perform&lt;/div&gt;&lt;div&gt;a Special&lt;/div&gt;&lt;div&gt;Action&lt;br&gt;&lt;/div&gt;" style="rounded=1;whiteSpace=wrap;html=1;" parent="1" vertex="1">
          <mxGeometry x="289" y="460" width="70" height="60" as="geometry" />
        </mxCell>
        <mxCell id="K6NGUNYvaxgkHjzbPg3--378" value="Pre-Combat Main Phase" style="rounded=0;whiteSpace=wrap;html=1;fillColor=#eeeeee;strokeColor=#36393d;align=left;verticalAlign=top;spacingLeft=5;" parent="1" vertex="1">
          <mxGeometry x="110" y="2480" width="610" height="750" as="geometry" />
        </mxCell>
        <mxCell id="K6NGUNYvaxgkHjzbPg3--379" style="edgeStyle=orthogonalEdgeStyle;rounded=0;orthogonalLoop=1;jettySize=auto;html=1;" parent="1" target="K6NGUNYvaxgkHjzbPg3--385" edge="1">
          <mxGeometry relative="1" as="geometry">
            <mxPoint x="412.79999999999995" y="2540" as="sourcePoint" />
          </mxGeometry>
        </mxCell>
        <mxCell id="K6NGUNYvaxgkHjzbPg3--380" value="Is the Stack empty?" style="shape=hexagon;perimeter=hexagonPerimeter2;whiteSpace=wrap;html=1;fixedSize=1;size=10;" parent="1" vertex="1">
          <mxGeometry x="333" y="3060" width="158" height="30" as="geometry" />
        </mxCell>
        <mxCell id="K6NGUNYvaxgkHjzbPg3--381" value="Resolve top object on the Stack" style="rounded=1;whiteSpace=wrap;html=1;" parent="1" vertex="1">
          <mxGeometry x="312" y="3120" width="200" height="30" as="geometry" />
        </mxCell>
        <mxCell id="K6NGUNYvaxgkHjzbPg3--382" style="edgeStyle=orthogonalEdgeStyle;rounded=0;orthogonalLoop=1;jettySize=auto;html=1;" parent="1" source="K6NGUNYvaxgkHjzbPg3--380" target="K6NGUNYvaxgkHjzbPg3--381" edge="1">
          <mxGeometry relative="1" as="geometry" />
        </mxCell>
        <mxCell id="K6NGUNYvaxgkHjzbPg3--383" value="Mana Pools empty" style="rounded=1;whiteSpace=wrap;html=1;" parent="1" vertex="1">
          <mxGeometry x="351.5" y="3190" width="123" height="30" as="geometry" />
        </mxCell>
        <mxCell id="K6NGUNYvaxgkHjzbPg3--384" style="edgeStyle=orthogonalEdgeStyle;rounded=0;orthogonalLoop=1;jettySize=auto;html=1;" parent="1" source="K6NGUNYvaxgkHjzbPg3--380" target="K6NGUNYvaxgkHjzbPg3--383" edge="1">
          <mxGeometry relative="1" as="geometry">
            <Array as="points">
              <mxPoint x="278" y="3075" />
              <mxPoint x="278" y="3170" />
              <mxPoint x="413" y="3170" />
            </Array>
          </mxGeometry>
        </mxCell>
        <mxCell id="K6NGUNYvaxgkHjzbPg3--385" value="Active Player gets Priority" style="rounded=1;whiteSpace=wrap;html=1;" parent="1" vertex="1">
          <mxGeometry x="328" y="2590" width="168" height="30" as="geometry" />
        </mxCell>
        <mxCell id="K6NGUNYvaxgkHjzbPg3--386" style="edgeStyle=orthogonalEdgeStyle;rounded=0;orthogonalLoop=1;jettySize=auto;html=1;" parent="1" source="K6NGUNYvaxgkHjzbPg3--381" target="K6NGUNYvaxgkHjzbPg3--385" edge="1">
          <mxGeometry relative="1" as="geometry">
            <Array as="points">
              <mxPoint x="710" y="3135" />
              <mxPoint x="710" y="2570" />
              <mxPoint x="413" y="2570" />
            </Array>
          </mxGeometry>
        </mxCell>
        <mxCell id="K6NGUNYvaxgkHjzbPg3--421" style="edgeStyle=orthogonalEdgeStyle;rounded=0;orthogonalLoop=1;jettySize=auto;html=1;entryX=0.5;entryY=0;entryDx=0;entryDy=0;" parent="1" source="K6NGUNYvaxgkHjzbPg3--387" target="K6NGUNYvaxgkHjzbPg3--411" edge="1">
          <mxGeometry relative="1" as="geometry">
            <Array as="points">
              <mxPoint x="412" y="2770" />
              <mxPoint x="184" y="2770" />
            </Array>
          </mxGeometry>
        </mxCell>
        <mxCell id="K6NGUNYvaxgkHjzbPg3--422" style="edgeStyle=orthogonalEdgeStyle;rounded=0;orthogonalLoop=1;jettySize=auto;html=1;" parent="1" source="K6NGUNYvaxgkHjzbPg3--387" target="K6NGUNYvaxgkHjzbPg3--415" edge="1">
          <mxGeometry relative="1" as="geometry">
            <Array as="points">
              <mxPoint x="412" y="2770" />
              <mxPoint x="270" y="2770" />
            </Array>
          </mxGeometry>
        </mxCell>
        <mxCell id="K6NGUNYvaxgkHjzbPg3--423" style="edgeStyle=orthogonalEdgeStyle;rounded=0;orthogonalLoop=1;jettySize=auto;html=1;" parent="1" source="K6NGUNYvaxgkHjzbPg3--387" target="K6NGUNYvaxgkHjzbPg3--417" edge="1">
          <mxGeometry relative="1" as="geometry" />
        </mxCell>
        <mxCell id="K6NGUNYvaxgkHjzbPg3--424" style="edgeStyle=orthogonalEdgeStyle;rounded=0;orthogonalLoop=1;jettySize=auto;html=1;entryX=0.5;entryY=0;entryDx=0;entryDy=0;" parent="1" source="K6NGUNYvaxgkHjzbPg3--387" target="K6NGUNYvaxgkHjzbPg3--412" edge="1">
          <mxGeometry relative="1" as="geometry" />
        </mxCell>
        <mxCell id="K6NGUNYvaxgkHjzbPg3--425" style="edgeStyle=orthogonalEdgeStyle;rounded=0;orthogonalLoop=1;jettySize=auto;html=1;" parent="1" source="K6NGUNYvaxgkHjzbPg3--387" target="K6NGUNYvaxgkHjzbPg3--413" edge="1">
          <mxGeometry relative="1" as="geometry">
            <Array as="points">
              <mxPoint x="412" y="2770" />
              <mxPoint x="566" y="2770" />
            </Array>
          </mxGeometry>
        </mxCell>
        <mxCell id="K6NGUNYvaxgkHjzbPg3--426" style="edgeStyle=orthogonalEdgeStyle;rounded=0;orthogonalLoop=1;jettySize=auto;html=1;entryX=0.5;entryY=0;entryDx=0;entryDy=0;" parent="1" source="K6NGUNYvaxgkHjzbPg3--387" target="K6NGUNYvaxgkHjzbPg3--414" edge="1">
          <mxGeometry relative="1" as="geometry">
            <Array as="points">
              <mxPoint x="412" y="2770" />
              <mxPoint x="644" y="2770" />
            </Array>
          </mxGeometry>
        </mxCell>
        <mxCell id="K6NGUNYvaxgkHjzbPg3--387" value="&lt;div&gt;The player holding priority may:&lt;/div&gt;" style="rounded=1;whiteSpace=wrap;html=1;" parent="1" vertex="1">
          <mxGeometry x="313" y="2720" width="198" height="30" as="geometry" />
        </mxCell>
        <mxCell id="K6NGUNYvaxgkHjzbPg3--388" style="edgeStyle=orthogonalEdgeStyle;rounded=0;orthogonalLoop=1;jettySize=auto;html=1;entryX=0.5;entryY=0;entryDx=0;entryDy=0;" parent="1" source="K6NGUNYvaxgkHjzbPg3--385" target="K6NGUNYvaxgkHjzbPg3--409" edge="1">
          <mxGeometry relative="1" as="geometry" />
        </mxCell>
        <mxCell id="K6NGUNYvaxgkHjzbPg3--398" style="edgeStyle=orthogonalEdgeStyle;rounded=0;orthogonalLoop=1;jettySize=auto;html=1;" parent="1" source="K6NGUNYvaxgkHjzbPg3--399" target="K6NGUNYvaxgkHjzbPg3--380" edge="1">
          <mxGeometry relative="1" as="geometry">
            <Array as="points">
              <mxPoint x="278" y="2945" />
              <mxPoint x="278" y="3040" />
              <mxPoint x="413" y="3040" />
            </Array>
          </mxGeometry>
        </mxCell>
        <mxCell id="K6NGUNYvaxgkHjzbPg3--399" value="Did all players Pass Priority?" style="shape=hexagon;perimeter=hexagonPerimeter2;whiteSpace=wrap;html=1;fixedSize=1;size=10;" parent="1" vertex="1">
          <mxGeometry x="315.5" y="2930" width="193" height="30" as="geometry" />
        </mxCell>
        <mxCell id="K6NGUNYvaxgkHjzbPg3--400" style="edgeStyle=orthogonalEdgeStyle;rounded=0;orthogonalLoop=1;jettySize=auto;html=1;" parent="1" source="K6NGUNYvaxgkHjzbPg3--414" target="K6NGUNYvaxgkHjzbPg3--399" edge="1">
          <mxGeometry relative="1" as="geometry">
            <Array as="points">
              <mxPoint x="644" y="2910" />
              <mxPoint x="413" y="2910" />
            </Array>
          </mxGeometry>
        </mxCell>
        <mxCell id="K6NGUNYvaxgkHjzbPg3--401" style="edgeStyle=orthogonalEdgeStyle;rounded=0;orthogonalLoop=1;jettySize=auto;html=1;" parent="1" source="K6NGUNYvaxgkHjzbPg3--402" edge="1">
          <mxGeometry relative="1" as="geometry">
            <mxPoint x="413" y="2660" as="targetPoint" />
            <Array as="points">
              <mxPoint x="690" y="3005" />
              <mxPoint x="690" y="2640" />
              <mxPoint x="413" y="2640" />
            </Array>
          </mxGeometry>
        </mxCell>
        <mxCell id="K6NGUNYvaxgkHjzbPg3--402" value="&lt;div&gt;Next player in turn order gets priority&lt;/div&gt;" style="rounded=1;whiteSpace=wrap;html=1;" parent="1" vertex="1">
          <mxGeometry x="298" y="2990" width="228" height="30" as="geometry" />
        </mxCell>
        <mxCell id="K6NGUNYvaxgkHjzbPg3--403" value="" style="edgeStyle=orthogonalEdgeStyle;rounded=0;orthogonalLoop=1;jettySize=auto;html=1;" parent="1" source="K6NGUNYvaxgkHjzbPg3--399" target="K6NGUNYvaxgkHjzbPg3--402" edge="1">
          <mxGeometry relative="1" as="geometry" />
        </mxCell>
        <mxCell id="K6NGUNYvaxgkHjzbPg3--404" value="&lt;div&gt;YES&lt;/div&gt;" style="text;html=1;strokeColor=none;fillColor=none;align=center;verticalAlign=middle;whiteSpace=wrap;rounded=0;" parent="1" vertex="1">
          <mxGeometry x="283.5" y="2925" width="28" height="20" as="geometry" />
        </mxCell>
        <mxCell id="K6NGUNYvaxgkHjzbPg3--405" value="&lt;div&gt;YES&lt;/div&gt;" style="text;html=1;strokeColor=none;fillColor=none;align=center;verticalAlign=middle;whiteSpace=wrap;rounded=0;" parent="1" vertex="1">
          <mxGeometry x="283.5" y="3055" width="28" height="20" as="geometry" />
        </mxCell>
        <mxCell id="K6NGUNYvaxgkHjzbPg3--406" value="NO" style="text;html=1;strokeColor=none;fillColor=none;align=center;verticalAlign=middle;whiteSpace=wrap;rounded=0;" parent="1" vertex="1">
          <mxGeometry x="413" y="2965" width="28" height="20" as="geometry" />
        </mxCell>
        <mxCell id="K6NGUNYvaxgkHjzbPg3--407" value="NO" style="text;html=1;strokeColor=none;fillColor=none;align=center;verticalAlign=middle;whiteSpace=wrap;rounded=0;" parent="1" vertex="1">
          <mxGeometry x="413" y="3095" width="28" height="20" as="geometry" />
        </mxCell>
        <mxCell id="K6NGUNYvaxgkHjzbPg3--408" style="edgeStyle=orthogonalEdgeStyle;rounded=0;orthogonalLoop=1;jettySize=auto;html=1;" parent="1" source="K6NGUNYvaxgkHjzbPg3--409" target="K6NGUNYvaxgkHjzbPg3--387" edge="1">
          <mxGeometry relative="1" as="geometry" />
        </mxCell>
        <mxCell id="K6NGUNYvaxgkHjzbPg3--409" value="State-based actions are checked" style="rounded=1;whiteSpace=wrap;html=1;" parent="1" vertex="1">
          <mxGeometry x="313" y="2660" width="198" height="30" as="geometry" />
        </mxCell>
        <mxCell id="K6NGUNYvaxgkHjzbPg3--410" value="&quot;At the beginning of the pre-combat main phase&quot; abilities trigger" style="rounded=1;whiteSpace=wrap;html=1;" parent="1" vertex="1">
          <mxGeometry x="218" y="2510" width="388" height="30" as="geometry" />
        </mxCell>
        <mxCell id="K6NGUNYvaxgkHjzbPg3--416" style="edgeStyle=orthogonalEdgeStyle;rounded=0;orthogonalLoop=1;jettySize=auto;html=1;" parent="1" source="K6NGUNYvaxgkHjzbPg3--343" target="K6NGUNYvaxgkHjzbPg3--410" edge="1">
          <mxGeometry relative="1" as="geometry" />
        </mxCell>
        <mxCell id="K6NGUNYvaxgkHjzbPg3--427" style="edgeStyle=orthogonalEdgeStyle;rounded=0;orthogonalLoop=1;jettySize=auto;html=1;" parent="1" source="K6NGUNYvaxgkHjzbPg3--411" target="K6NGUNYvaxgkHjzbPg3--409" edge="1">
          <mxGeometry relative="1" as="geometry">
            <Array as="points">
              <mxPoint x="184" y="2870" />
              <mxPoint x="140" y="2870" />
              <mxPoint x="140" y="2640" />
              <mxPoint x="412" y="2640" />
            </Array>
          </mxGeometry>
        </mxCell>
        <mxCell id="K6NGUNYvaxgkHjzbPg3--411" value="&lt;div&gt;Activate&lt;/div&gt;&lt;div&gt;a mana ability&lt;/div&gt;" style="rounded=1;whiteSpace=wrap;html=1;" parent="1" vertex="1">
          <mxGeometry x="155" y="2790" width="58" height="60" as="geometry" />
        </mxCell>
        <mxCell id="K6NGUNYvaxgkHjzbPg3--430" style="edgeStyle=orthogonalEdgeStyle;rounded=0;orthogonalLoop=1;jettySize=auto;html=1;" parent="1" source="K6NGUNYvaxgkHjzbPg3--412" target="K6NGUNYvaxgkHjzbPg3--385" edge="1">
          <mxGeometry relative="1" as="geometry">
            <Array as="points">
              <mxPoint x="477" y="2890" />
              <mxPoint x="120" y="2890" />
              <mxPoint x="120" y="2570" />
              <mxPoint x="412" y="2570" />
            </Array>
          </mxGeometry>
        </mxCell>
        <mxCell id="K6NGUNYvaxgkHjzbPg3--412" value="&lt;div&gt;Activate&lt;/div&gt;&lt;div&gt;a non-mana ability&lt;/div&gt;" style="rounded=1;whiteSpace=wrap;html=1;" parent="1" vertex="1">
          <mxGeometry x="436" y="2790" width="82" height="60" as="geometry" />
        </mxCell>
        <mxCell id="K6NGUNYvaxgkHjzbPg3--431" style="edgeStyle=orthogonalEdgeStyle;rounded=0;orthogonalLoop=1;jettySize=auto;html=1;" parent="1" source="K6NGUNYvaxgkHjzbPg3--413" target="K6NGUNYvaxgkHjzbPg3--385" edge="1">
          <mxGeometry relative="1" as="geometry">
            <Array as="points">
              <mxPoint x="566" y="2890" />
              <mxPoint x="120" y="2890" />
              <mxPoint x="120" y="2570" />
              <mxPoint x="412" y="2570" />
            </Array>
          </mxGeometry>
        </mxCell>
        <mxCell id="K6NGUNYvaxgkHjzbPg3--413" value="&lt;div&gt;Cast&lt;/div&gt;&lt;div&gt;a spell&lt;/div&gt;" style="rounded=1;whiteSpace=wrap;html=1;" parent="1" vertex="1">
          <mxGeometry x="538" y="2790" width="56" height="60" as="geometry" />
        </mxCell>
        <mxCell id="K6NGUNYvaxgkHjzbPg3--414" value="&lt;div&gt;Pass&lt;/div&gt;&lt;div&gt;Priority&lt;br&gt;&lt;/div&gt;" style="rounded=1;whiteSpace=wrap;html=1;" parent="1" vertex="1">
          <mxGeometry x="615" y="2790" width="58" height="60" as="geometry" />
        </mxCell>
        <mxCell id="K6NGUNYvaxgkHjzbPg3--428" style="edgeStyle=orthogonalEdgeStyle;rounded=0;orthogonalLoop=1;jettySize=auto;html=1;" parent="1" source="K6NGUNYvaxgkHjzbPg3--415" target="K6NGUNYvaxgkHjzbPg3--409" edge="1">
          <mxGeometry relative="1" as="geometry">
            <Array as="points">
              <mxPoint x="270" y="2870" />
              <mxPoint x="140" y="2870" />
              <mxPoint x="140" y="2640" />
              <mxPoint x="412" y="2640" />
            </Array>
          </mxGeometry>
        </mxCell>
        <mxCell id="K6NGUNYvaxgkHjzbPg3--415" value="&lt;div&gt;Perform&lt;/div&gt;&lt;div&gt;a Special&lt;/div&gt;&lt;div&gt;Action&lt;br&gt;&lt;/div&gt;" style="rounded=1;whiteSpace=wrap;html=1;" parent="1" vertex="1">
          <mxGeometry x="236" y="2790" width="68" height="60" as="geometry" />
        </mxCell>
        <mxCell id="K6NGUNYvaxgkHjzbPg3--429" style="edgeStyle=orthogonalEdgeStyle;rounded=0;orthogonalLoop=1;jettySize=auto;html=1;" parent="1" source="K6NGUNYvaxgkHjzbPg3--417" target="K6NGUNYvaxgkHjzbPg3--409" edge="1">
          <mxGeometry relative="1" as="geometry">
            <Array as="points">
              <mxPoint x="369" y="2870" />
              <mxPoint x="140" y="2870" />
              <mxPoint x="140" y="2640" />
              <mxPoint x="412" y="2640" />
            </Array>
          </mxGeometry>
        </mxCell>
        <mxCell id="K6NGUNYvaxgkHjzbPg3--417" value="&lt;div&gt;Play a land&lt;/div&gt;&lt;div&gt;(only Active Player)&lt;br&gt;&lt;/div&gt;" style="rounded=1;whiteSpace=wrap;html=1;" parent="1" vertex="1">
          <mxGeometry x="328" y="2790" width="82" height="60" as="geometry" />
        </mxCell>
        <mxCell id="K6NGUNYvaxgkHjzbPg3--432" value="Combat Phase" style="rounded=0;whiteSpace=wrap;html=1;align=left;verticalAlign=top;spacingLeft=5;fillColor=#eeeeee;strokeColor=#36393d;" parent="1" vertex="1">
          <mxGeometry x="110" y="3240" width="610" height="4340" as="geometry" />
        </mxCell>
        <mxCell id="K6NGUNYvaxgkHjzbPg3--433" value="Declare Attackers Step" style="rounded=0;whiteSpace=wrap;html=1;align=left;verticalAlign=top;spacingLeft=5;fillColor=#f5f5f5;fontColor=#333333;strokeColor=#666666;" parent="1" vertex="1">
          <mxGeometry x="120" y="4080" width="590" height="800" as="geometry" />
        </mxCell>
        <mxCell id="K6NGUNYvaxgkHjzbPg3--434" value="Beginning of Combat Step" style="rounded=0;whiteSpace=wrap;html=1;align=left;verticalAlign=top;spacingLeft=5;fillColor=#f5f5f5;fontColor=#333333;strokeColor=#666666;" parent="1" vertex="1">
          <mxGeometry x="120" y="3270" width="590" height="800" as="geometry" />
        </mxCell>
        <mxCell id="K6NGUNYvaxgkHjzbPg3--436" style="edgeStyle=orthogonalEdgeStyle;rounded=0;orthogonalLoop=1;jettySize=auto;html=1;" parent="1" source="K6NGUNYvaxgkHjzbPg3--437" edge="1">
          <mxGeometry relative="1" as="geometry">
            <mxPoint x="413.79999999999995" y="3350" as="targetPoint" />
          </mxGeometry>
        </mxCell>
        <mxCell id="K6NGUNYvaxgkHjzbPg3--437" value="Defending Players are determined" style="rounded=1;whiteSpace=wrap;html=1;" parent="1" vertex="1">
          <mxGeometry x="304.75" y="3290" width="216.25" height="30" as="geometry" />
        </mxCell>
        <mxCell id="K6NGUNYvaxgkHjzbPg3--438" style="edgeStyle=orthogonalEdgeStyle;rounded=0;orthogonalLoop=1;jettySize=auto;html=1;" parent="1" target="K6NGUNYvaxgkHjzbPg3--449" edge="1">
          <mxGeometry relative="1" as="geometry">
            <mxPoint x="413.79999999999995" y="3380" as="sourcePoint" />
          </mxGeometry>
        </mxCell>
        <mxCell id="K6NGUNYvaxgkHjzbPg3--442" value="YES" style="text;html=1;strokeColor=none;fillColor=none;align=center;verticalAlign=middle;whiteSpace=wrap;rounded=0;" parent="1" vertex="1">
          <mxGeometry x="495" y="3345" width="30" height="20" as="geometry" />
        </mxCell>
        <mxCell id="K6NGUNYvaxgkHjzbPg3--443" value="Is the Stack empty?" style="shape=hexagon;perimeter=hexagonPerimeter2;whiteSpace=wrap;html=1;fixedSize=1;size=10;" parent="1" vertex="1">
          <mxGeometry x="334" y="3900" width="160" height="30" as="geometry" />
        </mxCell>
        <mxCell id="K6NGUNYvaxgkHjzbPg3--444" value="Resolve top object on the Stack" style="rounded=1;whiteSpace=wrap;html=1;" parent="1" vertex="1">
          <mxGeometry x="313" y="3960" width="202" height="30" as="geometry" />
        </mxCell>
        <mxCell id="K6NGUNYvaxgkHjzbPg3--445" style="edgeStyle=orthogonalEdgeStyle;rounded=0;orthogonalLoop=1;jettySize=auto;html=1;" parent="1" source="K6NGUNYvaxgkHjzbPg3--443" target="K6NGUNYvaxgkHjzbPg3--444" edge="1">
          <mxGeometry relative="1" as="geometry" />
        </mxCell>
        <mxCell id="K6NGUNYvaxgkHjzbPg3--446" style="edgeStyle=orthogonalEdgeStyle;rounded=0;orthogonalLoop=1;jettySize=auto;html=1;" parent="1" source="K6NGUNYvaxgkHjzbPg3--447" edge="1">
          <mxGeometry relative="1" as="geometry">
            <mxPoint x="413.6999999999998" y="4100" as="targetPoint" />
          </mxGeometry>
        </mxCell>
        <mxCell id="K6NGUNYvaxgkHjzbPg3--447" value="Mana Pools empty" style="rounded=1;whiteSpace=wrap;html=1;" parent="1" vertex="1">
          <mxGeometry x="350.5" y="4030" width="125" height="30" as="geometry" />
        </mxCell>
        <mxCell id="K6NGUNYvaxgkHjzbPg3--448" style="edgeStyle=orthogonalEdgeStyle;rounded=0;orthogonalLoop=1;jettySize=auto;html=1;" parent="1" source="K6NGUNYvaxgkHjzbPg3--443" target="K6NGUNYvaxgkHjzbPg3--447" edge="1">
          <mxGeometry relative="1" as="geometry">
            <Array as="points">
              <mxPoint x="279" y="3915" />
              <mxPoint x="279" y="4010" />
              <mxPoint x="414" y="4010" />
            </Array>
          </mxGeometry>
        </mxCell>
        <mxCell id="K6NGUNYvaxgkHjzbPg3--449" value="Active Player gets Priority" style="rounded=1;whiteSpace=wrap;html=1;" parent="1" vertex="1">
          <mxGeometry x="329" y="3430" width="170" height="30" as="geometry" />
        </mxCell>
        <mxCell id="K6NGUNYvaxgkHjzbPg3--450" style="edgeStyle=orthogonalEdgeStyle;rounded=0;orthogonalLoop=1;jettySize=auto;html=1;" parent="1" source="K6NGUNYvaxgkHjzbPg3--444" target="K6NGUNYvaxgkHjzbPg3--449" edge="1">
          <mxGeometry relative="1" as="geometry">
            <Array as="points">
              <mxPoint x="659" y="3975" />
              <mxPoint x="659" y="3410" />
              <mxPoint x="414" y="3410" />
            </Array>
          </mxGeometry>
        </mxCell>
        <mxCell id="K6NGUNYvaxgkHjzbPg3--451" value="&lt;div&gt;The player holding priority may:&lt;/div&gt;" style="rounded=1;whiteSpace=wrap;html=1;" parent="1" vertex="1">
          <mxGeometry x="314" y="3560" width="200" height="30" as="geometry" />
        </mxCell>
        <mxCell id="K6NGUNYvaxgkHjzbPg3--452" style="edgeStyle=orthogonalEdgeStyle;rounded=0;orthogonalLoop=1;jettySize=auto;html=1;entryX=0.5;entryY=0;entryDx=0;entryDy=0;" parent="1" source="K6NGUNYvaxgkHjzbPg3--449" target="K6NGUNYvaxgkHjzbPg3--473" edge="1">
          <mxGeometry relative="1" as="geometry" />
        </mxCell>
        <mxCell id="K6NGUNYvaxgkHjzbPg3--453" style="edgeStyle=orthogonalEdgeStyle;rounded=0;orthogonalLoop=1;jettySize=auto;html=1;" parent="1" source="K6NGUNYvaxgkHjzbPg3--451" target="K6NGUNYvaxgkHjzbPg3--552" edge="1">
          <mxGeometry relative="1" as="geometry">
            <Array as="points">
              <mxPoint x="414" y="3610" />
              <mxPoint x="238" y="3610" />
            </Array>
          </mxGeometry>
        </mxCell>
        <mxCell id="K6NGUNYvaxgkHjzbPg3--454" style="edgeStyle=orthogonalEdgeStyle;rounded=0;orthogonalLoop=1;jettySize=auto;html=1;" parent="1" source="K6NGUNYvaxgkHjzbPg3--451" target="K6NGUNYvaxgkHjzbPg3--553" edge="1">
          <mxGeometry relative="1" as="geometry">
            <Array as="points">
              <mxPoint x="414" y="3610" />
              <mxPoint x="421" y="3610" />
            </Array>
          </mxGeometry>
        </mxCell>
        <mxCell id="K6NGUNYvaxgkHjzbPg3--455" style="edgeStyle=orthogonalEdgeStyle;rounded=0;orthogonalLoop=1;jettySize=auto;html=1;" parent="1" source="K6NGUNYvaxgkHjzbPg3--451" target="K6NGUNYvaxgkHjzbPg3--554" edge="1">
          <mxGeometry relative="1" as="geometry">
            <Array as="points">
              <mxPoint x="414" y="3610" />
              <mxPoint x="510" y="3610" />
            </Array>
          </mxGeometry>
        </mxCell>
        <mxCell id="K6NGUNYvaxgkHjzbPg3--456" style="edgeStyle=orthogonalEdgeStyle;rounded=0;orthogonalLoop=1;jettySize=auto;html=1;entryX=0.5;entryY=0;entryDx=0;entryDy=0;" parent="1" source="K6NGUNYvaxgkHjzbPg3--552" target="K6NGUNYvaxgkHjzbPg3--473" edge="1">
          <mxGeometry relative="1" as="geometry">
            <Array as="points">
              <mxPoint x="238" y="3710" />
              <mxPoint x="189" y="3710" />
              <mxPoint x="189" y="3480" />
              <mxPoint x="414" y="3480" />
            </Array>
          </mxGeometry>
        </mxCell>
        <mxCell id="K6NGUNYvaxgkHjzbPg3--457" style="edgeStyle=orthogonalEdgeStyle;rounded=0;orthogonalLoop=1;jettySize=auto;html=1;entryX=0.5;entryY=0;entryDx=0;entryDy=0;" parent="1" source="K6NGUNYvaxgkHjzbPg3--556" target="K6NGUNYvaxgkHjzbPg3--473" edge="1">
          <mxGeometry relative="1" as="geometry">
            <Array as="points">
              <mxPoint x="324" y="3710" />
              <mxPoint x="189" y="3710" />
              <mxPoint x="189" y="3480" />
              <mxPoint x="414" y="3480" />
            </Array>
          </mxGeometry>
        </mxCell>
        <mxCell id="K6NGUNYvaxgkHjzbPg3--458" style="edgeStyle=orthogonalEdgeStyle;rounded=0;orthogonalLoop=1;jettySize=auto;html=1;entryX=0.5;entryY=0;entryDx=0;entryDy=0;" parent="1" source="K6NGUNYvaxgkHjzbPg3--451" target="K6NGUNYvaxgkHjzbPg3--555" edge="1">
          <mxGeometry relative="1" as="geometry">
            <Array as="points">
              <mxPoint x="414" y="3610" />
              <mxPoint x="588" y="3610" />
            </Array>
          </mxGeometry>
        </mxCell>
        <mxCell id="K6NGUNYvaxgkHjzbPg3--459" style="edgeStyle=orthogonalEdgeStyle;rounded=0;orthogonalLoop=1;jettySize=auto;html=1;" parent="1" source="K6NGUNYvaxgkHjzbPg3--553" target="K6NGUNYvaxgkHjzbPg3--449" edge="1">
          <mxGeometry relative="1" as="geometry">
            <Array as="points">
              <mxPoint x="421" y="3730" />
              <mxPoint x="169" y="3730" />
              <mxPoint x="169" y="3410" />
              <mxPoint x="414" y="3410" />
            </Array>
          </mxGeometry>
        </mxCell>
        <mxCell id="K6NGUNYvaxgkHjzbPg3--460" style="edgeStyle=orthogonalEdgeStyle;rounded=0;orthogonalLoop=1;jettySize=auto;html=1;entryX=0.5;entryY=0;entryDx=0;entryDy=0;" parent="1" source="K6NGUNYvaxgkHjzbPg3--451" target="K6NGUNYvaxgkHjzbPg3--556" edge="1">
          <mxGeometry relative="1" as="geometry">
            <Array as="points">
              <mxPoint x="414" y="3610" />
              <mxPoint x="324" y="3610" />
            </Array>
          </mxGeometry>
        </mxCell>
        <mxCell id="K6NGUNYvaxgkHjzbPg3--461" style="edgeStyle=orthogonalEdgeStyle;rounded=0;orthogonalLoop=1;jettySize=auto;html=1;" parent="1" source="K6NGUNYvaxgkHjzbPg3--554" target="K6NGUNYvaxgkHjzbPg3--449" edge="1">
          <mxGeometry relative="1" as="geometry">
            <Array as="points">
              <mxPoint x="510" y="3730" />
              <mxPoint x="169" y="3730" />
              <mxPoint x="169" y="3410" />
              <mxPoint x="414" y="3410" />
            </Array>
          </mxGeometry>
        </mxCell>
        <mxCell id="K6NGUNYvaxgkHjzbPg3--462" style="edgeStyle=orthogonalEdgeStyle;rounded=0;orthogonalLoop=1;jettySize=auto;html=1;" parent="1" source="K6NGUNYvaxgkHjzbPg3--463" target="K6NGUNYvaxgkHjzbPg3--443" edge="1">
          <mxGeometry relative="1" as="geometry">
            <Array as="points">
              <mxPoint x="279" y="3785" />
              <mxPoint x="279" y="3880" />
              <mxPoint x="414" y="3880" />
            </Array>
          </mxGeometry>
        </mxCell>
        <mxCell id="K6NGUNYvaxgkHjzbPg3--463" value="Did all players Pass Priority?" style="shape=hexagon;perimeter=hexagonPerimeter2;whiteSpace=wrap;html=1;fixedSize=1;size=10;" parent="1" vertex="1">
          <mxGeometry x="316.5" y="3770" width="195" height="30" as="geometry" />
        </mxCell>
        <mxCell id="K6NGUNYvaxgkHjzbPg3--464" style="edgeStyle=orthogonalEdgeStyle;rounded=0;orthogonalLoop=1;jettySize=auto;html=1;" parent="1" source="K6NGUNYvaxgkHjzbPg3--555" target="K6NGUNYvaxgkHjzbPg3--463" edge="1">
          <mxGeometry relative="1" as="geometry">
            <Array as="points">
              <mxPoint x="588" y="3750" />
              <mxPoint x="414" y="3750" />
            </Array>
          </mxGeometry>
        </mxCell>
        <mxCell id="K6NGUNYvaxgkHjzbPg3--465" style="edgeStyle=orthogonalEdgeStyle;rounded=0;orthogonalLoop=1;jettySize=auto;html=1;" parent="1" source="K6NGUNYvaxgkHjzbPg3--466" edge="1">
          <mxGeometry relative="1" as="geometry">
            <mxPoint x="414" y="3500" as="targetPoint" />
            <Array as="points">
              <mxPoint x="639" y="3845" />
              <mxPoint x="639" y="3480" />
              <mxPoint x="414" y="3480" />
            </Array>
          </mxGeometry>
        </mxCell>
        <mxCell id="K6NGUNYvaxgkHjzbPg3--466" value="&lt;div&gt;Next player in turn order gets priority&lt;/div&gt;" style="rounded=1;whiteSpace=wrap;html=1;" parent="1" vertex="1">
          <mxGeometry x="299" y="3830" width="230" height="30" as="geometry" />
        </mxCell>
        <mxCell id="K6NGUNYvaxgkHjzbPg3--467" value="" style="edgeStyle=orthogonalEdgeStyle;rounded=0;orthogonalLoop=1;jettySize=auto;html=1;" parent="1" source="K6NGUNYvaxgkHjzbPg3--463" target="K6NGUNYvaxgkHjzbPg3--466" edge="1">
          <mxGeometry relative="1" as="geometry" />
        </mxCell>
        <mxCell id="K6NGUNYvaxgkHjzbPg3--468" value="&lt;div&gt;YES&lt;/div&gt;" style="text;html=1;strokeColor=none;fillColor=none;align=center;verticalAlign=middle;whiteSpace=wrap;rounded=0;" parent="1" vertex="1">
          <mxGeometry x="284.5" y="3765" width="30" height="20" as="geometry" />
        </mxCell>
        <mxCell id="K6NGUNYvaxgkHjzbPg3--469" value="&lt;div&gt;YES&lt;/div&gt;" style="text;html=1;strokeColor=none;fillColor=none;align=center;verticalAlign=middle;whiteSpace=wrap;rounded=0;" parent="1" vertex="1">
          <mxGeometry x="284.5" y="3895" width="30" height="20" as="geometry" />
        </mxCell>
        <mxCell id="K6NGUNYvaxgkHjzbPg3--470" value="NO" style="text;html=1;strokeColor=none;fillColor=none;align=center;verticalAlign=middle;whiteSpace=wrap;rounded=0;" parent="1" vertex="1">
          <mxGeometry x="414" y="3805" width="30" height="20" as="geometry" />
        </mxCell>
        <mxCell id="K6NGUNYvaxgkHjzbPg3--471" value="NO" style="text;html=1;strokeColor=none;fillColor=none;align=center;verticalAlign=middle;whiteSpace=wrap;rounded=0;" parent="1" vertex="1">
          <mxGeometry x="414" y="3935" width="30" height="20" as="geometry" />
        </mxCell>
        <mxCell id="K6NGUNYvaxgkHjzbPg3--472" style="edgeStyle=orthogonalEdgeStyle;rounded=0;orthogonalLoop=1;jettySize=auto;html=1;" parent="1" source="K6NGUNYvaxgkHjzbPg3--473" target="K6NGUNYvaxgkHjzbPg3--451" edge="1">
          <mxGeometry relative="1" as="geometry" />
        </mxCell>
        <mxCell id="K6NGUNYvaxgkHjzbPg3--473" value="State-based actions are checked" style="rounded=1;whiteSpace=wrap;html=1;" parent="1" vertex="1">
          <mxGeometry x="314" y="3500" width="200" height="30" as="geometry" />
        </mxCell>
        <mxCell id="K6NGUNYvaxgkHjzbPg3--475" value="Is the Stack empty?" style="shape=hexagon;perimeter=hexagonPerimeter2;whiteSpace=wrap;html=1;fixedSize=1;size=10;" parent="1" vertex="1">
          <mxGeometry x="333" y="4710" width="160" height="30" as="geometry" />
        </mxCell>
        <mxCell id="K6NGUNYvaxgkHjzbPg3--476" value="Resolve top object on the Stack" style="rounded=1;whiteSpace=wrap;html=1;" parent="1" vertex="1">
          <mxGeometry x="312" y="4770" width="202" height="30" as="geometry" />
        </mxCell>
        <mxCell id="K6NGUNYvaxgkHjzbPg3--477" style="edgeStyle=orthogonalEdgeStyle;rounded=0;orthogonalLoop=1;jettySize=auto;html=1;" parent="1" source="K6NGUNYvaxgkHjzbPg3--475" target="K6NGUNYvaxgkHjzbPg3--476" edge="1">
          <mxGeometry relative="1" as="geometry" />
        </mxCell>
        <mxCell id="K6NGUNYvaxgkHjzbPg3--478" value="Mana Pools empty" style="rounded=1;whiteSpace=wrap;html=1;" parent="1" vertex="1">
          <mxGeometry x="349.5" y="4840" width="125" height="30" as="geometry" />
        </mxCell>
        <mxCell id="K6NGUNYvaxgkHjzbPg3--479" style="edgeStyle=orthogonalEdgeStyle;rounded=0;orthogonalLoop=1;jettySize=auto;html=1;" parent="1" source="K6NGUNYvaxgkHjzbPg3--475" target="K6NGUNYvaxgkHjzbPg3--478" edge="1">
          <mxGeometry relative="1" as="geometry">
            <Array as="points">
              <mxPoint x="278" y="4725" />
              <mxPoint x="278" y="4820" />
              <mxPoint x="413" y="4820" />
            </Array>
          </mxGeometry>
        </mxCell>
        <mxCell id="K6NGUNYvaxgkHjzbPg3--480" value="Active Player gets Priority" style="rounded=1;whiteSpace=wrap;html=1;" parent="1" vertex="1">
          <mxGeometry x="328" y="4240" width="170" height="30" as="geometry" />
        </mxCell>
        <mxCell id="K6NGUNYvaxgkHjzbPg3--481" style="edgeStyle=orthogonalEdgeStyle;rounded=0;orthogonalLoop=1;jettySize=auto;html=1;" parent="1" source="K6NGUNYvaxgkHjzbPg3--476" target="K6NGUNYvaxgkHjzbPg3--480" edge="1">
          <mxGeometry relative="1" as="geometry">
            <Array as="points">
              <mxPoint x="658" y="4785" />
              <mxPoint x="658" y="4220" />
              <mxPoint x="413" y="4220" />
            </Array>
          </mxGeometry>
        </mxCell>
        <mxCell id="K6NGUNYvaxgkHjzbPg3--482" value="&lt;div&gt;The player holding priority may:&lt;/div&gt;" style="rounded=1;whiteSpace=wrap;html=1;" parent="1" vertex="1">
          <mxGeometry x="313" y="4370" width="200" height="30" as="geometry" />
        </mxCell>
        <mxCell id="K6NGUNYvaxgkHjzbPg3--483" style="edgeStyle=orthogonalEdgeStyle;rounded=0;orthogonalLoop=1;jettySize=auto;html=1;entryX=0.5;entryY=0;entryDx=0;entryDy=0;" parent="1" source="K6NGUNYvaxgkHjzbPg3--480" target="K6NGUNYvaxgkHjzbPg3--504" edge="1">
          <mxGeometry relative="1" as="geometry" />
        </mxCell>
        <mxCell id="K6NGUNYvaxgkHjzbPg3--484" style="edgeStyle=orthogonalEdgeStyle;rounded=0;orthogonalLoop=1;jettySize=auto;html=1;" parent="1" source="K6NGUNYvaxgkHjzbPg3--482" target="K6NGUNYvaxgkHjzbPg3--547" edge="1">
          <mxGeometry relative="1" as="geometry">
            <Array as="points">
              <mxPoint x="413" y="4420" />
              <mxPoint x="237" y="4420" />
            </Array>
          </mxGeometry>
        </mxCell>
        <mxCell id="K6NGUNYvaxgkHjzbPg3--485" style="edgeStyle=orthogonalEdgeStyle;rounded=0;orthogonalLoop=1;jettySize=auto;html=1;" parent="1" source="K6NGUNYvaxgkHjzbPg3--482" target="K6NGUNYvaxgkHjzbPg3--548" edge="1">
          <mxGeometry relative="1" as="geometry">
            <Array as="points">
              <mxPoint x="413" y="4420" />
              <mxPoint x="420" y="4420" />
            </Array>
          </mxGeometry>
        </mxCell>
        <mxCell id="K6NGUNYvaxgkHjzbPg3--486" style="edgeStyle=orthogonalEdgeStyle;rounded=0;orthogonalLoop=1;jettySize=auto;html=1;" parent="1" source="K6NGUNYvaxgkHjzbPg3--482" target="K6NGUNYvaxgkHjzbPg3--549" edge="1">
          <mxGeometry relative="1" as="geometry">
            <Array as="points">
              <mxPoint x="413" y="4420" />
              <mxPoint x="509" y="4420" />
            </Array>
          </mxGeometry>
        </mxCell>
        <mxCell id="K6NGUNYvaxgkHjzbPg3--487" style="edgeStyle=orthogonalEdgeStyle;rounded=0;orthogonalLoop=1;jettySize=auto;html=1;entryX=0.5;entryY=0;entryDx=0;entryDy=0;" parent="1" source="K6NGUNYvaxgkHjzbPg3--547" target="K6NGUNYvaxgkHjzbPg3--504" edge="1">
          <mxGeometry relative="1" as="geometry">
            <Array as="points">
              <mxPoint x="237" y="4520" />
              <mxPoint x="188" y="4520" />
              <mxPoint x="188" y="4290" />
              <mxPoint x="413" y="4290" />
            </Array>
          </mxGeometry>
        </mxCell>
        <mxCell id="K6NGUNYvaxgkHjzbPg3--488" style="edgeStyle=orthogonalEdgeStyle;rounded=0;orthogonalLoop=1;jettySize=auto;html=1;entryX=0.5;entryY=0;entryDx=0;entryDy=0;" parent="1" source="K6NGUNYvaxgkHjzbPg3--551" target="K6NGUNYvaxgkHjzbPg3--504" edge="1">
          <mxGeometry relative="1" as="geometry">
            <Array as="points">
              <mxPoint x="323" y="4520" />
              <mxPoint x="188" y="4520" />
              <mxPoint x="188" y="4290" />
              <mxPoint x="413" y="4290" />
            </Array>
          </mxGeometry>
        </mxCell>
        <mxCell id="K6NGUNYvaxgkHjzbPg3--489" style="edgeStyle=orthogonalEdgeStyle;rounded=0;orthogonalLoop=1;jettySize=auto;html=1;entryX=0.5;entryY=0;entryDx=0;entryDy=0;" parent="1" source="K6NGUNYvaxgkHjzbPg3--482" target="K6NGUNYvaxgkHjzbPg3--550" edge="1">
          <mxGeometry relative="1" as="geometry">
            <Array as="points">
              <mxPoint x="413" y="4420" />
              <mxPoint x="587" y="4420" />
            </Array>
          </mxGeometry>
        </mxCell>
        <mxCell id="K6NGUNYvaxgkHjzbPg3--490" style="edgeStyle=orthogonalEdgeStyle;rounded=0;orthogonalLoop=1;jettySize=auto;html=1;" parent="1" source="K6NGUNYvaxgkHjzbPg3--548" target="K6NGUNYvaxgkHjzbPg3--480" edge="1">
          <mxGeometry relative="1" as="geometry">
            <Array as="points">
              <mxPoint x="420" y="4540" />
              <mxPoint x="168" y="4540" />
              <mxPoint x="168" y="4220" />
              <mxPoint x="413" y="4220" />
            </Array>
          </mxGeometry>
        </mxCell>
        <mxCell id="K6NGUNYvaxgkHjzbPg3--491" style="edgeStyle=orthogonalEdgeStyle;rounded=0;orthogonalLoop=1;jettySize=auto;html=1;entryX=0.5;entryY=0;entryDx=0;entryDy=0;" parent="1" source="K6NGUNYvaxgkHjzbPg3--482" target="K6NGUNYvaxgkHjzbPg3--551" edge="1">
          <mxGeometry relative="1" as="geometry">
            <Array as="points">
              <mxPoint x="413" y="4420" />
              <mxPoint x="323" y="4420" />
            </Array>
          </mxGeometry>
        </mxCell>
        <mxCell id="K6NGUNYvaxgkHjzbPg3--492" style="edgeStyle=orthogonalEdgeStyle;rounded=0;orthogonalLoop=1;jettySize=auto;html=1;" parent="1" source="K6NGUNYvaxgkHjzbPg3--549" target="K6NGUNYvaxgkHjzbPg3--480" edge="1">
          <mxGeometry relative="1" as="geometry">
            <Array as="points">
              <mxPoint x="509" y="4540" />
              <mxPoint x="168" y="4540" />
              <mxPoint x="168" y="4220" />
              <mxPoint x="413" y="4220" />
            </Array>
          </mxGeometry>
        </mxCell>
        <mxCell id="K6NGUNYvaxgkHjzbPg3--493" style="edgeStyle=orthogonalEdgeStyle;rounded=0;orthogonalLoop=1;jettySize=auto;html=1;" parent="1" source="K6NGUNYvaxgkHjzbPg3--494" target="K6NGUNYvaxgkHjzbPg3--475" edge="1">
          <mxGeometry relative="1" as="geometry">
            <Array as="points">
              <mxPoint x="278" y="4595" />
              <mxPoint x="278" y="4690" />
              <mxPoint x="413" y="4690" />
            </Array>
          </mxGeometry>
        </mxCell>
        <mxCell id="K6NGUNYvaxgkHjzbPg3--494" value="Did all players Pass Priority?" style="shape=hexagon;perimeter=hexagonPerimeter2;whiteSpace=wrap;html=1;fixedSize=1;size=10;" parent="1" vertex="1">
          <mxGeometry x="315.5" y="4580" width="195" height="30" as="geometry" />
        </mxCell>
        <mxCell id="K6NGUNYvaxgkHjzbPg3--495" style="edgeStyle=orthogonalEdgeStyle;rounded=0;orthogonalLoop=1;jettySize=auto;html=1;" parent="1" source="K6NGUNYvaxgkHjzbPg3--550" target="K6NGUNYvaxgkHjzbPg3--494" edge="1">
          <mxGeometry relative="1" as="geometry">
            <Array as="points">
              <mxPoint x="587" y="4560" />
              <mxPoint x="413" y="4560" />
            </Array>
          </mxGeometry>
        </mxCell>
        <mxCell id="K6NGUNYvaxgkHjzbPg3--496" style="edgeStyle=orthogonalEdgeStyle;rounded=0;orthogonalLoop=1;jettySize=auto;html=1;" parent="1" source="K6NGUNYvaxgkHjzbPg3--497" edge="1">
          <mxGeometry relative="1" as="geometry">
            <mxPoint x="413" y="4310" as="targetPoint" />
            <Array as="points">
              <mxPoint x="638" y="4655" />
              <mxPoint x="638" y="4290" />
              <mxPoint x="413" y="4290" />
            </Array>
          </mxGeometry>
        </mxCell>
        <mxCell id="K6NGUNYvaxgkHjzbPg3--497" value="&lt;div&gt;Next player in turn order gets priority&lt;/div&gt;" style="rounded=1;whiteSpace=wrap;html=1;" parent="1" vertex="1">
          <mxGeometry x="298" y="4640" width="230" height="30" as="geometry" />
        </mxCell>
        <mxCell id="K6NGUNYvaxgkHjzbPg3--498" value="" style="edgeStyle=orthogonalEdgeStyle;rounded=0;orthogonalLoop=1;jettySize=auto;html=1;" parent="1" source="K6NGUNYvaxgkHjzbPg3--494" target="K6NGUNYvaxgkHjzbPg3--497" edge="1">
          <mxGeometry relative="1" as="geometry" />
        </mxCell>
        <mxCell id="K6NGUNYvaxgkHjzbPg3--499" value="&lt;div&gt;YES&lt;/div&gt;" style="text;html=1;strokeColor=none;fillColor=none;align=center;verticalAlign=middle;whiteSpace=wrap;rounded=0;" parent="1" vertex="1">
          <mxGeometry x="283.5" y="4575" width="30" height="20" as="geometry" />
        </mxCell>
        <mxCell id="K6NGUNYvaxgkHjzbPg3--500" value="&lt;div&gt;YES&lt;/div&gt;" style="text;html=1;strokeColor=none;fillColor=none;align=center;verticalAlign=middle;whiteSpace=wrap;rounded=0;" parent="1" vertex="1">
          <mxGeometry x="283.5" y="4705" width="30" height="20" as="geometry" />
        </mxCell>
        <mxCell id="K6NGUNYvaxgkHjzbPg3--501" value="NO" style="text;html=1;strokeColor=none;fillColor=none;align=center;verticalAlign=middle;whiteSpace=wrap;rounded=0;" parent="1" vertex="1">
          <mxGeometry x="413" y="4615" width="30" height="20" as="geometry" />
        </mxCell>
        <mxCell id="K6NGUNYvaxgkHjzbPg3--502" value="NO" style="text;html=1;strokeColor=none;fillColor=none;align=center;verticalAlign=middle;whiteSpace=wrap;rounded=0;" parent="1" vertex="1">
          <mxGeometry x="413" y="4745" width="30" height="20" as="geometry" />
        </mxCell>
        <mxCell id="K6NGUNYvaxgkHjzbPg3--503" style="edgeStyle=orthogonalEdgeStyle;rounded=0;orthogonalLoop=1;jettySize=auto;html=1;" parent="1" source="K6NGUNYvaxgkHjzbPg3--504" target="K6NGUNYvaxgkHjzbPg3--482" edge="1">
          <mxGeometry relative="1" as="geometry" />
        </mxCell>
        <mxCell id="K6NGUNYvaxgkHjzbPg3--504" value="State-based actions are checked" style="rounded=1;whiteSpace=wrap;html=1;" parent="1" vertex="1">
          <mxGeometry x="313" y="4310" width="200" height="30" as="geometry" />
        </mxCell>
        <mxCell id="K6NGUNYvaxgkHjzbPg3--560" style="edgeStyle=orthogonalEdgeStyle;rounded=0;orthogonalLoop=1;jettySize=auto;html=1;" parent="1" source="K6NGUNYvaxgkHjzbPg3--505" target="K6NGUNYvaxgkHjzbPg3--559" edge="1">
          <mxGeometry relative="1" as="geometry" />
        </mxCell>
        <mxCell id="K6NGUNYvaxgkHjzbPg3--505" value="Active Player declares attackers" style="rounded=1;whiteSpace=wrap;html=1;" parent="1" vertex="1">
          <mxGeometry x="312" y="4100" width="202" height="30" as="geometry" />
        </mxCell>
        <mxCell id="K6NGUNYvaxgkHjzbPg3--506" value="Declare Blockers Step" style="rounded=0;whiteSpace=wrap;html=1;align=left;verticalAlign=top;spacingLeft=5;fillColor=#f5f5f5;fontColor=#333333;strokeColor=#666666;" parent="1" vertex="1">
          <mxGeometry x="120" y="4890" width="590" height="870" as="geometry" />
        </mxCell>
        <mxCell id="K6NGUNYvaxgkHjzbPg3--507" style="edgeStyle=orthogonalEdgeStyle;rounded=0;orthogonalLoop=1;jettySize=auto;html=1;" parent="1" source="K6NGUNYvaxgkHjzbPg3--508" edge="1">
          <mxGeometry relative="1" as="geometry">
            <mxPoint x="412.8000000000002" y="4970" as="targetPoint" />
          </mxGeometry>
        </mxCell>
        <mxCell id="K6NGUNYvaxgkHjzbPg3--508" value="Defending players declare blockers" style="rounded=1;whiteSpace=wrap;html=1;" parent="1" vertex="1">
          <mxGeometry x="303" y="4910" width="220" height="30" as="geometry" />
        </mxCell>
        <mxCell id="K6NGUNYvaxgkHjzbPg3--509" style="edgeStyle=orthogonalEdgeStyle;rounded=0;orthogonalLoop=1;jettySize=auto;html=1;" parent="1" target="K6NGUNYvaxgkHjzbPg3--515" edge="1">
          <mxGeometry relative="1" as="geometry">
            <mxPoint x="412.8000000000002" y="5060" as="sourcePoint" />
          </mxGeometry>
        </mxCell>
        <mxCell id="K6NGUNYvaxgkHjzbPg3--510" value="Is the Stack empty?" style="shape=hexagon;perimeter=hexagonPerimeter2;whiteSpace=wrap;html=1;fixedSize=1;size=10;" parent="1" vertex="1">
          <mxGeometry x="333" y="5590" width="160" height="30" as="geometry" />
        </mxCell>
        <mxCell id="K6NGUNYvaxgkHjzbPg3--511" value="Resolve top object on the Stack" style="rounded=1;whiteSpace=wrap;html=1;" parent="1" vertex="1">
          <mxGeometry x="312" y="5650" width="202" height="30" as="geometry" />
        </mxCell>
        <mxCell id="K6NGUNYvaxgkHjzbPg3--512" style="edgeStyle=orthogonalEdgeStyle;rounded=0;orthogonalLoop=1;jettySize=auto;html=1;" parent="1" source="K6NGUNYvaxgkHjzbPg3--510" target="K6NGUNYvaxgkHjzbPg3--511" edge="1">
          <mxGeometry relative="1" as="geometry" />
        </mxCell>
        <mxCell id="K6NGUNYvaxgkHjzbPg3--513" value="Mana Pools empty" style="rounded=1;whiteSpace=wrap;html=1;" parent="1" vertex="1">
          <mxGeometry x="349.5" y="5720" width="125" height="30" as="geometry" />
        </mxCell>
        <mxCell id="K6NGUNYvaxgkHjzbPg3--514" style="edgeStyle=orthogonalEdgeStyle;rounded=0;orthogonalLoop=1;jettySize=auto;html=1;" parent="1" source="K6NGUNYvaxgkHjzbPg3--510" target="K6NGUNYvaxgkHjzbPg3--513" edge="1">
          <mxGeometry relative="1" as="geometry">
            <Array as="points">
              <mxPoint x="278" y="5605" />
              <mxPoint x="278" y="5700" />
              <mxPoint x="413" y="5700" />
            </Array>
          </mxGeometry>
        </mxCell>
        <mxCell id="K6NGUNYvaxgkHjzbPg3--515" value="Active Player gets Priority" style="rounded=1;whiteSpace=wrap;html=1;" parent="1" vertex="1">
          <mxGeometry x="328" y="5120" width="170" height="30" as="geometry" />
        </mxCell>
        <mxCell id="K6NGUNYvaxgkHjzbPg3--516" style="edgeStyle=orthogonalEdgeStyle;rounded=0;orthogonalLoop=1;jettySize=auto;html=1;" parent="1" source="K6NGUNYvaxgkHjzbPg3--511" target="K6NGUNYvaxgkHjzbPg3--515" edge="1">
          <mxGeometry relative="1" as="geometry">
            <Array as="points">
              <mxPoint x="658" y="5665" />
              <mxPoint x="658" y="5100" />
              <mxPoint x="413" y="5100" />
            </Array>
          </mxGeometry>
        </mxCell>
        <mxCell id="K6NGUNYvaxgkHjzbPg3--517" value="&lt;div&gt;The player holding priority may:&lt;/div&gt;" style="rounded=1;whiteSpace=wrap;html=1;" parent="1" vertex="1">
          <mxGeometry x="313" y="5250" width="200" height="30" as="geometry" />
        </mxCell>
        <mxCell id="K6NGUNYvaxgkHjzbPg3--518" style="edgeStyle=orthogonalEdgeStyle;rounded=0;orthogonalLoop=1;jettySize=auto;html=1;entryX=0.5;entryY=0;entryDx=0;entryDy=0;" parent="1" source="K6NGUNYvaxgkHjzbPg3--515" target="K6NGUNYvaxgkHjzbPg3--539" edge="1">
          <mxGeometry relative="1" as="geometry" />
        </mxCell>
        <mxCell id="K6NGUNYvaxgkHjzbPg3--519" style="edgeStyle=orthogonalEdgeStyle;rounded=0;orthogonalLoop=1;jettySize=auto;html=1;" parent="1" source="K6NGUNYvaxgkHjzbPg3--517" target="K6NGUNYvaxgkHjzbPg3--542" edge="1">
          <mxGeometry relative="1" as="geometry">
            <Array as="points">
              <mxPoint x="413" y="5300" />
              <mxPoint x="237" y="5300" />
            </Array>
          </mxGeometry>
        </mxCell>
        <mxCell id="K6NGUNYvaxgkHjzbPg3--520" style="edgeStyle=orthogonalEdgeStyle;rounded=0;orthogonalLoop=1;jettySize=auto;html=1;" parent="1" source="K6NGUNYvaxgkHjzbPg3--517" target="K6NGUNYvaxgkHjzbPg3--543" edge="1">
          <mxGeometry relative="1" as="geometry">
            <Array as="points">
              <mxPoint x="413" y="5300" />
              <mxPoint x="420" y="5300" />
            </Array>
          </mxGeometry>
        </mxCell>
        <mxCell id="K6NGUNYvaxgkHjzbPg3--521" style="edgeStyle=orthogonalEdgeStyle;rounded=0;orthogonalLoop=1;jettySize=auto;html=1;" parent="1" source="K6NGUNYvaxgkHjzbPg3--517" target="K6NGUNYvaxgkHjzbPg3--544" edge="1">
          <mxGeometry relative="1" as="geometry">
            <Array as="points">
              <mxPoint x="413" y="5300" />
              <mxPoint x="509" y="5300" />
            </Array>
          </mxGeometry>
        </mxCell>
        <mxCell id="K6NGUNYvaxgkHjzbPg3--522" style="edgeStyle=orthogonalEdgeStyle;rounded=0;orthogonalLoop=1;jettySize=auto;html=1;entryX=0.5;entryY=0;entryDx=0;entryDy=0;" parent="1" source="K6NGUNYvaxgkHjzbPg3--542" target="K6NGUNYvaxgkHjzbPg3--539" edge="1">
          <mxGeometry relative="1" as="geometry">
            <Array as="points">
              <mxPoint x="237" y="5400" />
              <mxPoint x="188" y="5400" />
              <mxPoint x="188" y="5170" />
              <mxPoint x="413" y="5170" />
            </Array>
          </mxGeometry>
        </mxCell>
        <mxCell id="K6NGUNYvaxgkHjzbPg3--523" style="edgeStyle=orthogonalEdgeStyle;rounded=0;orthogonalLoop=1;jettySize=auto;html=1;entryX=0.5;entryY=0;entryDx=0;entryDy=0;" parent="1" source="K6NGUNYvaxgkHjzbPg3--546" target="K6NGUNYvaxgkHjzbPg3--539" edge="1">
          <mxGeometry relative="1" as="geometry">
            <Array as="points">
              <mxPoint x="323" y="5400" />
              <mxPoint x="188" y="5400" />
              <mxPoint x="188" y="5170" />
              <mxPoint x="413" y="5170" />
            </Array>
          </mxGeometry>
        </mxCell>
        <mxCell id="K6NGUNYvaxgkHjzbPg3--524" style="edgeStyle=orthogonalEdgeStyle;rounded=0;orthogonalLoop=1;jettySize=auto;html=1;entryX=0.5;entryY=0;entryDx=0;entryDy=0;" parent="1" source="K6NGUNYvaxgkHjzbPg3--517" target="K6NGUNYvaxgkHjzbPg3--545" edge="1">
          <mxGeometry relative="1" as="geometry">
            <Array as="points">
              <mxPoint x="413" y="5300" />
              <mxPoint x="587" y="5300" />
            </Array>
          </mxGeometry>
        </mxCell>
        <mxCell id="K6NGUNYvaxgkHjzbPg3--525" style="edgeStyle=orthogonalEdgeStyle;rounded=0;orthogonalLoop=1;jettySize=auto;html=1;" parent="1" source="K6NGUNYvaxgkHjzbPg3--543" target="K6NGUNYvaxgkHjzbPg3--515" edge="1">
          <mxGeometry relative="1" as="geometry">
            <Array as="points">
              <mxPoint x="420" y="5420" />
              <mxPoint x="168" y="5420" />
              <mxPoint x="168" y="5100" />
              <mxPoint x="413" y="5100" />
            </Array>
          </mxGeometry>
        </mxCell>
        <mxCell id="K6NGUNYvaxgkHjzbPg3--526" style="edgeStyle=orthogonalEdgeStyle;rounded=0;orthogonalLoop=1;jettySize=auto;html=1;entryX=0.5;entryY=0;entryDx=0;entryDy=0;" parent="1" source="K6NGUNYvaxgkHjzbPg3--517" target="K6NGUNYvaxgkHjzbPg3--546" edge="1">
          <mxGeometry relative="1" as="geometry">
            <Array as="points">
              <mxPoint x="413" y="5300" />
              <mxPoint x="323" y="5300" />
            </Array>
          </mxGeometry>
        </mxCell>
        <mxCell id="K6NGUNYvaxgkHjzbPg3--527" style="edgeStyle=orthogonalEdgeStyle;rounded=0;orthogonalLoop=1;jettySize=auto;html=1;" parent="1" source="K6NGUNYvaxgkHjzbPg3--544" target="K6NGUNYvaxgkHjzbPg3--515" edge="1">
          <mxGeometry relative="1" as="geometry">
            <Array as="points">
              <mxPoint x="509" y="5420" />
              <mxPoint x="168" y="5420" />
              <mxPoint x="168" y="5100" />
              <mxPoint x="413" y="5100" />
            </Array>
          </mxGeometry>
        </mxCell>
        <mxCell id="K6NGUNYvaxgkHjzbPg3--528" style="edgeStyle=orthogonalEdgeStyle;rounded=0;orthogonalLoop=1;jettySize=auto;html=1;" parent="1" source="K6NGUNYvaxgkHjzbPg3--529" target="K6NGUNYvaxgkHjzbPg3--510" edge="1">
          <mxGeometry relative="1" as="geometry">
            <Array as="points">
              <mxPoint x="278" y="5475" />
              <mxPoint x="278" y="5570" />
              <mxPoint x="413" y="5570" />
            </Array>
          </mxGeometry>
        </mxCell>
        <mxCell id="K6NGUNYvaxgkHjzbPg3--529" value="Did all players Pass Priority?" style="shape=hexagon;perimeter=hexagonPerimeter2;whiteSpace=wrap;html=1;fixedSize=1;size=10;" parent="1" vertex="1">
          <mxGeometry x="315.5" y="5460" width="195" height="30" as="geometry" />
        </mxCell>
        <mxCell id="K6NGUNYvaxgkHjzbPg3--530" style="edgeStyle=orthogonalEdgeStyle;rounded=0;orthogonalLoop=1;jettySize=auto;html=1;" parent="1" source="K6NGUNYvaxgkHjzbPg3--545" target="K6NGUNYvaxgkHjzbPg3--529" edge="1">
          <mxGeometry relative="1" as="geometry">
            <Array as="points">
              <mxPoint x="587" y="5440" />
              <mxPoint x="413" y="5440" />
            </Array>
          </mxGeometry>
        </mxCell>
        <mxCell id="K6NGUNYvaxgkHjzbPg3--531" style="edgeStyle=orthogonalEdgeStyle;rounded=0;orthogonalLoop=1;jettySize=auto;html=1;" parent="1" source="K6NGUNYvaxgkHjzbPg3--532" edge="1">
          <mxGeometry relative="1" as="geometry">
            <mxPoint x="413" y="5190" as="targetPoint" />
            <Array as="points">
              <mxPoint x="638" y="5535" />
              <mxPoint x="638" y="5170" />
              <mxPoint x="413" y="5170" />
            </Array>
          </mxGeometry>
        </mxCell>
        <mxCell id="K6NGUNYvaxgkHjzbPg3--532" value="&lt;div&gt;Next player in turn order gets priority&lt;/div&gt;" style="rounded=1;whiteSpace=wrap;html=1;" parent="1" vertex="1">
          <mxGeometry x="298" y="5520" width="230" height="30" as="geometry" />
        </mxCell>
        <mxCell id="K6NGUNYvaxgkHjzbPg3--533" value="" style="edgeStyle=orthogonalEdgeStyle;rounded=0;orthogonalLoop=1;jettySize=auto;html=1;" parent="1" source="K6NGUNYvaxgkHjzbPg3--529" target="K6NGUNYvaxgkHjzbPg3--532" edge="1">
          <mxGeometry relative="1" as="geometry" />
        </mxCell>
        <mxCell id="K6NGUNYvaxgkHjzbPg3--534" value="&lt;div&gt;YES&lt;/div&gt;" style="text;html=1;strokeColor=none;fillColor=none;align=center;verticalAlign=middle;whiteSpace=wrap;rounded=0;" parent="1" vertex="1">
          <mxGeometry x="283.5" y="5455" width="30" height="20" as="geometry" />
        </mxCell>
        <mxCell id="K6NGUNYvaxgkHjzbPg3--535" value="&lt;div&gt;YES&lt;/div&gt;" style="text;html=1;strokeColor=none;fillColor=none;align=center;verticalAlign=middle;whiteSpace=wrap;rounded=0;" parent="1" vertex="1">
          <mxGeometry x="283.5" y="5585" width="30" height="20" as="geometry" />
        </mxCell>
        <mxCell id="K6NGUNYvaxgkHjzbPg3--536" value="NO" style="text;html=1;strokeColor=none;fillColor=none;align=center;verticalAlign=middle;whiteSpace=wrap;rounded=0;" parent="1" vertex="1">
          <mxGeometry x="413" y="5495" width="30" height="20" as="geometry" />
        </mxCell>
        <mxCell id="K6NGUNYvaxgkHjzbPg3--537" value="NO" style="text;html=1;strokeColor=none;fillColor=none;align=center;verticalAlign=middle;whiteSpace=wrap;rounded=0;" parent="1" vertex="1">
          <mxGeometry x="413" y="5625" width="30" height="20" as="geometry" />
        </mxCell>
        <mxCell id="K6NGUNYvaxgkHjzbPg3--538" style="edgeStyle=orthogonalEdgeStyle;rounded=0;orthogonalLoop=1;jettySize=auto;html=1;" parent="1" source="K6NGUNYvaxgkHjzbPg3--539" target="K6NGUNYvaxgkHjzbPg3--517" edge="1">
          <mxGeometry relative="1" as="geometry" />
        </mxCell>
        <mxCell id="K6NGUNYvaxgkHjzbPg3--539" value="State-based actions are checked" style="rounded=1;whiteSpace=wrap;html=1;" parent="1" vertex="1">
          <mxGeometry x="313" y="5190" width="200" height="30" as="geometry" />
        </mxCell>
        <mxCell id="K6NGUNYvaxgkHjzbPg3--540" value="&quot;When something blocks&quot;, &quot;When something becomes blocked&quot; and &quot;When something attacks and isn&#39;t blocked&quot; abilities trigger" style="rounded=1;whiteSpace=wrap;html=1;" parent="1" vertex="1">
          <mxGeometry x="216" y="5030" width="392" height="40" as="geometry" />
        </mxCell>
        <mxCell id="K6NGUNYvaxgkHjzbPg3--541" style="edgeStyle=orthogonalEdgeStyle;rounded=0;orthogonalLoop=1;jettySize=auto;html=1;" parent="1" source="K6NGUNYvaxgkHjzbPg3--478" edge="1">
          <mxGeometry relative="1" as="geometry">
            <mxPoint x="412.8000000000002" y="4910" as="targetPoint" />
          </mxGeometry>
        </mxCell>
        <mxCell id="K6NGUNYvaxgkHjzbPg3--542" value="&lt;div&gt;Activate&lt;/div&gt;&lt;div&gt;a mana ability&lt;/div&gt;" style="rounded=1;whiteSpace=wrap;html=1;" parent="1" vertex="1">
          <mxGeometry x="207" y="5320" width="60" height="60" as="geometry" />
        </mxCell>
        <mxCell id="K6NGUNYvaxgkHjzbPg3--543" value="&lt;div&gt;Activate&lt;/div&gt;&lt;div&gt;a non-mana ability&lt;/div&gt;" style="rounded=1;whiteSpace=wrap;html=1;" parent="1" vertex="1">
          <mxGeometry x="378" y="5320" width="84" height="60" as="geometry" />
        </mxCell>
        <mxCell id="K6NGUNYvaxgkHjzbPg3--544" value="&lt;div&gt;Cast&lt;/div&gt;&lt;div&gt;a spell&lt;/div&gt;" style="rounded=1;whiteSpace=wrap;html=1;" parent="1" vertex="1">
          <mxGeometry x="480" y="5320" width="58" height="60" as="geometry" />
        </mxCell>
        <mxCell id="K6NGUNYvaxgkHjzbPg3--545" value="&lt;div&gt;Pass&lt;/div&gt;&lt;div&gt;Priority&lt;br&gt;&lt;/div&gt;" style="rounded=1;whiteSpace=wrap;html=1;" parent="1" vertex="1">
          <mxGeometry x="557" y="5320" width="60" height="60" as="geometry" />
        </mxCell>
        <mxCell id="K6NGUNYvaxgkHjzbPg3--546" value="&lt;div&gt;Perform&lt;/div&gt;&lt;div&gt;a Special&lt;/div&gt;&lt;div&gt;Action&lt;br&gt;&lt;/div&gt;" style="rounded=1;whiteSpace=wrap;html=1;" parent="1" vertex="1">
          <mxGeometry x="288" y="5320" width="70" height="60" as="geometry" />
        </mxCell>
        <mxCell id="K6NGUNYvaxgkHjzbPg3--547" value="&lt;div&gt;Activate&lt;/div&gt;&lt;div&gt;a mana ability&lt;/div&gt;" style="rounded=1;whiteSpace=wrap;html=1;" parent="1" vertex="1">
          <mxGeometry x="207" y="4440" width="60" height="60" as="geometry" />
        </mxCell>
        <mxCell id="K6NGUNYvaxgkHjzbPg3--548" value="&lt;div&gt;Activate&lt;/div&gt;&lt;div&gt;a non-mana ability&lt;/div&gt;" style="rounded=1;whiteSpace=wrap;html=1;" parent="1" vertex="1">
          <mxGeometry x="378" y="4440" width="84" height="60" as="geometry" />
        </mxCell>
        <mxCell id="K6NGUNYvaxgkHjzbPg3--549" value="&lt;div&gt;Cast&lt;/div&gt;&lt;div&gt;a spell&lt;/div&gt;" style="rounded=1;whiteSpace=wrap;html=1;" parent="1" vertex="1">
          <mxGeometry x="480" y="4440" width="58" height="60" as="geometry" />
        </mxCell>
        <mxCell id="K6NGUNYvaxgkHjzbPg3--550" value="&lt;div&gt;Pass&lt;/div&gt;&lt;div&gt;Priority&lt;br&gt;&lt;/div&gt;" style="rounded=1;whiteSpace=wrap;html=1;" parent="1" vertex="1">
          <mxGeometry x="557" y="4440" width="60" height="60" as="geometry" />
        </mxCell>
        <mxCell id="K6NGUNYvaxgkHjzbPg3--551" value="&lt;div&gt;Perform&lt;/div&gt;&lt;div&gt;a Special&lt;/div&gt;&lt;div&gt;Action&lt;br&gt;&lt;/div&gt;" style="rounded=1;whiteSpace=wrap;html=1;" parent="1" vertex="1">
          <mxGeometry x="288" y="4440" width="70" height="60" as="geometry" />
        </mxCell>
        <mxCell id="K6NGUNYvaxgkHjzbPg3--552" value="&lt;div&gt;Activate&lt;/div&gt;&lt;div&gt;a mana ability&lt;/div&gt;" style="rounded=1;whiteSpace=wrap;html=1;" parent="1" vertex="1">
          <mxGeometry x="208" y="3630" width="60" height="60" as="geometry" />
        </mxCell>
        <mxCell id="K6NGUNYvaxgkHjzbPg3--553" value="&lt;div&gt;Activate&lt;/div&gt;&lt;div&gt;a non-mana ability&lt;/div&gt;" style="rounded=1;whiteSpace=wrap;html=1;" parent="1" vertex="1">
          <mxGeometry x="379" y="3630" width="84" height="60" as="geometry" />
        </mxCell>
        <mxCell id="K6NGUNYvaxgkHjzbPg3--554" value="&lt;div&gt;Cast&lt;/div&gt;&lt;div&gt;a spell&lt;/div&gt;" style="rounded=1;whiteSpace=wrap;html=1;" parent="1" vertex="1">
          <mxGeometry x="481" y="3630" width="58" height="60" as="geometry" />
        </mxCell>
        <mxCell id="K6NGUNYvaxgkHjzbPg3--555" value="&lt;div&gt;Pass&lt;/div&gt;&lt;div&gt;Priority&lt;br&gt;&lt;/div&gt;" style="rounded=1;whiteSpace=wrap;html=1;" parent="1" vertex="1">
          <mxGeometry x="558" y="3630" width="60" height="60" as="geometry" />
        </mxCell>
        <mxCell id="K6NGUNYvaxgkHjzbPg3--556" value="&lt;div&gt;Perform&lt;/div&gt;&lt;div&gt;a Special&lt;/div&gt;&lt;div&gt;Action&lt;br&gt;&lt;/div&gt;" style="rounded=1;whiteSpace=wrap;html=1;" parent="1" vertex="1">
          <mxGeometry x="289" y="3630" width="70" height="60" as="geometry" />
        </mxCell>
        <mxCell id="K6NGUNYvaxgkHjzbPg3--557" style="edgeStyle=orthogonalEdgeStyle;rounded=0;orthogonalLoop=1;jettySize=auto;html=1;" parent="1" source="K6NGUNYvaxgkHjzbPg3--383" target="K6NGUNYvaxgkHjzbPg3--437" edge="1">
          <mxGeometry relative="1" as="geometry" />
        </mxCell>
        <mxCell id="K6NGUNYvaxgkHjzbPg3--558" value="&quot;At the beginning of combat&quot; abilities trigger" style="rounded=1;whiteSpace=wrap;html=1;" parent="1" vertex="1">
          <mxGeometry x="274" y="3350" width="278" height="30" as="geometry" />
        </mxCell>
        <mxCell id="K6NGUNYvaxgkHjzbPg3--561" style="edgeStyle=orthogonalEdgeStyle;rounded=0;orthogonalLoop=1;jettySize=auto;html=1;" parent="1" source="K6NGUNYvaxgkHjzbPg3--559" target="K6NGUNYvaxgkHjzbPg3--480" edge="1">
          <mxGeometry relative="1" as="geometry" />
        </mxCell>
        <mxCell id="K6NGUNYvaxgkHjzbPg3--559" value="&quot;When something attacks&quot; abilities trigger" style="rounded=1;whiteSpace=wrap;html=1;" parent="1" vertex="1">
          <mxGeometry x="284" y="4160" width="257" height="30" as="geometry" />
        </mxCell>
        <mxCell id="K6NGUNYvaxgkHjzbPg3--563" style="edgeStyle=orthogonalEdgeStyle;rounded=0;orthogonalLoop=1;jettySize=auto;html=1;" parent="1" source="K6NGUNYvaxgkHjzbPg3--562" target="K6NGUNYvaxgkHjzbPg3--540" edge="1">
          <mxGeometry relative="1" as="geometry" />
        </mxCell>
        <mxCell id="K6NGUNYvaxgkHjzbPg3--562" value="Attacking player announces damage assignment order" style="rounded=1;whiteSpace=wrap;html=1;" parent="1" vertex="1">
          <mxGeometry x="248" y="4970" width="328" height="30" as="geometry" />
        </mxCell>
        <mxCell id="K6NGUNYvaxgkHjzbPg3--564" value="Combat Damage Step" style="rounded=0;whiteSpace=wrap;html=1;align=left;verticalAlign=top;spacingLeft=5;fillColor=#f5f5f5;fontColor=#333333;strokeColor=#666666;" parent="1" vertex="1">
          <mxGeometry x="120" y="5780" width="590" height="920" as="geometry" />
        </mxCell>
        <mxCell id="K6NGUNYvaxgkHjzbPg3--565" style="edgeStyle=orthogonalEdgeStyle;rounded=0;orthogonalLoop=1;jettySize=auto;html=1;" parent="1" source="K6NGUNYvaxgkHjzbPg3--566" edge="1">
          <mxGeometry relative="1" as="geometry">
            <mxPoint x="412.8000000000002" y="5860" as="targetPoint" />
          </mxGeometry>
        </mxCell>
        <mxCell id="K6NGUNYvaxgkHjzbPg3--566" value="Attacking player announces damage assignment" style="rounded=1;whiteSpace=wrap;html=1;" parent="1" vertex="1">
          <mxGeometry x="266" y="5800" width="292" height="30" as="geometry" />
        </mxCell>
        <mxCell id="K6NGUNYvaxgkHjzbPg3--567" style="edgeStyle=orthogonalEdgeStyle;rounded=0;orthogonalLoop=1;jettySize=auto;html=1;" parent="1" target="K6NGUNYvaxgkHjzbPg3--573" edge="1">
          <mxGeometry relative="1" as="geometry">
            <mxPoint x="412.8000000000002" y="6010" as="sourcePoint" />
          </mxGeometry>
        </mxCell>
        <mxCell id="K6NGUNYvaxgkHjzbPg3--568" value="Is the Stack empty?" style="shape=hexagon;perimeter=hexagonPerimeter2;whiteSpace=wrap;html=1;fixedSize=1;size=10;" parent="1" vertex="1">
          <mxGeometry x="333" y="6530" width="160" height="30" as="geometry" />
        </mxCell>
        <mxCell id="K6NGUNYvaxgkHjzbPg3--569" value="Resolve top object on the Stack" style="rounded=1;whiteSpace=wrap;html=1;" parent="1" vertex="1">
          <mxGeometry x="312" y="6590" width="202" height="30" as="geometry" />
        </mxCell>
        <mxCell id="K6NGUNYvaxgkHjzbPg3--570" style="edgeStyle=orthogonalEdgeStyle;rounded=0;orthogonalLoop=1;jettySize=auto;html=1;" parent="1" source="K6NGUNYvaxgkHjzbPg3--568" target="K6NGUNYvaxgkHjzbPg3--569" edge="1">
          <mxGeometry relative="1" as="geometry" />
        </mxCell>
        <mxCell id="K6NGUNYvaxgkHjzbPg3--571" value="Mana Pools empty" style="rounded=1;whiteSpace=wrap;html=1;" parent="1" vertex="1">
          <mxGeometry x="349.5" y="6660" width="125" height="30" as="geometry" />
        </mxCell>
        <mxCell id="K6NGUNYvaxgkHjzbPg3--572" style="edgeStyle=orthogonalEdgeStyle;rounded=0;orthogonalLoop=1;jettySize=auto;html=1;" parent="1" source="K6NGUNYvaxgkHjzbPg3--568" target="K6NGUNYvaxgkHjzbPg3--571" edge="1">
          <mxGeometry relative="1" as="geometry">
            <Array as="points">
              <mxPoint x="278" y="6545" />
              <mxPoint x="278" y="6640" />
              <mxPoint x="413" y="6640" />
            </Array>
          </mxGeometry>
        </mxCell>
        <mxCell id="K6NGUNYvaxgkHjzbPg3--573" value="Active Player gets Priority" style="rounded=1;whiteSpace=wrap;html=1;" parent="1" vertex="1">
          <mxGeometry x="328" y="6060" width="170" height="30" as="geometry" />
        </mxCell>
        <mxCell id="K6NGUNYvaxgkHjzbPg3--574" style="edgeStyle=orthogonalEdgeStyle;rounded=0;orthogonalLoop=1;jettySize=auto;html=1;" parent="1" source="K6NGUNYvaxgkHjzbPg3--569" target="K6NGUNYvaxgkHjzbPg3--573" edge="1">
          <mxGeometry relative="1" as="geometry">
            <Array as="points">
              <mxPoint x="658" y="6605" />
              <mxPoint x="658" y="6040" />
              <mxPoint x="413" y="6040" />
            </Array>
          </mxGeometry>
        </mxCell>
        <mxCell id="K6NGUNYvaxgkHjzbPg3--575" value="&lt;div&gt;The player holding priority may:&lt;/div&gt;" style="rounded=1;whiteSpace=wrap;html=1;" parent="1" vertex="1">
          <mxGeometry x="313" y="6190" width="200" height="30" as="geometry" />
        </mxCell>
        <mxCell id="K6NGUNYvaxgkHjzbPg3--576" style="edgeStyle=orthogonalEdgeStyle;rounded=0;orthogonalLoop=1;jettySize=auto;html=1;entryX=0.5;entryY=0;entryDx=0;entryDy=0;" parent="1" source="K6NGUNYvaxgkHjzbPg3--573" target="K6NGUNYvaxgkHjzbPg3--597" edge="1">
          <mxGeometry relative="1" as="geometry" />
        </mxCell>
        <mxCell id="K6NGUNYvaxgkHjzbPg3--577" style="edgeStyle=orthogonalEdgeStyle;rounded=0;orthogonalLoop=1;jettySize=auto;html=1;" parent="1" source="K6NGUNYvaxgkHjzbPg3--575" target="K6NGUNYvaxgkHjzbPg3--599" edge="1">
          <mxGeometry relative="1" as="geometry">
            <Array as="points">
              <mxPoint x="413" y="6240" />
              <mxPoint x="237" y="6240" />
            </Array>
          </mxGeometry>
        </mxCell>
        <mxCell id="K6NGUNYvaxgkHjzbPg3--578" style="edgeStyle=orthogonalEdgeStyle;rounded=0;orthogonalLoop=1;jettySize=auto;html=1;" parent="1" source="K6NGUNYvaxgkHjzbPg3--575" target="K6NGUNYvaxgkHjzbPg3--600" edge="1">
          <mxGeometry relative="1" as="geometry">
            <Array as="points">
              <mxPoint x="413" y="6240" />
              <mxPoint x="420" y="6240" />
            </Array>
          </mxGeometry>
        </mxCell>
        <mxCell id="K6NGUNYvaxgkHjzbPg3--579" style="edgeStyle=orthogonalEdgeStyle;rounded=0;orthogonalLoop=1;jettySize=auto;html=1;" parent="1" source="K6NGUNYvaxgkHjzbPg3--575" target="K6NGUNYvaxgkHjzbPg3--601" edge="1">
          <mxGeometry relative="1" as="geometry">
            <Array as="points">
              <mxPoint x="413" y="6240" />
              <mxPoint x="509" y="6240" />
            </Array>
          </mxGeometry>
        </mxCell>
        <mxCell id="K6NGUNYvaxgkHjzbPg3--580" style="edgeStyle=orthogonalEdgeStyle;rounded=0;orthogonalLoop=1;jettySize=auto;html=1;entryX=0.5;entryY=0;entryDx=0;entryDy=0;" parent="1" source="K6NGUNYvaxgkHjzbPg3--599" target="K6NGUNYvaxgkHjzbPg3--597" edge="1">
          <mxGeometry relative="1" as="geometry">
            <Array as="points">
              <mxPoint x="237" y="6340" />
              <mxPoint x="188" y="6340" />
              <mxPoint x="188" y="6110" />
              <mxPoint x="413" y="6110" />
            </Array>
          </mxGeometry>
        </mxCell>
        <mxCell id="K6NGUNYvaxgkHjzbPg3--581" style="edgeStyle=orthogonalEdgeStyle;rounded=0;orthogonalLoop=1;jettySize=auto;html=1;entryX=0.5;entryY=0;entryDx=0;entryDy=0;" parent="1" source="K6NGUNYvaxgkHjzbPg3--603" target="K6NGUNYvaxgkHjzbPg3--597" edge="1">
          <mxGeometry relative="1" as="geometry">
            <Array as="points">
              <mxPoint x="323" y="6340" />
              <mxPoint x="188" y="6340" />
              <mxPoint x="188" y="6110" />
              <mxPoint x="413" y="6110" />
            </Array>
          </mxGeometry>
        </mxCell>
        <mxCell id="K6NGUNYvaxgkHjzbPg3--582" style="edgeStyle=orthogonalEdgeStyle;rounded=0;orthogonalLoop=1;jettySize=auto;html=1;entryX=0.5;entryY=0;entryDx=0;entryDy=0;" parent="1" source="K6NGUNYvaxgkHjzbPg3--575" target="K6NGUNYvaxgkHjzbPg3--602" edge="1">
          <mxGeometry relative="1" as="geometry">
            <Array as="points">
              <mxPoint x="413" y="6240" />
              <mxPoint x="587" y="6240" />
            </Array>
          </mxGeometry>
        </mxCell>
        <mxCell id="K6NGUNYvaxgkHjzbPg3--583" style="edgeStyle=orthogonalEdgeStyle;rounded=0;orthogonalLoop=1;jettySize=auto;html=1;" parent="1" source="K6NGUNYvaxgkHjzbPg3--600" target="K6NGUNYvaxgkHjzbPg3--573" edge="1">
          <mxGeometry relative="1" as="geometry">
            <Array as="points">
              <mxPoint x="420" y="6360" />
              <mxPoint x="168" y="6360" />
              <mxPoint x="168" y="6040" />
              <mxPoint x="413" y="6040" />
            </Array>
          </mxGeometry>
        </mxCell>
        <mxCell id="K6NGUNYvaxgkHjzbPg3--584" style="edgeStyle=orthogonalEdgeStyle;rounded=0;orthogonalLoop=1;jettySize=auto;html=1;entryX=0.5;entryY=0;entryDx=0;entryDy=0;" parent="1" source="K6NGUNYvaxgkHjzbPg3--575" target="K6NGUNYvaxgkHjzbPg3--603" edge="1">
          <mxGeometry relative="1" as="geometry">
            <Array as="points">
              <mxPoint x="413" y="6240" />
              <mxPoint x="323" y="6240" />
            </Array>
          </mxGeometry>
        </mxCell>
        <mxCell id="K6NGUNYvaxgkHjzbPg3--585" style="edgeStyle=orthogonalEdgeStyle;rounded=0;orthogonalLoop=1;jettySize=auto;html=1;" parent="1" source="K6NGUNYvaxgkHjzbPg3--601" target="K6NGUNYvaxgkHjzbPg3--573" edge="1">
          <mxGeometry relative="1" as="geometry">
            <Array as="points">
              <mxPoint x="509" y="6360" />
              <mxPoint x="168" y="6360" />
              <mxPoint x="168" y="6040" />
              <mxPoint x="413" y="6040" />
            </Array>
          </mxGeometry>
        </mxCell>
        <mxCell id="K6NGUNYvaxgkHjzbPg3--586" style="edgeStyle=orthogonalEdgeStyle;rounded=0;orthogonalLoop=1;jettySize=auto;html=1;" parent="1" source="K6NGUNYvaxgkHjzbPg3--587" target="K6NGUNYvaxgkHjzbPg3--568" edge="1">
          <mxGeometry relative="1" as="geometry">
            <Array as="points">
              <mxPoint x="278" y="6415" />
              <mxPoint x="278" y="6510" />
              <mxPoint x="413" y="6510" />
            </Array>
          </mxGeometry>
        </mxCell>
        <mxCell id="K6NGUNYvaxgkHjzbPg3--587" value="Did all players Pass Priority?" style="shape=hexagon;perimeter=hexagonPerimeter2;whiteSpace=wrap;html=1;fixedSize=1;size=10;" parent="1" vertex="1">
          <mxGeometry x="315.5" y="6400" width="195" height="30" as="geometry" />
        </mxCell>
        <mxCell id="K6NGUNYvaxgkHjzbPg3--588" style="edgeStyle=orthogonalEdgeStyle;rounded=0;orthogonalLoop=1;jettySize=auto;html=1;" parent="1" source="K6NGUNYvaxgkHjzbPg3--602" target="K6NGUNYvaxgkHjzbPg3--587" edge="1">
          <mxGeometry relative="1" as="geometry">
            <Array as="points">
              <mxPoint x="587" y="6380" />
              <mxPoint x="413" y="6380" />
            </Array>
          </mxGeometry>
        </mxCell>
        <mxCell id="K6NGUNYvaxgkHjzbPg3--589" style="edgeStyle=orthogonalEdgeStyle;rounded=0;orthogonalLoop=1;jettySize=auto;html=1;" parent="1" source="K6NGUNYvaxgkHjzbPg3--590" edge="1">
          <mxGeometry relative="1" as="geometry">
            <mxPoint x="413" y="6130" as="targetPoint" />
            <Array as="points">
              <mxPoint x="638" y="6475" />
              <mxPoint x="638" y="6110" />
              <mxPoint x="413" y="6110" />
            </Array>
          </mxGeometry>
        </mxCell>
        <mxCell id="K6NGUNYvaxgkHjzbPg3--590" value="&lt;div&gt;Next player in turn order gets priority&lt;/div&gt;" style="rounded=1;whiteSpace=wrap;html=1;" parent="1" vertex="1">
          <mxGeometry x="298" y="6460" width="230" height="30" as="geometry" />
        </mxCell>
        <mxCell id="K6NGUNYvaxgkHjzbPg3--591" value="" style="edgeStyle=orthogonalEdgeStyle;rounded=0;orthogonalLoop=1;jettySize=auto;html=1;" parent="1" source="K6NGUNYvaxgkHjzbPg3--587" target="K6NGUNYvaxgkHjzbPg3--590" edge="1">
          <mxGeometry relative="1" as="geometry" />
        </mxCell>
        <mxCell id="K6NGUNYvaxgkHjzbPg3--592" value="&lt;div&gt;YES&lt;/div&gt;" style="text;html=1;strokeColor=none;fillColor=none;align=center;verticalAlign=middle;whiteSpace=wrap;rounded=0;" parent="1" vertex="1">
          <mxGeometry x="283.5" y="6395" width="30" height="20" as="geometry" />
        </mxCell>
        <mxCell id="K6NGUNYvaxgkHjzbPg3--593" value="&lt;div&gt;YES&lt;/div&gt;" style="text;html=1;strokeColor=none;fillColor=none;align=center;verticalAlign=middle;whiteSpace=wrap;rounded=0;" parent="1" vertex="1">
          <mxGeometry x="283.5" y="6525" width="30" height="20" as="geometry" />
        </mxCell>
        <mxCell id="K6NGUNYvaxgkHjzbPg3--594" value="NO" style="text;html=1;strokeColor=none;fillColor=none;align=center;verticalAlign=middle;whiteSpace=wrap;rounded=0;" parent="1" vertex="1">
          <mxGeometry x="413" y="6435" width="30" height="20" as="geometry" />
        </mxCell>
        <mxCell id="K6NGUNYvaxgkHjzbPg3--595" value="NO" style="text;html=1;strokeColor=none;fillColor=none;align=center;verticalAlign=middle;whiteSpace=wrap;rounded=0;" parent="1" vertex="1">
          <mxGeometry x="413" y="6565" width="30" height="20" as="geometry" />
        </mxCell>
        <mxCell id="K6NGUNYvaxgkHjzbPg3--596" style="edgeStyle=orthogonalEdgeStyle;rounded=0;orthogonalLoop=1;jettySize=auto;html=1;" parent="1" source="K6NGUNYvaxgkHjzbPg3--597" target="K6NGUNYvaxgkHjzbPg3--575" edge="1">
          <mxGeometry relative="1" as="geometry" />
        </mxCell>
        <mxCell id="K6NGUNYvaxgkHjzbPg3--597" value="State-based actions are checked" style="rounded=1;whiteSpace=wrap;html=1;" parent="1" vertex="1">
          <mxGeometry x="313" y="6130" width="200" height="30" as="geometry" />
        </mxCell>
        <mxCell id="K6NGUNYvaxgkHjzbPg3--598" value="&quot;When something deals combat damage&quot; abilities trigger" style="rounded=1;whiteSpace=wrap;html=1;" parent="1" vertex="1">
          <mxGeometry x="240" y="5980" width="344" height="30" as="geometry" />
        </mxCell>
        <mxCell id="K6NGUNYvaxgkHjzbPg3--599" value="&lt;div&gt;Activate&lt;/div&gt;&lt;div&gt;a mana ability&lt;/div&gt;" style="rounded=1;whiteSpace=wrap;html=1;" parent="1" vertex="1">
          <mxGeometry x="207" y="6260" width="60" height="60" as="geometry" />
        </mxCell>
        <mxCell id="K6NGUNYvaxgkHjzbPg3--600" value="&lt;div&gt;Activate&lt;/div&gt;&lt;div&gt;a non-mana ability&lt;/div&gt;" style="rounded=1;whiteSpace=wrap;html=1;" parent="1" vertex="1">
          <mxGeometry x="378" y="6260" width="84" height="60" as="geometry" />
        </mxCell>
        <mxCell id="K6NGUNYvaxgkHjzbPg3--601" value="&lt;div&gt;Cast&lt;/div&gt;&lt;div&gt;a spell&lt;/div&gt;" style="rounded=1;whiteSpace=wrap;html=1;" parent="1" vertex="1">
          <mxGeometry x="480" y="6260" width="58" height="60" as="geometry" />
        </mxCell>
        <mxCell id="K6NGUNYvaxgkHjzbPg3--602" value="&lt;div&gt;Pass&lt;/div&gt;&lt;div&gt;Priority&lt;br&gt;&lt;/div&gt;" style="rounded=1;whiteSpace=wrap;html=1;" parent="1" vertex="1">
          <mxGeometry x="557" y="6260" width="60" height="60" as="geometry" />
        </mxCell>
        <mxCell id="K6NGUNYvaxgkHjzbPg3--603" value="&lt;div&gt;Perform&lt;/div&gt;&lt;div&gt;a Special&lt;/div&gt;&lt;div&gt;Action&lt;br&gt;&lt;/div&gt;" style="rounded=1;whiteSpace=wrap;html=1;" parent="1" vertex="1">
          <mxGeometry x="288" y="6260" width="70" height="60" as="geometry" />
        </mxCell>
        <mxCell id="K6NGUNYvaxgkHjzbPg3--604" style="edgeStyle=orthogonalEdgeStyle;rounded=0;orthogonalLoop=1;jettySize=auto;html=1;" parent="1" source="K6NGUNYvaxgkHjzbPg3--605" target="K6NGUNYvaxgkHjzbPg3--598" edge="1">
          <mxGeometry relative="1" as="geometry" />
        </mxCell>
        <mxCell id="K6NGUNYvaxgkHjzbPg3--605" value="Regular damage is dealt simultaneously" style="rounded=1;whiteSpace=wrap;html=1;" parent="1" vertex="1">
          <mxGeometry x="288" y="5920" width="248" height="30" as="geometry" />
        </mxCell>
        <mxCell id="K6NGUNYvaxgkHjzbPg3--606" style="edgeStyle=orthogonalEdgeStyle;rounded=0;orthogonalLoop=1;jettySize=auto;html=1;" parent="1" source="K6NGUNYvaxgkHjzbPg3--607" edge="1">
          <mxGeometry relative="1" as="geometry">
            <mxPoint x="412" y="5920" as="targetPoint" />
          </mxGeometry>
        </mxCell>
        <mxCell id="K6NGUNYvaxgkHjzbPg3--607" value="First strike damage is dealt simultaneously" style="rounded=1;whiteSpace=wrap;html=1;" parent="1" vertex="1">
          <mxGeometry x="282" y="5860" width="260" height="30" as="geometry" />
        </mxCell>
        <mxCell id="K6NGUNYvaxgkHjzbPg3--608" style="edgeStyle=orthogonalEdgeStyle;rounded=0;orthogonalLoop=1;jettySize=auto;html=1;" parent="1" source="K6NGUNYvaxgkHjzbPg3--513" target="K6NGUNYvaxgkHjzbPg3--566" edge="1">
          <mxGeometry relative="1" as="geometry" />
        </mxCell>
        <mxCell id="K6NGUNYvaxgkHjzbPg3--609" value="End of Combat Step" style="rounded=0;whiteSpace=wrap;html=1;align=left;verticalAlign=top;spacingLeft=5;fillColor=#f5f5f5;fontColor=#333333;strokeColor=#666666;" parent="1" vertex="1">
          <mxGeometry x="120" y="6710" width="590" height="860" as="geometry" />
        </mxCell>
        <mxCell id="K6NGUNYvaxgkHjzbPg3--612" style="edgeStyle=orthogonalEdgeStyle;rounded=0;orthogonalLoop=1;jettySize=auto;html=1;" parent="1" target="K6NGUNYvaxgkHjzbPg3--619" edge="1">
          <mxGeometry relative="1" as="geometry">
            <mxPoint x="413.79999999999995" y="6760" as="sourcePoint" />
          </mxGeometry>
        </mxCell>
        <mxCell id="K6NGUNYvaxgkHjzbPg3--613" value="YES" style="text;html=1;strokeColor=none;fillColor=none;align=center;verticalAlign=middle;whiteSpace=wrap;rounded=0;" parent="1" vertex="1">
          <mxGeometry x="495" y="6725" width="30" height="20" as="geometry" />
        </mxCell>
        <mxCell id="K6NGUNYvaxgkHjzbPg3--614" value="Is the Stack empty?" style="shape=hexagon;perimeter=hexagonPerimeter2;whiteSpace=wrap;html=1;fixedSize=1;size=10;" parent="1" vertex="1">
          <mxGeometry x="334" y="7280" width="160" height="30" as="geometry" />
        </mxCell>
        <mxCell id="K6NGUNYvaxgkHjzbPg3--615" value="Resolve top object on the Stack" style="rounded=1;whiteSpace=wrap;html=1;" parent="1" vertex="1">
          <mxGeometry x="313" y="7340" width="202" height="30" as="geometry" />
        </mxCell>
        <mxCell id="K6NGUNYvaxgkHjzbPg3--616" style="edgeStyle=orthogonalEdgeStyle;rounded=0;orthogonalLoop=1;jettySize=auto;html=1;" parent="1" source="K6NGUNYvaxgkHjzbPg3--614" target="K6NGUNYvaxgkHjzbPg3--615" edge="1">
          <mxGeometry relative="1" as="geometry" />
        </mxCell>
        <mxCell id="K6NGUNYvaxgkHjzbPg3--654" style="edgeStyle=orthogonalEdgeStyle;rounded=0;orthogonalLoop=1;jettySize=auto;html=1;" parent="1" source="K6NGUNYvaxgkHjzbPg3--617" target="K6NGUNYvaxgkHjzbPg3--651" edge="1">
          <mxGeometry relative="1" as="geometry" />
        </mxCell>
        <mxCell id="K6NGUNYvaxgkHjzbPg3--617" value="Creatures and planeswalkers are removed from combat" style="rounded=1;whiteSpace=wrap;html=1;" parent="1" vertex="1">
          <mxGeometry x="246" y="7410" width="335.5" height="30" as="geometry" />
        </mxCell>
        <mxCell id="K6NGUNYvaxgkHjzbPg3--618" style="edgeStyle=orthogonalEdgeStyle;rounded=0;orthogonalLoop=1;jettySize=auto;html=1;" parent="1" source="K6NGUNYvaxgkHjzbPg3--614" target="K6NGUNYvaxgkHjzbPg3--617" edge="1">
          <mxGeometry relative="1" as="geometry">
            <Array as="points">
              <mxPoint x="279" y="7295" />
              <mxPoint x="279" y="7390" />
              <mxPoint x="414" y="7390" />
            </Array>
          </mxGeometry>
        </mxCell>
        <mxCell id="K6NGUNYvaxgkHjzbPg3--619" value="Active Player gets Priority" style="rounded=1;whiteSpace=wrap;html=1;" parent="1" vertex="1">
          <mxGeometry x="329" y="6810" width="170" height="30" as="geometry" />
        </mxCell>
        <mxCell id="K6NGUNYvaxgkHjzbPg3--620" style="edgeStyle=orthogonalEdgeStyle;rounded=0;orthogonalLoop=1;jettySize=auto;html=1;" parent="1" source="K6NGUNYvaxgkHjzbPg3--615" target="K6NGUNYvaxgkHjzbPg3--619" edge="1">
          <mxGeometry relative="1" as="geometry">
            <Array as="points">
              <mxPoint x="659" y="7355" />
              <mxPoint x="659" y="6790" />
              <mxPoint x="414" y="6790" />
            </Array>
          </mxGeometry>
        </mxCell>
        <mxCell id="K6NGUNYvaxgkHjzbPg3--621" value="&lt;div&gt;The player holding priority may:&lt;/div&gt;" style="rounded=1;whiteSpace=wrap;html=1;" parent="1" vertex="1">
          <mxGeometry x="314" y="6940" width="200" height="30" as="geometry" />
        </mxCell>
        <mxCell id="K6NGUNYvaxgkHjzbPg3--622" style="edgeStyle=orthogonalEdgeStyle;rounded=0;orthogonalLoop=1;jettySize=auto;html=1;entryX=0.5;entryY=0;entryDx=0;entryDy=0;" parent="1" source="K6NGUNYvaxgkHjzbPg3--619" target="K6NGUNYvaxgkHjzbPg3--643" edge="1">
          <mxGeometry relative="1" as="geometry" />
        </mxCell>
        <mxCell id="K6NGUNYvaxgkHjzbPg3--623" style="edgeStyle=orthogonalEdgeStyle;rounded=0;orthogonalLoop=1;jettySize=auto;html=1;" parent="1" source="K6NGUNYvaxgkHjzbPg3--621" target="K6NGUNYvaxgkHjzbPg3--644" edge="1">
          <mxGeometry relative="1" as="geometry">
            <Array as="points">
              <mxPoint x="414" y="6990" />
              <mxPoint x="238" y="6990" />
            </Array>
          </mxGeometry>
        </mxCell>
        <mxCell id="K6NGUNYvaxgkHjzbPg3--624" style="edgeStyle=orthogonalEdgeStyle;rounded=0;orthogonalLoop=1;jettySize=auto;html=1;" parent="1" source="K6NGUNYvaxgkHjzbPg3--621" target="K6NGUNYvaxgkHjzbPg3--645" edge="1">
          <mxGeometry relative="1" as="geometry">
            <Array as="points">
              <mxPoint x="414" y="6990" />
              <mxPoint x="421" y="6990" />
            </Array>
          </mxGeometry>
        </mxCell>
        <mxCell id="K6NGUNYvaxgkHjzbPg3--625" style="edgeStyle=orthogonalEdgeStyle;rounded=0;orthogonalLoop=1;jettySize=auto;html=1;" parent="1" source="K6NGUNYvaxgkHjzbPg3--621" target="K6NGUNYvaxgkHjzbPg3--646" edge="1">
          <mxGeometry relative="1" as="geometry">
            <Array as="points">
              <mxPoint x="414" y="6990" />
              <mxPoint x="510" y="6990" />
            </Array>
          </mxGeometry>
        </mxCell>
        <mxCell id="K6NGUNYvaxgkHjzbPg3--626" style="edgeStyle=orthogonalEdgeStyle;rounded=0;orthogonalLoop=1;jettySize=auto;html=1;entryX=0.5;entryY=0;entryDx=0;entryDy=0;" parent="1" source="K6NGUNYvaxgkHjzbPg3--644" target="K6NGUNYvaxgkHjzbPg3--643" edge="1">
          <mxGeometry relative="1" as="geometry">
            <Array as="points">
              <mxPoint x="238" y="7090" />
              <mxPoint x="189" y="7090" />
              <mxPoint x="189" y="6860" />
              <mxPoint x="414" y="6860" />
            </Array>
          </mxGeometry>
        </mxCell>
        <mxCell id="K6NGUNYvaxgkHjzbPg3--627" style="edgeStyle=orthogonalEdgeStyle;rounded=0;orthogonalLoop=1;jettySize=auto;html=1;entryX=0.5;entryY=0;entryDx=0;entryDy=0;" parent="1" source="K6NGUNYvaxgkHjzbPg3--648" target="K6NGUNYvaxgkHjzbPg3--643" edge="1">
          <mxGeometry relative="1" as="geometry">
            <Array as="points">
              <mxPoint x="324" y="7090" />
              <mxPoint x="189" y="7090" />
              <mxPoint x="189" y="6860" />
              <mxPoint x="414" y="6860" />
            </Array>
          </mxGeometry>
        </mxCell>
        <mxCell id="K6NGUNYvaxgkHjzbPg3--628" style="edgeStyle=orthogonalEdgeStyle;rounded=0;orthogonalLoop=1;jettySize=auto;html=1;entryX=0.5;entryY=0;entryDx=0;entryDy=0;" parent="1" source="K6NGUNYvaxgkHjzbPg3--621" target="K6NGUNYvaxgkHjzbPg3--647" edge="1">
          <mxGeometry relative="1" as="geometry">
            <Array as="points">
              <mxPoint x="414" y="6990" />
              <mxPoint x="588" y="6990" />
            </Array>
          </mxGeometry>
        </mxCell>
        <mxCell id="K6NGUNYvaxgkHjzbPg3--629" style="edgeStyle=orthogonalEdgeStyle;rounded=0;orthogonalLoop=1;jettySize=auto;html=1;" parent="1" source="K6NGUNYvaxgkHjzbPg3--645" target="K6NGUNYvaxgkHjzbPg3--619" edge="1">
          <mxGeometry relative="1" as="geometry">
            <Array as="points">
              <mxPoint x="421" y="7110" />
              <mxPoint x="169" y="7110" />
              <mxPoint x="169" y="6790" />
              <mxPoint x="414" y="6790" />
            </Array>
          </mxGeometry>
        </mxCell>
        <mxCell id="K6NGUNYvaxgkHjzbPg3--630" style="edgeStyle=orthogonalEdgeStyle;rounded=0;orthogonalLoop=1;jettySize=auto;html=1;entryX=0.5;entryY=0;entryDx=0;entryDy=0;" parent="1" source="K6NGUNYvaxgkHjzbPg3--621" target="K6NGUNYvaxgkHjzbPg3--648" edge="1">
          <mxGeometry relative="1" as="geometry">
            <Array as="points">
              <mxPoint x="414" y="6990" />
              <mxPoint x="324" y="6990" />
            </Array>
          </mxGeometry>
        </mxCell>
        <mxCell id="K6NGUNYvaxgkHjzbPg3--631" style="edgeStyle=orthogonalEdgeStyle;rounded=0;orthogonalLoop=1;jettySize=auto;html=1;" parent="1" source="K6NGUNYvaxgkHjzbPg3--646" target="K6NGUNYvaxgkHjzbPg3--619" edge="1">
          <mxGeometry relative="1" as="geometry">
            <Array as="points">
              <mxPoint x="510" y="7110" />
              <mxPoint x="169" y="7110" />
              <mxPoint x="169" y="6790" />
              <mxPoint x="414" y="6790" />
            </Array>
          </mxGeometry>
        </mxCell>
        <mxCell id="K6NGUNYvaxgkHjzbPg3--632" style="edgeStyle=orthogonalEdgeStyle;rounded=0;orthogonalLoop=1;jettySize=auto;html=1;" parent="1" source="K6NGUNYvaxgkHjzbPg3--633" target="K6NGUNYvaxgkHjzbPg3--614" edge="1">
          <mxGeometry relative="1" as="geometry">
            <Array as="points">
              <mxPoint x="279" y="7165" />
              <mxPoint x="279" y="7260" />
              <mxPoint x="414" y="7260" />
            </Array>
          </mxGeometry>
        </mxCell>
        <mxCell id="K6NGUNYvaxgkHjzbPg3--633" value="Did all players Pass Priority?" style="shape=hexagon;perimeter=hexagonPerimeter2;whiteSpace=wrap;html=1;fixedSize=1;size=10;" parent="1" vertex="1">
          <mxGeometry x="316.5" y="7150" width="195" height="30" as="geometry" />
        </mxCell>
        <mxCell id="K6NGUNYvaxgkHjzbPg3--634" style="edgeStyle=orthogonalEdgeStyle;rounded=0;orthogonalLoop=1;jettySize=auto;html=1;" parent="1" source="K6NGUNYvaxgkHjzbPg3--647" target="K6NGUNYvaxgkHjzbPg3--633" edge="1">
          <mxGeometry relative="1" as="geometry">
            <Array as="points">
              <mxPoint x="588" y="7130" />
              <mxPoint x="414" y="7130" />
            </Array>
          </mxGeometry>
        </mxCell>
        <mxCell id="K6NGUNYvaxgkHjzbPg3--635" style="edgeStyle=orthogonalEdgeStyle;rounded=0;orthogonalLoop=1;jettySize=auto;html=1;" parent="1" source="K6NGUNYvaxgkHjzbPg3--636" edge="1">
          <mxGeometry relative="1" as="geometry">
            <mxPoint x="414" y="6880" as="targetPoint" />
            <Array as="points">
              <mxPoint x="639" y="7225" />
              <mxPoint x="639" y="6860" />
              <mxPoint x="414" y="6860" />
            </Array>
          </mxGeometry>
        </mxCell>
        <mxCell id="K6NGUNYvaxgkHjzbPg3--636" value="&lt;div&gt;Next player in turn order gets priority&lt;/div&gt;" style="rounded=1;whiteSpace=wrap;html=1;" parent="1" vertex="1">
          <mxGeometry x="299" y="7210" width="230" height="30" as="geometry" />
        </mxCell>
        <mxCell id="K6NGUNYvaxgkHjzbPg3--637" value="" style="edgeStyle=orthogonalEdgeStyle;rounded=0;orthogonalLoop=1;jettySize=auto;html=1;" parent="1" source="K6NGUNYvaxgkHjzbPg3--633" target="K6NGUNYvaxgkHjzbPg3--636" edge="1">
          <mxGeometry relative="1" as="geometry" />
        </mxCell>
        <mxCell id="K6NGUNYvaxgkHjzbPg3--638" value="&lt;div&gt;YES&lt;/div&gt;" style="text;html=1;strokeColor=none;fillColor=none;align=center;verticalAlign=middle;whiteSpace=wrap;rounded=0;" parent="1" vertex="1">
          <mxGeometry x="284.5" y="7145" width="30" height="20" as="geometry" />
        </mxCell>
        <mxCell id="K6NGUNYvaxgkHjzbPg3--639" value="&lt;div&gt;YES&lt;/div&gt;" style="text;html=1;strokeColor=none;fillColor=none;align=center;verticalAlign=middle;whiteSpace=wrap;rounded=0;" parent="1" vertex="1">
          <mxGeometry x="284.5" y="7275" width="30" height="20" as="geometry" />
        </mxCell>
        <mxCell id="K6NGUNYvaxgkHjzbPg3--640" value="NO" style="text;html=1;strokeColor=none;fillColor=none;align=center;verticalAlign=middle;whiteSpace=wrap;rounded=0;" parent="1" vertex="1">
          <mxGeometry x="414" y="7185" width="30" height="20" as="geometry" />
        </mxCell>
        <mxCell id="K6NGUNYvaxgkHjzbPg3--641" value="NO" style="text;html=1;strokeColor=none;fillColor=none;align=center;verticalAlign=middle;whiteSpace=wrap;rounded=0;" parent="1" vertex="1">
          <mxGeometry x="414" y="7315" width="30" height="20" as="geometry" />
        </mxCell>
        <mxCell id="K6NGUNYvaxgkHjzbPg3--642" style="edgeStyle=orthogonalEdgeStyle;rounded=0;orthogonalLoop=1;jettySize=auto;html=1;" parent="1" source="K6NGUNYvaxgkHjzbPg3--643" target="K6NGUNYvaxgkHjzbPg3--621" edge="1">
          <mxGeometry relative="1" as="geometry" />
        </mxCell>
        <mxCell id="K6NGUNYvaxgkHjzbPg3--643" value="State-based actions are checked" style="rounded=1;whiteSpace=wrap;html=1;" parent="1" vertex="1">
          <mxGeometry x="314" y="6880" width="200" height="30" as="geometry" />
        </mxCell>
        <mxCell id="K6NGUNYvaxgkHjzbPg3--644" value="&lt;div&gt;Activate&lt;/div&gt;&lt;div&gt;a mana ability&lt;/div&gt;" style="rounded=1;whiteSpace=wrap;html=1;" parent="1" vertex="1">
          <mxGeometry x="208" y="7010" width="60" height="60" as="geometry" />
        </mxCell>
        <mxCell id="K6NGUNYvaxgkHjzbPg3--645" value="&lt;div&gt;Activate&lt;/div&gt;&lt;div&gt;a non-mana ability&lt;/div&gt;" style="rounded=1;whiteSpace=wrap;html=1;" parent="1" vertex="1">
          <mxGeometry x="379" y="7010" width="84" height="60" as="geometry" />
        </mxCell>
        <mxCell id="K6NGUNYvaxgkHjzbPg3--646" value="&lt;div&gt;Cast&lt;/div&gt;&lt;div&gt;a spell&lt;/div&gt;" style="rounded=1;whiteSpace=wrap;html=1;" parent="1" vertex="1">
          <mxGeometry x="481" y="7010" width="58" height="60" as="geometry" />
        </mxCell>
        <mxCell id="K6NGUNYvaxgkHjzbPg3--647" value="&lt;div&gt;Pass&lt;/div&gt;&lt;div&gt;Priority&lt;br&gt;&lt;/div&gt;" style="rounded=1;whiteSpace=wrap;html=1;" parent="1" vertex="1">
          <mxGeometry x="558" y="7010" width="60" height="60" as="geometry" />
        </mxCell>
        <mxCell id="K6NGUNYvaxgkHjzbPg3--648" value="&lt;div&gt;Perform&lt;/div&gt;&lt;div&gt;a Special&lt;/div&gt;&lt;div&gt;Action&lt;br&gt;&lt;/div&gt;" style="rounded=1;whiteSpace=wrap;html=1;" parent="1" vertex="1">
          <mxGeometry x="289" y="7010" width="70" height="60" as="geometry" />
        </mxCell>
        <mxCell id="K6NGUNYvaxgkHjzbPg3--649" value="&quot;At the end of combat&quot; abilities trigger" style="rounded=1;whiteSpace=wrap;html=1;" parent="1" vertex="1">
          <mxGeometry x="292" y="6730" width="241" height="30" as="geometry" />
        </mxCell>
        <mxCell id="K6NGUNYvaxgkHjzbPg3--650" style="edgeStyle=orthogonalEdgeStyle;rounded=0;orthogonalLoop=1;jettySize=auto;html=1;" parent="1" source="K6NGUNYvaxgkHjzbPg3--571" target="K6NGUNYvaxgkHjzbPg3--649" edge="1">
          <mxGeometry relative="1" as="geometry" />
        </mxCell>
        <mxCell id="K6NGUNYvaxgkHjzbPg3--655" style="edgeStyle=orthogonalEdgeStyle;rounded=0;orthogonalLoop=1;jettySize=auto;html=1;" parent="1" source="K6NGUNYvaxgkHjzbPg3--651" target="K6NGUNYvaxgkHjzbPg3--652" edge="1">
          <mxGeometry relative="1" as="geometry" />
        </mxCell>
        <mxCell id="K6NGUNYvaxgkHjzbPg3--651" value="&quot;This combat&quot; and &quot;Until end of combat&quot; effects end" style="rounded=1;whiteSpace=wrap;html=1;" parent="1" vertex="1">
          <mxGeometry x="254" y="7470" width="319.5" height="30" as="geometry" />
        </mxCell>
        <mxCell id="K6NGUNYvaxgkHjzbPg3--652" value="Mana Pools empty" style="rounded=1;whiteSpace=wrap;html=1;" parent="1" vertex="1">
          <mxGeometry x="351.5" y="7530" width="125" height="30" as="geometry" />
        </mxCell>
        <mxCell id="K6NGUNYvaxgkHjzbPg3--656" value="Post-Combat Main Phase" style="rounded=0;whiteSpace=wrap;html=1;fillColor=#eeeeee;strokeColor=#36393d;align=left;verticalAlign=top;spacingLeft=5;" parent="1" vertex="1">
          <mxGeometry x="110" y="7590" width="610" height="750" as="geometry" />
        </mxCell>
        <mxCell id="K6NGUNYvaxgkHjzbPg3--657" style="edgeStyle=orthogonalEdgeStyle;rounded=0;orthogonalLoop=1;jettySize=auto;html=1;" parent="1" target="K6NGUNYvaxgkHjzbPg3--663" edge="1">
          <mxGeometry relative="1" as="geometry">
            <mxPoint x="412.79999999999995" y="7650" as="sourcePoint" />
          </mxGeometry>
        </mxCell>
        <mxCell id="K6NGUNYvaxgkHjzbPg3--658" value="Is the Stack empty?" style="shape=hexagon;perimeter=hexagonPerimeter2;whiteSpace=wrap;html=1;fixedSize=1;size=10;" parent="1" vertex="1">
          <mxGeometry x="333" y="8170" width="158" height="30" as="geometry" />
        </mxCell>
        <mxCell id="K6NGUNYvaxgkHjzbPg3--659" value="Resolve top object on the Stack" style="rounded=1;whiteSpace=wrap;html=1;" parent="1" vertex="1">
          <mxGeometry x="312" y="8230" width="200" height="30" as="geometry" />
        </mxCell>
        <mxCell id="K6NGUNYvaxgkHjzbPg3--660" style="edgeStyle=orthogonalEdgeStyle;rounded=0;orthogonalLoop=1;jettySize=auto;html=1;" parent="1" source="K6NGUNYvaxgkHjzbPg3--658" target="K6NGUNYvaxgkHjzbPg3--659" edge="1">
          <mxGeometry relative="1" as="geometry" />
        </mxCell>
        <mxCell id="K6NGUNYvaxgkHjzbPg3--661" value="Mana Pools empty" style="rounded=1;whiteSpace=wrap;html=1;" parent="1" vertex="1">
          <mxGeometry x="351.5" y="8300" width="123" height="30" as="geometry" />
        </mxCell>
        <mxCell id="K6NGUNYvaxgkHjzbPg3--662" style="edgeStyle=orthogonalEdgeStyle;rounded=0;orthogonalLoop=1;jettySize=auto;html=1;" parent="1" source="K6NGUNYvaxgkHjzbPg3--658" target="K6NGUNYvaxgkHjzbPg3--661" edge="1">
          <mxGeometry relative="1" as="geometry">
            <Array as="points">
              <mxPoint x="278" y="8185" />
              <mxPoint x="278" y="8280" />
              <mxPoint x="413" y="8280" />
            </Array>
          </mxGeometry>
        </mxCell>
        <mxCell id="K6NGUNYvaxgkHjzbPg3--663" value="Active Player gets Priority" style="rounded=1;whiteSpace=wrap;html=1;" parent="1" vertex="1">
          <mxGeometry x="328" y="7700" width="168" height="30" as="geometry" />
        </mxCell>
        <mxCell id="K6NGUNYvaxgkHjzbPg3--664" style="edgeStyle=orthogonalEdgeStyle;rounded=0;orthogonalLoop=1;jettySize=auto;html=1;" parent="1" source="K6NGUNYvaxgkHjzbPg3--659" target="K6NGUNYvaxgkHjzbPg3--663" edge="1">
          <mxGeometry relative="1" as="geometry">
            <Array as="points">
              <mxPoint x="710" y="8245" />
              <mxPoint x="710" y="7680" />
              <mxPoint x="413" y="7680" />
            </Array>
          </mxGeometry>
        </mxCell>
        <mxCell id="K6NGUNYvaxgkHjzbPg3--665" style="edgeStyle=orthogonalEdgeStyle;rounded=0;orthogonalLoop=1;jettySize=auto;html=1;entryX=0.5;entryY=0;entryDx=0;entryDy=0;" parent="1" source="K6NGUNYvaxgkHjzbPg3--671" target="K6NGUNYvaxgkHjzbPg3--687" edge="1">
          <mxGeometry relative="1" as="geometry">
            <Array as="points">
              <mxPoint x="412" y="7880" />
              <mxPoint x="184" y="7880" />
            </Array>
          </mxGeometry>
        </mxCell>
        <mxCell id="K6NGUNYvaxgkHjzbPg3--666" style="edgeStyle=orthogonalEdgeStyle;rounded=0;orthogonalLoop=1;jettySize=auto;html=1;" parent="1" source="K6NGUNYvaxgkHjzbPg3--671" target="K6NGUNYvaxgkHjzbPg3--694" edge="1">
          <mxGeometry relative="1" as="geometry">
            <Array as="points">
              <mxPoint x="412" y="7880" />
              <mxPoint x="270" y="7880" />
            </Array>
          </mxGeometry>
        </mxCell>
        <mxCell id="K6NGUNYvaxgkHjzbPg3--667" style="edgeStyle=orthogonalEdgeStyle;rounded=0;orthogonalLoop=1;jettySize=auto;html=1;" parent="1" source="K6NGUNYvaxgkHjzbPg3--671" target="K6NGUNYvaxgkHjzbPg3--696" edge="1">
          <mxGeometry relative="1" as="geometry" />
        </mxCell>
        <mxCell id="K6NGUNYvaxgkHjzbPg3--668" style="edgeStyle=orthogonalEdgeStyle;rounded=0;orthogonalLoop=1;jettySize=auto;html=1;entryX=0.5;entryY=0;entryDx=0;entryDy=0;" parent="1" source="K6NGUNYvaxgkHjzbPg3--671" target="K6NGUNYvaxgkHjzbPg3--689" edge="1">
          <mxGeometry relative="1" as="geometry" />
        </mxCell>
        <mxCell id="K6NGUNYvaxgkHjzbPg3--669" style="edgeStyle=orthogonalEdgeStyle;rounded=0;orthogonalLoop=1;jettySize=auto;html=1;" parent="1" source="K6NGUNYvaxgkHjzbPg3--671" target="K6NGUNYvaxgkHjzbPg3--691" edge="1">
          <mxGeometry relative="1" as="geometry">
            <Array as="points">
              <mxPoint x="412" y="7880" />
              <mxPoint x="566" y="7880" />
            </Array>
          </mxGeometry>
        </mxCell>
        <mxCell id="K6NGUNYvaxgkHjzbPg3--670" style="edgeStyle=orthogonalEdgeStyle;rounded=0;orthogonalLoop=1;jettySize=auto;html=1;entryX=0.5;entryY=0;entryDx=0;entryDy=0;" parent="1" source="K6NGUNYvaxgkHjzbPg3--671" target="K6NGUNYvaxgkHjzbPg3--692" edge="1">
          <mxGeometry relative="1" as="geometry">
            <Array as="points">
              <mxPoint x="412" y="7880" />
              <mxPoint x="644" y="7880" />
            </Array>
          </mxGeometry>
        </mxCell>
        <mxCell id="K6NGUNYvaxgkHjzbPg3--671" value="&lt;div&gt;The player holding priority may:&lt;/div&gt;" style="rounded=1;whiteSpace=wrap;html=1;" parent="1" vertex="1">
          <mxGeometry x="313" y="7830" width="198" height="30" as="geometry" />
        </mxCell>
        <mxCell id="K6NGUNYvaxgkHjzbPg3--672" style="edgeStyle=orthogonalEdgeStyle;rounded=0;orthogonalLoop=1;jettySize=auto;html=1;entryX=0.5;entryY=0;entryDx=0;entryDy=0;" parent="1" source="K6NGUNYvaxgkHjzbPg3--663" target="K6NGUNYvaxgkHjzbPg3--684" edge="1">
          <mxGeometry relative="1" as="geometry" />
        </mxCell>
        <mxCell id="K6NGUNYvaxgkHjzbPg3--673" style="edgeStyle=orthogonalEdgeStyle;rounded=0;orthogonalLoop=1;jettySize=auto;html=1;" parent="1" source="K6NGUNYvaxgkHjzbPg3--674" target="K6NGUNYvaxgkHjzbPg3--658" edge="1">
          <mxGeometry relative="1" as="geometry">
            <Array as="points">
              <mxPoint x="278" y="8055" />
              <mxPoint x="278" y="8150" />
              <mxPoint x="413" y="8150" />
            </Array>
          </mxGeometry>
        </mxCell>
        <mxCell id="K6NGUNYvaxgkHjzbPg3--674" value="Did all players Pass Priority?" style="shape=hexagon;perimeter=hexagonPerimeter2;whiteSpace=wrap;html=1;fixedSize=1;size=10;" parent="1" vertex="1">
          <mxGeometry x="315.5" y="8040" width="193" height="30" as="geometry" />
        </mxCell>
        <mxCell id="K6NGUNYvaxgkHjzbPg3--675" style="edgeStyle=orthogonalEdgeStyle;rounded=0;orthogonalLoop=1;jettySize=auto;html=1;" parent="1" source="K6NGUNYvaxgkHjzbPg3--692" target="K6NGUNYvaxgkHjzbPg3--674" edge="1">
          <mxGeometry relative="1" as="geometry">
            <Array as="points">
              <mxPoint x="644" y="8020" />
              <mxPoint x="413" y="8020" />
            </Array>
          </mxGeometry>
        </mxCell>
        <mxCell id="K6NGUNYvaxgkHjzbPg3--676" style="edgeStyle=orthogonalEdgeStyle;rounded=0;orthogonalLoop=1;jettySize=auto;html=1;" parent="1" source="K6NGUNYvaxgkHjzbPg3--677" edge="1">
          <mxGeometry relative="1" as="geometry">
            <mxPoint x="413" y="7770" as="targetPoint" />
            <Array as="points">
              <mxPoint x="690" y="8115" />
              <mxPoint x="690" y="7750" />
              <mxPoint x="413" y="7750" />
            </Array>
          </mxGeometry>
        </mxCell>
        <mxCell id="K6NGUNYvaxgkHjzbPg3--677" value="&lt;div&gt;Next player in turn order gets priority&lt;/div&gt;" style="rounded=1;whiteSpace=wrap;html=1;" parent="1" vertex="1">
          <mxGeometry x="298" y="8100" width="228" height="30" as="geometry" />
        </mxCell>
        <mxCell id="K6NGUNYvaxgkHjzbPg3--678" value="" style="edgeStyle=orthogonalEdgeStyle;rounded=0;orthogonalLoop=1;jettySize=auto;html=1;" parent="1" source="K6NGUNYvaxgkHjzbPg3--674" target="K6NGUNYvaxgkHjzbPg3--677" edge="1">
          <mxGeometry relative="1" as="geometry" />
        </mxCell>
        <mxCell id="K6NGUNYvaxgkHjzbPg3--679" value="&lt;div&gt;YES&lt;/div&gt;" style="text;html=1;strokeColor=none;fillColor=none;align=center;verticalAlign=middle;whiteSpace=wrap;rounded=0;" parent="1" vertex="1">
          <mxGeometry x="283.5" y="8035" width="28" height="20" as="geometry" />
        </mxCell>
        <mxCell id="K6NGUNYvaxgkHjzbPg3--680" value="&lt;div&gt;YES&lt;/div&gt;" style="text;html=1;strokeColor=none;fillColor=none;align=center;verticalAlign=middle;whiteSpace=wrap;rounded=0;" parent="1" vertex="1">
          <mxGeometry x="283.5" y="8165" width="28" height="20" as="geometry" />
        </mxCell>
        <mxCell id="K6NGUNYvaxgkHjzbPg3--681" value="NO" style="text;html=1;strokeColor=none;fillColor=none;align=center;verticalAlign=middle;whiteSpace=wrap;rounded=0;" parent="1" vertex="1">
          <mxGeometry x="413" y="8075" width="28" height="20" as="geometry" />
        </mxCell>
        <mxCell id="K6NGUNYvaxgkHjzbPg3--682" value="NO" style="text;html=1;strokeColor=none;fillColor=none;align=center;verticalAlign=middle;whiteSpace=wrap;rounded=0;" parent="1" vertex="1">
          <mxGeometry x="413" y="8205" width="28" height="20" as="geometry" />
        </mxCell>
        <mxCell id="K6NGUNYvaxgkHjzbPg3--683" style="edgeStyle=orthogonalEdgeStyle;rounded=0;orthogonalLoop=1;jettySize=auto;html=1;" parent="1" source="K6NGUNYvaxgkHjzbPg3--684" target="K6NGUNYvaxgkHjzbPg3--671" edge="1">
          <mxGeometry relative="1" as="geometry" />
        </mxCell>
        <mxCell id="K6NGUNYvaxgkHjzbPg3--684" value="State-based actions are checked" style="rounded=1;whiteSpace=wrap;html=1;" parent="1" vertex="1">
          <mxGeometry x="313" y="7770" width="198" height="30" as="geometry" />
        </mxCell>
        <mxCell id="K6NGUNYvaxgkHjzbPg3--685" value="&quot;At the beginning of the post-combat main phase&quot; abilities trigger" style="rounded=1;whiteSpace=wrap;html=1;" parent="1" vertex="1">
          <mxGeometry x="220" y="7620" width="388" height="30" as="geometry" />
        </mxCell>
        <mxCell id="K6NGUNYvaxgkHjzbPg3--686" style="edgeStyle=orthogonalEdgeStyle;rounded=0;orthogonalLoop=1;jettySize=auto;html=1;" parent="1" source="K6NGUNYvaxgkHjzbPg3--687" target="K6NGUNYvaxgkHjzbPg3--684" edge="1">
          <mxGeometry relative="1" as="geometry">
            <Array as="points">
              <mxPoint x="184" y="7980" />
              <mxPoint x="140" y="7980" />
              <mxPoint x="140" y="7750" />
              <mxPoint x="412" y="7750" />
            </Array>
          </mxGeometry>
        </mxCell>
        <mxCell id="K6NGUNYvaxgkHjzbPg3--687" value="&lt;div&gt;Activate&lt;/div&gt;&lt;div&gt;a mana ability&lt;/div&gt;" style="rounded=1;whiteSpace=wrap;html=1;" parent="1" vertex="1">
          <mxGeometry x="155" y="7900" width="58" height="60" as="geometry" />
        </mxCell>
        <mxCell id="K6NGUNYvaxgkHjzbPg3--688" style="edgeStyle=orthogonalEdgeStyle;rounded=0;orthogonalLoop=1;jettySize=auto;html=1;" parent="1" source="K6NGUNYvaxgkHjzbPg3--689" target="K6NGUNYvaxgkHjzbPg3--663" edge="1">
          <mxGeometry relative="1" as="geometry">
            <Array as="points">
              <mxPoint x="477" y="8000" />
              <mxPoint x="120" y="8000" />
              <mxPoint x="120" y="7680" />
              <mxPoint x="412" y="7680" />
            </Array>
          </mxGeometry>
        </mxCell>
        <mxCell id="K6NGUNYvaxgkHjzbPg3--689" value="&lt;div&gt;Activate&lt;/div&gt;&lt;div&gt;a non-mana ability&lt;/div&gt;" style="rounded=1;whiteSpace=wrap;html=1;" parent="1" vertex="1">
          <mxGeometry x="436" y="7900" width="82" height="60" as="geometry" />
        </mxCell>
        <mxCell id="K6NGUNYvaxgkHjzbPg3--690" style="edgeStyle=orthogonalEdgeStyle;rounded=0;orthogonalLoop=1;jettySize=auto;html=1;" parent="1" source="K6NGUNYvaxgkHjzbPg3--691" target="K6NGUNYvaxgkHjzbPg3--663" edge="1">
          <mxGeometry relative="1" as="geometry">
            <Array as="points">
              <mxPoint x="566" y="8000" />
              <mxPoint x="120" y="8000" />
              <mxPoint x="120" y="7680" />
              <mxPoint x="412" y="7680" />
            </Array>
          </mxGeometry>
        </mxCell>
        <mxCell id="K6NGUNYvaxgkHjzbPg3--691" value="&lt;div&gt;Cast&lt;/div&gt;&lt;div&gt;a spell&lt;/div&gt;" style="rounded=1;whiteSpace=wrap;html=1;" parent="1" vertex="1">
          <mxGeometry x="538" y="7900" width="56" height="60" as="geometry" />
        </mxCell>
        <mxCell id="K6NGUNYvaxgkHjzbPg3--692" value="&lt;div&gt;Pass&lt;/div&gt;&lt;div&gt;Priority&lt;br&gt;&lt;/div&gt;" style="rounded=1;whiteSpace=wrap;html=1;" parent="1" vertex="1">
          <mxGeometry x="615" y="7900" width="58" height="60" as="geometry" />
        </mxCell>
        <mxCell id="K6NGUNYvaxgkHjzbPg3--693" style="edgeStyle=orthogonalEdgeStyle;rounded=0;orthogonalLoop=1;jettySize=auto;html=1;" parent="1" source="K6NGUNYvaxgkHjzbPg3--694" target="K6NGUNYvaxgkHjzbPg3--684" edge="1">
          <mxGeometry relative="1" as="geometry">
            <Array as="points">
              <mxPoint x="270" y="7980" />
              <mxPoint x="140" y="7980" />
              <mxPoint x="140" y="7750" />
              <mxPoint x="412" y="7750" />
            </Array>
          </mxGeometry>
        </mxCell>
        <mxCell id="K6NGUNYvaxgkHjzbPg3--694" value="&lt;div&gt;Perform&lt;/div&gt;&lt;div&gt;a Special&lt;/div&gt;&lt;div&gt;Action&lt;br&gt;&lt;/div&gt;" style="rounded=1;whiteSpace=wrap;html=1;" parent="1" vertex="1">
          <mxGeometry x="236" y="7900" width="68" height="60" as="geometry" />
        </mxCell>
        <mxCell id="K6NGUNYvaxgkHjzbPg3--695" style="edgeStyle=orthogonalEdgeStyle;rounded=0;orthogonalLoop=1;jettySize=auto;html=1;" parent="1" source="K6NGUNYvaxgkHjzbPg3--696" target="K6NGUNYvaxgkHjzbPg3--684" edge="1">
          <mxGeometry relative="1" as="geometry">
            <Array as="points">
              <mxPoint x="369" y="7980" />
              <mxPoint x="140" y="7980" />
              <mxPoint x="140" y="7750" />
              <mxPoint x="412" y="7750" />
            </Array>
          </mxGeometry>
        </mxCell>
        <mxCell id="K6NGUNYvaxgkHjzbPg3--696" value="&lt;div&gt;Play a land&lt;/div&gt;&lt;div&gt;(only Active Player)&lt;br&gt;&lt;/div&gt;" style="rounded=1;whiteSpace=wrap;html=1;" parent="1" vertex="1">
          <mxGeometry x="328" y="7900" width="82" height="60" as="geometry" />
        </mxCell>
        <mxCell id="K6NGUNYvaxgkHjzbPg3--697" style="edgeStyle=orthogonalEdgeStyle;rounded=0;orthogonalLoop=1;jettySize=auto;html=1;" parent="1" source="K6NGUNYvaxgkHjzbPg3--652" target="K6NGUNYvaxgkHjzbPg3--685" edge="1">
          <mxGeometry relative="1" as="geometry" />
        </mxCell>
        <mxCell id="K6NGUNYvaxgkHjzbPg3--698" value="End Step" style="rounded=0;whiteSpace=wrap;html=1;align=left;verticalAlign=top;spacingLeft=5;fillColor=#f5f5f5;fontColor=#333333;strokeColor=#666666;" parent="1" vertex="1">
          <mxGeometry x="120" y="8380" width="590" height="740" as="geometry" />
        </mxCell>
        <mxCell id="K6NGUNYvaxgkHjzbPg3--699" style="edgeStyle=orthogonalEdgeStyle;rounded=0;orthogonalLoop=1;jettySize=auto;html=1;" parent="1" target="K6NGUNYvaxgkHjzbPg3--705" edge="1">
          <mxGeometry relative="1" as="geometry">
            <mxPoint x="412.79999999999995" y="8430" as="sourcePoint" />
          </mxGeometry>
        </mxCell>
        <mxCell id="K6NGUNYvaxgkHjzbPg3--700" value="Is the Stack empty?" style="shape=hexagon;perimeter=hexagonPerimeter2;whiteSpace=wrap;html=1;fixedSize=1;size=10;" parent="1" vertex="1">
          <mxGeometry x="333" y="8950" width="160" height="30" as="geometry" />
        </mxCell>
        <mxCell id="K6NGUNYvaxgkHjzbPg3--701" value="Resolve top object on the Stack" style="rounded=1;whiteSpace=wrap;html=1;" parent="1" vertex="1">
          <mxGeometry x="312" y="9010" width="202" height="30" as="geometry" />
        </mxCell>
        <mxCell id="K6NGUNYvaxgkHjzbPg3--702" style="edgeStyle=orthogonalEdgeStyle;rounded=0;orthogonalLoop=1;jettySize=auto;html=1;" parent="1" source="K6NGUNYvaxgkHjzbPg3--700" target="K6NGUNYvaxgkHjzbPg3--701" edge="1">
          <mxGeometry relative="1" as="geometry" />
        </mxCell>
        <mxCell id="K6NGUNYvaxgkHjzbPg3--703" value="Mana Pools empty" style="rounded=1;whiteSpace=wrap;html=1;" parent="1" vertex="1">
          <mxGeometry x="349.5" y="9080" width="125" height="30" as="geometry" />
        </mxCell>
        <mxCell id="K6NGUNYvaxgkHjzbPg3--704" style="edgeStyle=orthogonalEdgeStyle;rounded=0;orthogonalLoop=1;jettySize=auto;html=1;" parent="1" source="K6NGUNYvaxgkHjzbPg3--700" target="K6NGUNYvaxgkHjzbPg3--703" edge="1">
          <mxGeometry relative="1" as="geometry">
            <Array as="points">
              <mxPoint x="278" y="8965" />
              <mxPoint x="278" y="9060" />
              <mxPoint x="413" y="9060" />
            </Array>
          </mxGeometry>
        </mxCell>
        <mxCell id="K6NGUNYvaxgkHjzbPg3--705" value="Active Player gets Priority" style="rounded=1;whiteSpace=wrap;html=1;" parent="1" vertex="1">
          <mxGeometry x="328" y="8480" width="170" height="30" as="geometry" />
        </mxCell>
        <mxCell id="K6NGUNYvaxgkHjzbPg3--706" style="edgeStyle=orthogonalEdgeStyle;rounded=0;orthogonalLoop=1;jettySize=auto;html=1;" parent="1" source="K6NGUNYvaxgkHjzbPg3--701" target="K6NGUNYvaxgkHjzbPg3--705" edge="1">
          <mxGeometry relative="1" as="geometry">
            <Array as="points">
              <mxPoint x="658" y="9025" />
              <mxPoint x="658" y="8460" />
              <mxPoint x="413" y="8460" />
            </Array>
          </mxGeometry>
        </mxCell>
        <mxCell id="K6NGUNYvaxgkHjzbPg3--707" value="&lt;div&gt;The player holding priority may:&lt;/div&gt;" style="rounded=1;whiteSpace=wrap;html=1;" parent="1" vertex="1">
          <mxGeometry x="313" y="8610" width="200" height="30" as="geometry" />
        </mxCell>
        <mxCell id="K6NGUNYvaxgkHjzbPg3--708" style="edgeStyle=orthogonalEdgeStyle;rounded=0;orthogonalLoop=1;jettySize=auto;html=1;entryX=0.5;entryY=0;entryDx=0;entryDy=0;" parent="1" source="K6NGUNYvaxgkHjzbPg3--705" target="K6NGUNYvaxgkHjzbPg3--729" edge="1">
          <mxGeometry relative="1" as="geometry" />
        </mxCell>
        <mxCell id="K6NGUNYvaxgkHjzbPg3--709" style="edgeStyle=orthogonalEdgeStyle;rounded=0;orthogonalLoop=1;jettySize=auto;html=1;" parent="1" source="K6NGUNYvaxgkHjzbPg3--707" target="K6NGUNYvaxgkHjzbPg3--731" edge="1">
          <mxGeometry relative="1" as="geometry">
            <Array as="points">
              <mxPoint x="413" y="8660" />
              <mxPoint x="237" y="8660" />
            </Array>
          </mxGeometry>
        </mxCell>
        <mxCell id="K6NGUNYvaxgkHjzbPg3--710" style="edgeStyle=orthogonalEdgeStyle;rounded=0;orthogonalLoop=1;jettySize=auto;html=1;" parent="1" source="K6NGUNYvaxgkHjzbPg3--707" target="K6NGUNYvaxgkHjzbPg3--732" edge="1">
          <mxGeometry relative="1" as="geometry">
            <Array as="points">
              <mxPoint x="413" y="8660" />
              <mxPoint x="420" y="8660" />
            </Array>
          </mxGeometry>
        </mxCell>
        <mxCell id="K6NGUNYvaxgkHjzbPg3--711" style="edgeStyle=orthogonalEdgeStyle;rounded=0;orthogonalLoop=1;jettySize=auto;html=1;" parent="1" source="K6NGUNYvaxgkHjzbPg3--707" target="K6NGUNYvaxgkHjzbPg3--733" edge="1">
          <mxGeometry relative="1" as="geometry">
            <Array as="points">
              <mxPoint x="413" y="8660" />
              <mxPoint x="509" y="8660" />
            </Array>
          </mxGeometry>
        </mxCell>
        <mxCell id="K6NGUNYvaxgkHjzbPg3--712" style="edgeStyle=orthogonalEdgeStyle;rounded=0;orthogonalLoop=1;jettySize=auto;html=1;entryX=0.5;entryY=0;entryDx=0;entryDy=0;" parent="1" source="K6NGUNYvaxgkHjzbPg3--731" target="K6NGUNYvaxgkHjzbPg3--729" edge="1">
          <mxGeometry relative="1" as="geometry">
            <Array as="points">
              <mxPoint x="237" y="8760" />
              <mxPoint x="188" y="8760" />
              <mxPoint x="188" y="8530" />
              <mxPoint x="413" y="8530" />
            </Array>
          </mxGeometry>
        </mxCell>
        <mxCell id="K6NGUNYvaxgkHjzbPg3--713" style="edgeStyle=orthogonalEdgeStyle;rounded=0;orthogonalLoop=1;jettySize=auto;html=1;entryX=0.5;entryY=0;entryDx=0;entryDy=0;" parent="1" source="K6NGUNYvaxgkHjzbPg3--735" target="K6NGUNYvaxgkHjzbPg3--729" edge="1">
          <mxGeometry relative="1" as="geometry">
            <Array as="points">
              <mxPoint x="323" y="8760" />
              <mxPoint x="188" y="8760" />
              <mxPoint x="188" y="8530" />
              <mxPoint x="413" y="8530" />
            </Array>
          </mxGeometry>
        </mxCell>
        <mxCell id="K6NGUNYvaxgkHjzbPg3--714" style="edgeStyle=orthogonalEdgeStyle;rounded=0;orthogonalLoop=1;jettySize=auto;html=1;entryX=0.5;entryY=0;entryDx=0;entryDy=0;" parent="1" source="K6NGUNYvaxgkHjzbPg3--707" target="K6NGUNYvaxgkHjzbPg3--734" edge="1">
          <mxGeometry relative="1" as="geometry">
            <Array as="points">
              <mxPoint x="413" y="8660" />
              <mxPoint x="587" y="8660" />
            </Array>
          </mxGeometry>
        </mxCell>
        <mxCell id="K6NGUNYvaxgkHjzbPg3--715" style="edgeStyle=orthogonalEdgeStyle;rounded=0;orthogonalLoop=1;jettySize=auto;html=1;" parent="1" source="K6NGUNYvaxgkHjzbPg3--732" target="K6NGUNYvaxgkHjzbPg3--705" edge="1">
          <mxGeometry relative="1" as="geometry">
            <Array as="points">
              <mxPoint x="420" y="8780" />
              <mxPoint x="168" y="8780" />
              <mxPoint x="168" y="8460" />
              <mxPoint x="413" y="8460" />
            </Array>
          </mxGeometry>
        </mxCell>
        <mxCell id="K6NGUNYvaxgkHjzbPg3--716" style="edgeStyle=orthogonalEdgeStyle;rounded=0;orthogonalLoop=1;jettySize=auto;html=1;entryX=0.5;entryY=0;entryDx=0;entryDy=0;" parent="1" source="K6NGUNYvaxgkHjzbPg3--707" target="K6NGUNYvaxgkHjzbPg3--735" edge="1">
          <mxGeometry relative="1" as="geometry">
            <Array as="points">
              <mxPoint x="413" y="8660" />
              <mxPoint x="323" y="8660" />
            </Array>
          </mxGeometry>
        </mxCell>
        <mxCell id="K6NGUNYvaxgkHjzbPg3--717" style="edgeStyle=orthogonalEdgeStyle;rounded=0;orthogonalLoop=1;jettySize=auto;html=1;" parent="1" source="K6NGUNYvaxgkHjzbPg3--733" target="K6NGUNYvaxgkHjzbPg3--705" edge="1">
          <mxGeometry relative="1" as="geometry">
            <Array as="points">
              <mxPoint x="509" y="8780" />
              <mxPoint x="168" y="8780" />
              <mxPoint x="168" y="8460" />
              <mxPoint x="413" y="8460" />
            </Array>
          </mxGeometry>
        </mxCell>
        <mxCell id="K6NGUNYvaxgkHjzbPg3--718" style="edgeStyle=orthogonalEdgeStyle;rounded=0;orthogonalLoop=1;jettySize=auto;html=1;" parent="1" source="K6NGUNYvaxgkHjzbPg3--719" target="K6NGUNYvaxgkHjzbPg3--700" edge="1">
          <mxGeometry relative="1" as="geometry">
            <Array as="points">
              <mxPoint x="278" y="8835" />
              <mxPoint x="278" y="8930" />
              <mxPoint x="413" y="8930" />
            </Array>
          </mxGeometry>
        </mxCell>
        <mxCell id="K6NGUNYvaxgkHjzbPg3--719" value="Did all players Pass Priority?" style="shape=hexagon;perimeter=hexagonPerimeter2;whiteSpace=wrap;html=1;fixedSize=1;size=10;" parent="1" vertex="1">
          <mxGeometry x="315.5" y="8820" width="195" height="30" as="geometry" />
        </mxCell>
        <mxCell id="K6NGUNYvaxgkHjzbPg3--720" style="edgeStyle=orthogonalEdgeStyle;rounded=0;orthogonalLoop=1;jettySize=auto;html=1;" parent="1" source="K6NGUNYvaxgkHjzbPg3--734" target="K6NGUNYvaxgkHjzbPg3--719" edge="1">
          <mxGeometry relative="1" as="geometry">
            <Array as="points">
              <mxPoint x="587" y="8800" />
              <mxPoint x="413" y="8800" />
            </Array>
          </mxGeometry>
        </mxCell>
        <mxCell id="K6NGUNYvaxgkHjzbPg3--721" style="edgeStyle=orthogonalEdgeStyle;rounded=0;orthogonalLoop=1;jettySize=auto;html=1;" parent="1" source="K6NGUNYvaxgkHjzbPg3--722" edge="1">
          <mxGeometry relative="1" as="geometry">
            <mxPoint x="413" y="8550" as="targetPoint" />
            <Array as="points">
              <mxPoint x="638" y="8895" />
              <mxPoint x="638" y="8530" />
              <mxPoint x="413" y="8530" />
            </Array>
          </mxGeometry>
        </mxCell>
        <mxCell id="K6NGUNYvaxgkHjzbPg3--722" value="&lt;div&gt;Next player in turn order gets priority&lt;/div&gt;" style="rounded=1;whiteSpace=wrap;html=1;" parent="1" vertex="1">
          <mxGeometry x="298" y="8880" width="230" height="30" as="geometry" />
        </mxCell>
        <mxCell id="K6NGUNYvaxgkHjzbPg3--723" value="" style="edgeStyle=orthogonalEdgeStyle;rounded=0;orthogonalLoop=1;jettySize=auto;html=1;" parent="1" source="K6NGUNYvaxgkHjzbPg3--719" target="K6NGUNYvaxgkHjzbPg3--722" edge="1">
          <mxGeometry relative="1" as="geometry" />
        </mxCell>
        <mxCell id="K6NGUNYvaxgkHjzbPg3--724" value="&lt;div&gt;YES&lt;/div&gt;" style="text;html=1;strokeColor=none;fillColor=none;align=center;verticalAlign=middle;whiteSpace=wrap;rounded=0;" parent="1" vertex="1">
          <mxGeometry x="283.5" y="8815" width="30" height="20" as="geometry" />
        </mxCell>
        <mxCell id="K6NGUNYvaxgkHjzbPg3--725" value="&lt;div&gt;YES&lt;/div&gt;" style="text;html=1;strokeColor=none;fillColor=none;align=center;verticalAlign=middle;whiteSpace=wrap;rounded=0;" parent="1" vertex="1">
          <mxGeometry x="283.5" y="8945" width="30" height="20" as="geometry" />
        </mxCell>
        <mxCell id="K6NGUNYvaxgkHjzbPg3--726" value="NO" style="text;html=1;strokeColor=none;fillColor=none;align=center;verticalAlign=middle;whiteSpace=wrap;rounded=0;" parent="1" vertex="1">
          <mxGeometry x="413" y="8855" width="30" height="20" as="geometry" />
        </mxCell>
        <mxCell id="K6NGUNYvaxgkHjzbPg3--727" value="NO" style="text;html=1;strokeColor=none;fillColor=none;align=center;verticalAlign=middle;whiteSpace=wrap;rounded=0;" parent="1" vertex="1">
          <mxGeometry x="413" y="8985" width="30" height="20" as="geometry" />
        </mxCell>
        <mxCell id="K6NGUNYvaxgkHjzbPg3--728" style="edgeStyle=orthogonalEdgeStyle;rounded=0;orthogonalLoop=1;jettySize=auto;html=1;" parent="1" source="K6NGUNYvaxgkHjzbPg3--729" target="K6NGUNYvaxgkHjzbPg3--707" edge="1">
          <mxGeometry relative="1" as="geometry" />
        </mxCell>
        <mxCell id="K6NGUNYvaxgkHjzbPg3--729" value="State-based actions are checked" style="rounded=1;whiteSpace=wrap;html=1;" parent="1" vertex="1">
          <mxGeometry x="313" y="8550" width="200" height="30" as="geometry" />
        </mxCell>
        <mxCell id="K6NGUNYvaxgkHjzbPg3--730" value="&quot;At the beginning of the end step&quot; abilities trigger" style="rounded=1;whiteSpace=wrap;html=1;" parent="1" vertex="1">
          <mxGeometry x="262" y="8400" width="300" height="30" as="geometry" />
        </mxCell>
        <mxCell id="K6NGUNYvaxgkHjzbPg3--731" value="&lt;div&gt;Activate&lt;/div&gt;&lt;div&gt;a mana ability&lt;/div&gt;" style="rounded=1;whiteSpace=wrap;html=1;" parent="1" vertex="1">
          <mxGeometry x="207" y="8680" width="60" height="60" as="geometry" />
        </mxCell>
        <mxCell id="K6NGUNYvaxgkHjzbPg3--732" value="&lt;div&gt;Activate&lt;/div&gt;&lt;div&gt;a non-mana ability&lt;/div&gt;" style="rounded=1;whiteSpace=wrap;html=1;" parent="1" vertex="1">
          <mxGeometry x="378" y="8680" width="84" height="60" as="geometry" />
        </mxCell>
        <mxCell id="K6NGUNYvaxgkHjzbPg3--733" value="&lt;div&gt;Cast&lt;/div&gt;&lt;div&gt;a spell&lt;/div&gt;" style="rounded=1;whiteSpace=wrap;html=1;" parent="1" vertex="1">
          <mxGeometry x="480" y="8680" width="58" height="60" as="geometry" />
        </mxCell>
        <mxCell id="K6NGUNYvaxgkHjzbPg3--734" value="&lt;div&gt;Pass&lt;/div&gt;&lt;div&gt;Priority&lt;br&gt;&lt;/div&gt;" style="rounded=1;whiteSpace=wrap;html=1;" parent="1" vertex="1">
          <mxGeometry x="557" y="8680" width="60" height="60" as="geometry" />
        </mxCell>
        <mxCell id="K6NGUNYvaxgkHjzbPg3--735" value="&lt;div&gt;Perform&lt;/div&gt;&lt;div&gt;a Special&lt;/div&gt;&lt;div&gt;Action&lt;br&gt;&lt;/div&gt;" style="rounded=1;whiteSpace=wrap;html=1;" parent="1" vertex="1">
          <mxGeometry x="288" y="8680" width="70" height="60" as="geometry" />
        </mxCell>
        <mxCell id="K6NGUNYvaxgkHjzbPg3--736" value="&lt;div&gt;Cleanup Step&lt;/div&gt;" style="rounded=0;whiteSpace=wrap;html=1;align=left;verticalAlign=top;spacingLeft=5;fillColor=#f5f5f5;fontColor=#333333;strokeColor=#666666;" parent="1" vertex="1">
          <mxGeometry x="120" y="9130" width="590" height="940" as="geometry" />
        </mxCell>
        <mxCell id="K6NGUNYvaxgkHjzbPg3--737" style="edgeStyle=orthogonalEdgeStyle;rounded=0;orthogonalLoop=1;jettySize=auto;html=1;" parent="1" source="K6NGUNYvaxgkHjzbPg3--738" target="K6NGUNYvaxgkHjzbPg3--741" edge="1">
          <mxGeometry relative="1" as="geometry" />
        </mxCell>
        <mxCell id="K6NGUNYvaxgkHjzbPg3--738" value="Active Player discards down to their maximum hand size" style="rounded=1;whiteSpace=wrap;html=1;" parent="1" vertex="1">
          <mxGeometry x="246" y="9170" width="333.75" height="30" as="geometry" />
        </mxCell>
        <mxCell id="K6NGUNYvaxgkHjzbPg3--739" style="edgeStyle=orthogonalEdgeStyle;rounded=0;orthogonalLoop=1;jettySize=auto;html=1;" parent="1" source="K6NGUNYvaxgkHjzbPg3--741" target="K6NGUNYvaxgkHjzbPg3--749" edge="1">
          <mxGeometry relative="1" as="geometry" />
        </mxCell>
        <mxCell id="K6NGUNYvaxgkHjzbPg3--740" style="edgeStyle=orthogonalEdgeStyle;rounded=0;orthogonalLoop=1;jettySize=auto;html=1;" parent="1" source="K6NGUNYvaxgkHjzbPg3--741" target="K6NGUNYvaxgkHjzbPg3--747" edge="1">
          <mxGeometry relative="1" as="geometry">
            <Array as="points">
              <mxPoint x="150" y="9245" />
              <mxPoint x="150" y="9890" />
              <mxPoint x="413" y="9890" />
            </Array>
          </mxGeometry>
        </mxCell>
        <mxCell id="K6NGUNYvaxgkHjzbPg3--741" value="Is the stack empty?" style="shape=hexagon;perimeter=hexagonPerimeter2;whiteSpace=wrap;html=1;fixedSize=1;size=10;" parent="1" vertex="1">
          <mxGeometry x="333.75" y="9230" width="160" height="30" as="geometry" />
        </mxCell>
        <mxCell id="K6NGUNYvaxgkHjzbPg3--742" value="NO" style="text;html=1;strokeColor=none;fillColor=none;align=center;verticalAlign=middle;whiteSpace=wrap;rounded=0;" parent="1" vertex="1">
          <mxGeometry x="414" y="9265" width="30" height="20" as="geometry" />
        </mxCell>
        <mxCell id="K6NGUNYvaxgkHjzbPg3--743" value="YES" style="text;html=1;strokeColor=none;fillColor=none;align=center;verticalAlign=middle;whiteSpace=wrap;rounded=0;" parent="1" vertex="1">
          <mxGeometry x="285" y="9225" width="30" height="20" as="geometry" />
        </mxCell>
        <mxCell id="K6NGUNYvaxgkHjzbPg3--744" value="Is the Stack empty?" style="shape=hexagon;perimeter=hexagonPerimeter2;whiteSpace=wrap;html=1;fixedSize=1;size=10;" parent="1" vertex="1">
          <mxGeometry x="334" y="9780" width="160" height="30" as="geometry" />
        </mxCell>
        <mxCell id="K6NGUNYvaxgkHjzbPg3--745" value="Resolve top object on the Stack" style="rounded=1;whiteSpace=wrap;html=1;" parent="1" vertex="1">
          <mxGeometry x="313" y="9840" width="202" height="30" as="geometry" />
        </mxCell>
        <mxCell id="K6NGUNYvaxgkHjzbPg3--746" style="edgeStyle=orthogonalEdgeStyle;rounded=0;orthogonalLoop=1;jettySize=auto;html=1;" parent="1" source="K6NGUNYvaxgkHjzbPg3--744" target="K6NGUNYvaxgkHjzbPg3--745" edge="1">
          <mxGeometry relative="1" as="geometry" />
        </mxCell>
        <mxCell id="K6NGUNYvaxgkHjzbPg3--782" style="edgeStyle=orthogonalEdgeStyle;rounded=0;orthogonalLoop=1;jettySize=auto;html=1;" parent="1" source="K6NGUNYvaxgkHjzbPg3--747" target="K6NGUNYvaxgkHjzbPg3--780" edge="1">
          <mxGeometry relative="1" as="geometry" />
        </mxCell>
        <mxCell id="K6NGUNYvaxgkHjzbPg3--747" value="Damage is removed from permanents" style="rounded=1;whiteSpace=wrap;html=1;" parent="1" vertex="1">
          <mxGeometry x="296" y="9910" width="235.5" height="30" as="geometry" />
        </mxCell>
        <mxCell id="K6NGUNYvaxgkHjzbPg3--748" style="edgeStyle=orthogonalEdgeStyle;rounded=0;orthogonalLoop=1;jettySize=auto;html=1;" parent="1" source="K6NGUNYvaxgkHjzbPg3--744" target="K6NGUNYvaxgkHjzbPg3--738" edge="1">
          <mxGeometry relative="1" as="geometry">
            <Array as="points">
              <mxPoint x="660" y="9795" />
              <mxPoint x="660" y="9150" />
              <mxPoint x="413" y="9150" />
            </Array>
          </mxGeometry>
        </mxCell>
        <mxCell id="K6NGUNYvaxgkHjzbPg3--749" value="Active Player gets Priority" style="rounded=1;whiteSpace=wrap;html=1;" parent="1" vertex="1">
          <mxGeometry x="329" y="9310" width="170" height="30" as="geometry" />
        </mxCell>
        <mxCell id="K6NGUNYvaxgkHjzbPg3--750" style="edgeStyle=orthogonalEdgeStyle;rounded=0;orthogonalLoop=1;jettySize=auto;html=1;" parent="1" source="K6NGUNYvaxgkHjzbPg3--745" edge="1">
          <mxGeometry relative="1" as="geometry">
            <Array as="points">
              <mxPoint x="169" y="9855" />
              <mxPoint x="169" y="9290" />
              <mxPoint x="413" y="9290" />
            </Array>
            <mxPoint x="312" y="9855.000000000002" as="sourcePoint" />
            <mxPoint x="413.0434782608695" y="9310" as="targetPoint" />
          </mxGeometry>
        </mxCell>
        <mxCell id="K6NGUNYvaxgkHjzbPg3--751" value="&lt;div&gt;The player holding priority may:&lt;/div&gt;" style="rounded=1;whiteSpace=wrap;html=1;" parent="1" vertex="1">
          <mxGeometry x="314" y="9440" width="200" height="30" as="geometry" />
        </mxCell>
        <mxCell id="K6NGUNYvaxgkHjzbPg3--752" style="edgeStyle=orthogonalEdgeStyle;rounded=0;orthogonalLoop=1;jettySize=auto;html=1;entryX=0.5;entryY=0;entryDx=0;entryDy=0;" parent="1" source="K6NGUNYvaxgkHjzbPg3--749" target="K6NGUNYvaxgkHjzbPg3--773" edge="1">
          <mxGeometry relative="1" as="geometry" />
        </mxCell>
        <mxCell id="K6NGUNYvaxgkHjzbPg3--753" style="edgeStyle=orthogonalEdgeStyle;rounded=0;orthogonalLoop=1;jettySize=auto;html=1;" parent="1" source="K6NGUNYvaxgkHjzbPg3--751" target="K6NGUNYvaxgkHjzbPg3--774" edge="1">
          <mxGeometry relative="1" as="geometry">
            <Array as="points">
              <mxPoint x="414" y="9490" />
              <mxPoint x="238" y="9490" />
            </Array>
          </mxGeometry>
        </mxCell>
        <mxCell id="K6NGUNYvaxgkHjzbPg3--754" style="edgeStyle=orthogonalEdgeStyle;rounded=0;orthogonalLoop=1;jettySize=auto;html=1;" parent="1" source="K6NGUNYvaxgkHjzbPg3--751" target="K6NGUNYvaxgkHjzbPg3--775" edge="1">
          <mxGeometry relative="1" as="geometry">
            <Array as="points">
              <mxPoint x="414" y="9490" />
              <mxPoint x="421" y="9490" />
            </Array>
          </mxGeometry>
        </mxCell>
        <mxCell id="K6NGUNYvaxgkHjzbPg3--755" style="edgeStyle=orthogonalEdgeStyle;rounded=0;orthogonalLoop=1;jettySize=auto;html=1;" parent="1" source="K6NGUNYvaxgkHjzbPg3--751" target="K6NGUNYvaxgkHjzbPg3--776" edge="1">
          <mxGeometry relative="1" as="geometry">
            <Array as="points">
              <mxPoint x="414" y="9490" />
              <mxPoint x="510" y="9490" />
            </Array>
          </mxGeometry>
        </mxCell>
        <mxCell id="K6NGUNYvaxgkHjzbPg3--756" style="edgeStyle=orthogonalEdgeStyle;rounded=0;orthogonalLoop=1;jettySize=auto;html=1;entryX=0.5;entryY=0;entryDx=0;entryDy=0;" parent="1" source="K6NGUNYvaxgkHjzbPg3--774" target="K6NGUNYvaxgkHjzbPg3--773" edge="1">
          <mxGeometry relative="1" as="geometry">
            <Array as="points">
              <mxPoint x="238" y="9590" />
              <mxPoint x="189" y="9590" />
              <mxPoint x="189" y="9360" />
              <mxPoint x="414" y="9360" />
            </Array>
          </mxGeometry>
        </mxCell>
        <mxCell id="K6NGUNYvaxgkHjzbPg3--757" style="edgeStyle=orthogonalEdgeStyle;rounded=0;orthogonalLoop=1;jettySize=auto;html=1;entryX=0.5;entryY=0;entryDx=0;entryDy=0;" parent="1" source="K6NGUNYvaxgkHjzbPg3--778" target="K6NGUNYvaxgkHjzbPg3--773" edge="1">
          <mxGeometry relative="1" as="geometry">
            <Array as="points">
              <mxPoint x="324" y="9590" />
              <mxPoint x="189" y="9590" />
              <mxPoint x="189" y="9360" />
              <mxPoint x="414" y="9360" />
            </Array>
          </mxGeometry>
        </mxCell>
        <mxCell id="K6NGUNYvaxgkHjzbPg3--758" style="edgeStyle=orthogonalEdgeStyle;rounded=0;orthogonalLoop=1;jettySize=auto;html=1;entryX=0.5;entryY=0;entryDx=0;entryDy=0;" parent="1" source="K6NGUNYvaxgkHjzbPg3--751" target="K6NGUNYvaxgkHjzbPg3--777" edge="1">
          <mxGeometry relative="1" as="geometry">
            <Array as="points">
              <mxPoint x="414" y="9490" />
              <mxPoint x="588" y="9490" />
            </Array>
          </mxGeometry>
        </mxCell>
        <mxCell id="K6NGUNYvaxgkHjzbPg3--759" style="edgeStyle=orthogonalEdgeStyle;rounded=0;orthogonalLoop=1;jettySize=auto;html=1;" parent="1" source="K6NGUNYvaxgkHjzbPg3--775" target="K6NGUNYvaxgkHjzbPg3--749" edge="1">
          <mxGeometry relative="1" as="geometry">
            <Array as="points">
              <mxPoint x="421" y="9610" />
              <mxPoint x="169" y="9610" />
              <mxPoint x="169" y="9290" />
              <mxPoint x="414" y="9290" />
            </Array>
          </mxGeometry>
        </mxCell>
        <mxCell id="K6NGUNYvaxgkHjzbPg3--760" style="edgeStyle=orthogonalEdgeStyle;rounded=0;orthogonalLoop=1;jettySize=auto;html=1;entryX=0.5;entryY=0;entryDx=0;entryDy=0;" parent="1" source="K6NGUNYvaxgkHjzbPg3--751" target="K6NGUNYvaxgkHjzbPg3--778" edge="1">
          <mxGeometry relative="1" as="geometry">
            <Array as="points">
              <mxPoint x="414" y="9490" />
              <mxPoint x="324" y="9490" />
            </Array>
          </mxGeometry>
        </mxCell>
        <mxCell id="K6NGUNYvaxgkHjzbPg3--761" style="edgeStyle=orthogonalEdgeStyle;rounded=0;orthogonalLoop=1;jettySize=auto;html=1;" parent="1" source="K6NGUNYvaxgkHjzbPg3--776" target="K6NGUNYvaxgkHjzbPg3--749" edge="1">
          <mxGeometry relative="1" as="geometry">
            <Array as="points">
              <mxPoint x="510" y="9610" />
              <mxPoint x="169" y="9610" />
              <mxPoint x="169" y="9290" />
              <mxPoint x="414" y="9290" />
            </Array>
          </mxGeometry>
        </mxCell>
        <mxCell id="K6NGUNYvaxgkHjzbPg3--762" style="edgeStyle=orthogonalEdgeStyle;rounded=0;orthogonalLoop=1;jettySize=auto;html=1;" parent="1" source="K6NGUNYvaxgkHjzbPg3--763" target="K6NGUNYvaxgkHjzbPg3--744" edge="1">
          <mxGeometry relative="1" as="geometry">
            <Array as="points">
              <mxPoint x="279" y="9665" />
              <mxPoint x="279" y="9760" />
              <mxPoint x="414" y="9760" />
            </Array>
          </mxGeometry>
        </mxCell>
        <mxCell id="K6NGUNYvaxgkHjzbPg3--763" value="Did all players Pass Priority?" style="shape=hexagon;perimeter=hexagonPerimeter2;whiteSpace=wrap;html=1;fixedSize=1;size=10;" parent="1" vertex="1">
          <mxGeometry x="316.5" y="9650" width="195" height="30" as="geometry" />
        </mxCell>
        <mxCell id="K6NGUNYvaxgkHjzbPg3--764" style="edgeStyle=orthogonalEdgeStyle;rounded=0;orthogonalLoop=1;jettySize=auto;html=1;" parent="1" source="K6NGUNYvaxgkHjzbPg3--777" target="K6NGUNYvaxgkHjzbPg3--763" edge="1">
          <mxGeometry relative="1" as="geometry">
            <Array as="points">
              <mxPoint x="588" y="9630" />
              <mxPoint x="414" y="9630" />
            </Array>
          </mxGeometry>
        </mxCell>
        <mxCell id="K6NGUNYvaxgkHjzbPg3--765" style="edgeStyle=orthogonalEdgeStyle;rounded=0;orthogonalLoop=1;jettySize=auto;html=1;" parent="1" source="K6NGUNYvaxgkHjzbPg3--766" edge="1">
          <mxGeometry relative="1" as="geometry">
            <mxPoint x="414" y="9380" as="targetPoint" />
            <Array as="points">
              <mxPoint x="639" y="9725" />
              <mxPoint x="639" y="9360" />
              <mxPoint x="414" y="9360" />
            </Array>
          </mxGeometry>
        </mxCell>
        <mxCell id="K6NGUNYvaxgkHjzbPg3--766" value="&lt;div&gt;Next player in turn order gets priority&lt;/div&gt;" style="rounded=1;whiteSpace=wrap;html=1;" parent="1" vertex="1">
          <mxGeometry x="299" y="9710" width="230" height="30" as="geometry" />
        </mxCell>
        <mxCell id="K6NGUNYvaxgkHjzbPg3--767" value="" style="edgeStyle=orthogonalEdgeStyle;rounded=0;orthogonalLoop=1;jettySize=auto;html=1;" parent="1" source="K6NGUNYvaxgkHjzbPg3--763" target="K6NGUNYvaxgkHjzbPg3--766" edge="1">
          <mxGeometry relative="1" as="geometry" />
        </mxCell>
        <mxCell id="K6NGUNYvaxgkHjzbPg3--768" value="&lt;div&gt;YES&lt;/div&gt;" style="text;html=1;strokeColor=none;fillColor=none;align=center;verticalAlign=middle;whiteSpace=wrap;rounded=0;" parent="1" vertex="1">
          <mxGeometry x="284.5" y="9645" width="30" height="20" as="geometry" />
        </mxCell>
        <mxCell id="K6NGUNYvaxgkHjzbPg3--769" value="&lt;div&gt;YES&lt;/div&gt;" style="text;html=1;strokeColor=none;fillColor=none;align=center;verticalAlign=middle;whiteSpace=wrap;rounded=0;" parent="1" vertex="1">
          <mxGeometry x="504.5" y="9775" width="30" height="20" as="geometry" />
        </mxCell>
        <mxCell id="K6NGUNYvaxgkHjzbPg3--770" value="NO" style="text;html=1;strokeColor=none;fillColor=none;align=center;verticalAlign=middle;whiteSpace=wrap;rounded=0;" parent="1" vertex="1">
          <mxGeometry x="414" y="9685" width="30" height="20" as="geometry" />
        </mxCell>
        <mxCell id="K6NGUNYvaxgkHjzbPg3--771" value="NO" style="text;html=1;strokeColor=none;fillColor=none;align=center;verticalAlign=middle;whiteSpace=wrap;rounded=0;" parent="1" vertex="1">
          <mxGeometry x="414" y="9815" width="30" height="20" as="geometry" />
        </mxCell>
        <mxCell id="K6NGUNYvaxgkHjzbPg3--772" style="edgeStyle=orthogonalEdgeStyle;rounded=0;orthogonalLoop=1;jettySize=auto;html=1;" parent="1" source="K6NGUNYvaxgkHjzbPg3--773" target="K6NGUNYvaxgkHjzbPg3--751" edge="1">
          <mxGeometry relative="1" as="geometry" />
        </mxCell>
        <mxCell id="K6NGUNYvaxgkHjzbPg3--773" value="State-based actions are checked" style="rounded=1;whiteSpace=wrap;html=1;" parent="1" vertex="1">
          <mxGeometry x="314" y="9380" width="200" height="30" as="geometry" />
        </mxCell>
        <mxCell id="K6NGUNYvaxgkHjzbPg3--774" value="&lt;div&gt;Activate&lt;/div&gt;&lt;div&gt;a mana ability&lt;/div&gt;" style="rounded=1;whiteSpace=wrap;html=1;" parent="1" vertex="1">
          <mxGeometry x="208" y="9510" width="60" height="60" as="geometry" />
        </mxCell>
        <mxCell id="K6NGUNYvaxgkHjzbPg3--775" value="&lt;div&gt;Activate&lt;/div&gt;&lt;div&gt;a non-mana ability&lt;/div&gt;" style="rounded=1;whiteSpace=wrap;html=1;" parent="1" vertex="1">
          <mxGeometry x="379" y="9510" width="84" height="60" as="geometry" />
        </mxCell>
        <mxCell id="K6NGUNYvaxgkHjzbPg3--776" value="&lt;div&gt;Cast&lt;/div&gt;&lt;div&gt;a spell&lt;/div&gt;" style="rounded=1;whiteSpace=wrap;html=1;" parent="1" vertex="1">
          <mxGeometry x="481" y="9510" width="58" height="60" as="geometry" />
        </mxCell>
        <mxCell id="K6NGUNYvaxgkHjzbPg3--777" value="&lt;div&gt;Pass&lt;/div&gt;&lt;div&gt;Priority&lt;br&gt;&lt;/div&gt;" style="rounded=1;whiteSpace=wrap;html=1;" parent="1" vertex="1">
          <mxGeometry x="558" y="9510" width="60" height="60" as="geometry" />
        </mxCell>
        <mxCell id="K6NGUNYvaxgkHjzbPg3--778" value="&lt;div&gt;Perform&lt;/div&gt;&lt;div&gt;a Special&lt;/div&gt;&lt;div&gt;Action&lt;br&gt;&lt;/div&gt;" style="rounded=1;whiteSpace=wrap;html=1;" parent="1" vertex="1">
          <mxGeometry x="289" y="9510" width="70" height="60" as="geometry" />
        </mxCell>
        <mxCell id="K6NGUNYvaxgkHjzbPg3--779" style="edgeStyle=orthogonalEdgeStyle;rounded=0;orthogonalLoop=1;jettySize=auto;html=1;" parent="1" source="K6NGUNYvaxgkHjzbPg3--703" target="K6NGUNYvaxgkHjzbPg3--738" edge="1">
          <mxGeometry relative="1" as="geometry" />
        </mxCell>
        <mxCell id="K6NGUNYvaxgkHjzbPg3--783" style="edgeStyle=orthogonalEdgeStyle;rounded=0;orthogonalLoop=1;jettySize=auto;html=1;" parent="1" source="K6NGUNYvaxgkHjzbPg3--780" target="K6NGUNYvaxgkHjzbPg3--781" edge="1">
          <mxGeometry relative="1" as="geometry" />
        </mxCell>
        <mxCell id="K6NGUNYvaxgkHjzbPg3--780" value="&quot;This turn&quot; and &quot;Until end of turn&quot; effects end" style="rounded=1;whiteSpace=wrap;html=1;" parent="1" vertex="1">
          <mxGeometry x="270.13" y="9970" width="285.5" height="30" as="geometry" />
        </mxCell>
        <mxCell id="K6NGUNYvaxgkHjzbPg3--785" style="edgeStyle=orthogonalEdgeStyle;rounded=0;orthogonalLoop=1;jettySize=auto;html=1;" parent="1" source="K6NGUNYvaxgkHjzbPg3--781" target="K6NGUNYvaxgkHjzbPg3--784" edge="1">
          <mxGeometry relative="1" as="geometry" />
        </mxCell>
        <mxCell id="K6NGUNYvaxgkHjzbPg3--781" value="Mana Pools empty" style="rounded=1;whiteSpace=wrap;html=1;" parent="1" vertex="1">
          <mxGeometry x="350.5" y="10030" width="125" height="30" as="geometry" />
        </mxCell>
        <mxCell id="K6NGUNYvaxgkHjzbPg3--786" style="edgeStyle=orthogonalEdgeStyle;rounded=0;orthogonalLoop=1;jettySize=auto;html=1;exitX=0;exitY=0.5;exitDx=0;exitDy=0;" parent="1" source="cyQSi4xDq6iUD2--l04q-1" target="K6NGUNYvaxgkHjzbPg3--1" edge="1">
          <mxGeometry relative="1" as="geometry">
            <Array as="points">
              <mxPoint x="90" y="10175" />
              <mxPoint x="90" y="45" />
            </Array>
          </mxGeometry>
        </mxCell>
        <mxCell id="cyQSi4xDq6iUD2--l04q-2" style="edgeStyle=orthogonalEdgeStyle;rounded=0;orthogonalLoop=1;jettySize=auto;html=1;" edge="1" parent="1" source="K6NGUNYvaxgkHjzbPg3--784" target="cyQSi4xDq6iUD2--l04q-1">
          <mxGeometry relative="1" as="geometry" />
        </mxCell>
        <mxCell id="K6NGUNYvaxgkHjzbPg3--784" value="End of Turn" style="rounded=1;whiteSpace=wrap;html=1;" parent="1" vertex="1">
          <mxGeometry x="372" y="10100" width="81.5" height="30" as="geometry" />
        </mxCell>
        <mxCell id="cyQSi4xDq6iUD2--l04q-1" value="Next player in turn order becomes the Active Player" style="rounded=1;whiteSpace=wrap;html=1;" vertex="1" parent="1">
          <mxGeometry x="255" y="10160" width="315.5" height="30" as="geometry" />
        </mxCell>
      </root>
    </mxGraphModel>
  </diagram>
</mxfile>
